<svg viewBox="0 0 128 128" height="16" width="16" xmlns:xlink="http://www.w3.org/1999/xlink" xmlns="http://www.w3.org/2000/svg"><linearGradient id="e" gradientUnits="userSpaceOnUse" x1="117.001" x2="12.001" xlink:href="#a" y1="128" y2="-.082" gradientTransform="translate(4.968 4.968)scale(.92237)"/><linearGradient id="a"><stop offset="0" stop-color="#535353"/><stop offset="1" stop-color="#7e7e7e"/></linearGradient><linearGradient id="d" gradientUnits="userSpaceOnUse" x1="117.001" x2="12.001" xlink:href="#a" y1="128" y2="-.004" gradientTransform="translate(4.968 4.968)scale(.92237)"/><linearGradient id="c" gradientUnits="userSpaceOnUse" x1="108.001" x2="20.001" y1="122" y2="6" gradientTransform="translate(4.968 4.968)scale(.92237)"><stop offset="0" stop-color="#e6e6e6"/><stop offset="1" stop-color="#fff"/></linearGradient><linearGradient id="b" gradientTransform="matrix(7.3787 0 0 7.3769 -801.151 -7197.59)" gradientUnits="userSpaceOnUse" x1="122.75" x2="111.75" xlink:href="#a" y1="991.621" y2="977.117"/><path d="M20.882 4.968q-.346 0-.691.033c-3.383.645-4.212 2.09-4.151 5.532V117.5c0 3.863 1.67 5.532 5.534 5.533h84.856c3.864 0 5.532-1.67 5.533-5.533V51.256a7.47 7.47 0 0 0-2.076-5.302L71 7.076a7.47 7.47 0 0 0-5.303-2.075H21.574a7 7 0 0 0-.692-.033m64.575.013a4 4 0 0 0-.578.045c-2.456.787-3.282 4.524-1.39 6.282l22.226 22.34c2.053 1.957 6.141.283 6.25-2.56V8.748c0-1.95-1.765-3.722-3.704-3.722H86.037a4 4 0 0 0-.58-.045" fill="url(#b)" style="fill:url(#b);stroke-width:.922368"/><path d="M21.572 10.503v106.994h84.858v-66.41L65.846 10.503Z" fill="url(#c)" style="fill:url(#c);stroke-width:.922368"/><rect fill="#fcede4" height="36.895" rx=".469" width="57.187" x="34.486" y="54.776" style="stroke-width:.922368"/><path d="M33.563 53.854v50.73h59.032v-50.73Zm2.765 1.845h53.498a.92.92 0 0 1 .922.922v33.205a.92.92 0 0 1-.922.923H36.328a.92.92 0 0 1-.922-.923V56.621a.92.92 0 0 1 .922-.922m-.922 37.817h55.342v9.223H35.406z" fill="url(#d)" opacity=".6" style="fill:url(#d);stroke-width:.922368"/><path d="M38.175 56.621v.922h-.922v.923h.922v.922h1.014v-.922h.83v-.923h-.83v-.922zm23.982 0v.922h-2.768v.923h2.768v.922h1.014v-.922h2.675v-.923h-2.675v-.922zm23.981 0v.922h-.922v.923h.922v.922h1.014v-.922h.83v-.923h-.83v-.922zm-45.196.922v.923h2.767v-.923zm3.69 0v.923h2.767v-.923zm3.689 0v.923h2.767v-.923zm3.69 0v.923h2.767v-.923zm3.689 0v.923h2.767v-.923zm11.068 0v.923h2.768v-.923zm3.69 0v.923h2.767v-.923zm3.69 0v.923h2.766v-.923zm3.689 0v.923h2.767v-.923zm3.69 0v.923h2.766v-.923zm-43.352 2.768v2.767h1.014V60.31zm23.982 0v2.767h1.014V60.31zm23.981 0v2.767h1.014V60.31ZM38.175 64v2.767h1.014V64Zm23.982 0v2.767h1.014V64Zm23.981 0v2.767h1.014V64Zm-48.885 3.69v.922h.922v1.845h1.014v-1.845h.83v-.923h-1.843Zm3.69 0v.922h2.766v-.923zm3.689 0v.922h2.767v-.923zm3.689 0v.922h2.767v-.923zm3.69 0v.922h2.767v-.923zm3.689 0v.922h2.767v-.923zm3.69 0v.922h2.767v1.845h1.014v-1.845h2.675v-.923h-6.457zm7.378 0v.922h2.768v-.923zm3.69 0v.922h2.767v-.923zm3.69 0v.922h2.766v-.923zm3.689 0v.922h2.767v-.923zm3.69 0v.922h2.766v-.923zm3.689 0v.922h.922v1.845h1.014v-1.845h.83v-.923h-1.843zm-47.041 3.689v2.767h1.014V71.38zm23.982 0v2.767h1.014V71.38zm23.981 0v2.767h1.014V71.38zm-47.963 3.69v2.767h1.014v-2.768zm23.982 0v2.767h1.014v-2.768zm23.981 0v2.767h1.014v-2.768zm-47.963 3.689v2.767h1.014v-2.767zm23.982 0v2.767h1.014v-2.767zm23.981 0v2.767h1.014v-2.767zm-47.963 3.69v2.766h1.014v-2.767zm23.982 0v2.766h1.014v-2.767zm23.981 0v2.766h1.014v-2.767zm-47.963 3.689v.922h-.922v.923h.922v.922h1.014v-.922h.83v-.923h-.83v-.922zm23.982 0v.922h-2.768v.923h2.768v.922h1.014v-.922h2.675v-.923h-2.675v-.922zm23.981 0v.922h-.922v.923h.922v.922h1.014v-.922h.83v-.923h-.83v-.922zm-45.196.922v.923h2.767v-.923zm3.69 0v.923h2.767v-.923zm3.689 0v.923h2.767v-.923zm3.69 0v.923h2.767v-.923zm3.689 0v.923h2.767v-.923zm11.068 0v.923h2.768v-.923zm3.69 0v.923h2.767v-.923zm3.69 0v.923h2.766v-.923zm3.689 0v.923h2.767v-.923zm3.69 0v.923h2.766v-.923z" fill="#f09e6f" style="stroke-width:.922368"/><path d="M59.386 57.536 49.58 80.628l-5.808-10.993-5.583 2.06.993 3.352 2.69-1.368 6.908 14.295h1.638l11.281-26.748h22.607v1.844h2.769v-5.534H59.388zm3.201 10.153 8.92 9.894v.126L62.3 87.982h4.575l7.142-7.644h.142l7.85 7.644h4.957l-10.105-10.44v-.126l9.438-9.727h-4.576l-7.469 7.057h-.142l-6.568-7.057zm7.775 26.657q-.982 0-1.316.292-.333.288-.334 1.16v.948q0 .593-.209.818-.21.225-.765.225h-.245v.564h.245q.552 0 .762.229.213.228.212.825v.944q0 .872.334 1.163t1.316.292h.254v-.567h-.277q-.554 0-.722-.17-.165-.17-.166-.735v-.978q0-.616-.177-.897-.177-.28-.616-.387.434-.099.61-.379.183-.28.183-.9v-.979q0-.56.166-.73.169-.173.722-.174h.277v-.564zm6.426 0v.564h.269q.556 0 .726.175.17.173.17.73v.978q0 .62.177.9.182.28.617.379-.439.106-.617.387-.177.281-.178.897v.978q0 .557-.17.73-.168.174-.725.175h-.269v.567h.245q.983 0 1.314-.292.33-.291.331-1.163v-.944q0-.597.21-.825.215-.23.77-.23h.252v-.563h-.252q-.555 0-.77-.225-.209-.225-.21-.818v-.948q0-.872-.331-1.16-.33-.292-1.314-.292zm-13.62.81v1.257h-1.183v.565h1.182v2.4q0 .801.335 1.13.336.327 1.153.327h.888v-.582h-.817q-.462 0-.647-.192-.186-.194-.186-.683v-2.4h1.65v-.565h-1.65v-1.256zM49.075 96.19q-.797 0-1.227.348-.43.343-.43.978 0 .502.288.795.287.287.915.41l.272.054.032.011q.968.193.968.697a.65.65 0 0 1-.265.55q-.264.193-.746.193a2.7 2.7 0 0 1-.704-.103 4.3 4.3 0 0 1-.777-.315v.75q.419.139.777.204.36.071.688.072.83 0 1.295-.367.465-.371.465-1.027.001-.493-.28-.802-.276-.307-.817-.408l-.292-.056q-.723-.14-.904-.285t-.182-.441q0-.329.241-.487.245-.161.739-.162.327 0 .643.092.315.09.627.272v-.712a3.4 3.4 0 0 0-.643-.194 3.4 3.4 0 0 0-.683-.067m4.632.018q-.798 0-1.256.62t-.458 1.717q0 1.078.458 1.693.462.612 1.256.613.398-.001.699-.175.303-.177.48-.504v2.246h.732v-6.103h-.731v.563a1.24 1.24 0 0 0-.485-.497 1.37 1.37 0 0 0-.695-.173m6.164.07a1.6 1.6 0 0 0-.897.253q-.375.248-.557.719v-.865h-.73v4.42h.73v-2.197q0-.806.36-1.232.36-.427 1.038-.426.29 0 .53.083t.474.263v-.74a1.62 1.62 0 0 0-.948-.278m11.72.02 1.584 2.117-1.738 2.306h.841l1.292-1.773 1.293 1.773h.842l-1.737-2.306 1.584-2.117h-.818l-1.164 1.6-1.173-1.6Zm-17.77.526q.526 0 .793.434.273.43.273 1.27t-.273 1.276q-.267.43-.792.43-.526 0-.795-.43-.264-.43-.264-1.275t.264-1.274q.27-.43.795-.43z" fill="url(#e)" style="fill:url(#e);stroke-width:.922368"/></svg>