<svg viewBox="0 0 16 16" height="16" width="16" xmlns="http://www.w3.org/2000/svg"><path d="M15.296 4.352V1.616a.91.91 0 0 0-.912-.912H4.352a.91.91 0 0 0-.912.912v2.736L9.368 5.61z" fill="#41a5ee" style="stroke-width:.912"/><path fill="#2b7cd3" d="M3.439 4.352V8l5.929 1.066L15.295 8V4.352z" style="stroke-width:.96"/><path fill="#185abd" d="M3.44 8v3.648l5.927.912 5.929-.912V8z" style="stroke-width:.96"/><path d="M3.44 11.648v2.736a.91.91 0 0 0 .912.912h10.032a.91.91 0 0 0 .912-.912v-2.736z" fill="#103f91" style="stroke-width:.912"/><path d="M9.824 4.352H3.44v9.12h5.472a1.824 1.824 0 0 0 1.824-1.824V5.264a.91.91 0 0 0-.912-.912" opacity=".5" style="stroke-width:.912"/><rect y="3.44" width="9.12" height="9.12" rx=".912" fill="#185abd" x=".704" style="stroke-width:.912"/><path d="M3.76 9.404q.026.195.032.34h.018a7 7 0 0 1 .1-.661l.834-3.819H5.82l.86 3.763a6 6 0 0 1 .108.71h.016a6 6 0 0 1 .091-.688l.687-3.785h.98l-1.201 5.472h-1.15L5.39 7.111a9 9 0 0 1-.137-.774h-.016a14 14 0 0 1-.12.787l-.774 3.612H3.181L1.964 5.264h.999l.75 3.83c.017.076.032.183.049.31z" fill="#fff" style="stroke-width:.912"/></svg>