<svg width="16" height="16" viewBox="0 0 16 16" xmlns="http://www.w3.org/2000/svg"><path d="m8.106 4.346.147.154H13A1.5 1.5 0 0 1 14.5 6v6.133c0 .82-.568 1.367-1.133 1.367H2.633c-.565 0-1.133-.547-1.133-1.367V3.867c0-.82.568-1.367 1.133-1.367h3.489a.5.5 0 0 1 .36.154z" fill="#4B8BA6" fill-opacity=".9" stroke="#d9eaf1"/><path d="M15.691 10.586V9.263h-2.135a1.068 1.323 0 0 0-1.068 1.323v1.323a1.068 1.323 0 0 0 1.068 1.324h1.067v1.323h-2.135v1.323h2.135a1.068 1.323 0 0 0 1.068-1.323v-1.323a1.068 1.323 0 0 0-1.068-1.324h-1.067v-1.323m-2.67 3.97H9.818v-3.97h1.068m0-1.323H9.818a1.068 1.323 0 0 0-1.067 1.323v3.97a1.068 1.323 0 0 0 1.067 1.323h1.068a1.068 1.323 0 0 0 1.068-1.323v-3.97a1.068 1.323 0 0 0-1.068-1.323M7.15 15.879h1.068v-3.97H7.149m0-1.323h1.068V9.263H7.149Z" fill="#FEFEFE"/></svg>