<svg width="16" height="16" viewBox="0 0 16 16" xmlns="http://www.w3.org/2000/svg"><path d="m8.106 4.346.147.154H13A1.5 1.5 0 0 1 14.5 6v6.133c0 .82-.568 1.367-1.133 1.367H2.633c-.565 0-1.133-.547-1.133-1.367V3.867c0-.82.568-1.367 1.133-1.367h3.489a.5.5 0 0 1 .36.154z" fill="#BE8446" fill-opacity=".9" stroke="#f9e6d1"/><path fill-rule="evenodd" clip-rule="evenodd" d="M9.673 6.132c-.103.186-.17.416-.177.698-.025 1.194.057 1.01.006 1.558-.023.252-.054.345-.193.65-.153.33-.316.519-.542.808-.281.36-.669.852-.88 1.247a3 3 0 0 0-.26.792 3 3 0 0 0-.023.531c-.15.119-.226.32-.38.472-.099.099-.29.13-.502.168-.182.032-.375.097-.442.196l-.021.035c-.153.27.034.735-.057 1.078-.039.146-.105.284-.106.41a.4.4 0 0 0 .065.212c.054.086.172.147.341.2.157.05.362.094.6.145l.082.018q.16.036.32.066c.07.014.111.02.146.026.152.025.21.034.613.179q.148.054.32.104c.226.064.481.11.717.072a.8.8 0 0 0 .332-.133 1.2 1.2 0 0 0 .326-.36.6.6 0 0 0 .059-.146c.095-.044.33-.11.89-.114.844-.008 1.406.271 1.406.271v-.005q.01.054.027.103a.54.54 0 0 0 .179.255q.075.064.179.114.096.047.215.076a1.4 1.4 0 0 0 .474.022.9.9 0 0 0 .347-.114c.092-.052.167-.114.243-.178l.003-.002q.075-.064.158-.124l.21-.149q.126-.091.257-.18.133-.092.286-.183a34 34 0 0 0 .514-.31c.153-.095.364-.213.444-.367a.27.27 0 0 0 .037-.153c-.012-.175-.239-.334-.44-.49-.097-.078-.195-.154-.246-.232a.8.8 0 0 1-.106-.226c-.04-.191-.039-.334-.137-.46-.09-.116-.17-.149-.31-.164l-.06-.007c.091-.306.122-.501.095-.757-.093-.895-.718-1.551-1.058-1.995-.222-.29-.48-.588-.59-.787-.112-.198-.195-.474-.249-.635-.053-.157-.081-.532-.088-1.14.025-.932-.29-1.362-.67-1.63-.382-.27-.94-.265-1.142-.249-.17.014-.88.17-1.212.784" fill="#191919"/><path fill-rule="evenodd" clip-rule="evenodd" d="M7.14 13.061c-.2.089-.662.087-.774.263-.123.193-.043.407-.042.654 0 .174-.003.369-.083.575-.066.17-.088.231.006.38.095.151.504.223 1.057.344.554.121.378.032.998.254.384.138.926.306 1.277.055.13-.093.342-.303.355-.508a.8.8 0 0 0-.035-.317c-.1-.252-.303-.36-.496-.624-.352-.49-.727-.955-1.026-1.363-.211-.289-.381-.359-.525-.336-.44.072-.298.441-.712.623m5.612-.417c-.194.126-.152.503-.163.702-.018.304-.02.643-.031.778-.02.223-.204.727-.181.965s.04.377.202.513c.161.137.446.238.797.192.352-.047.485-.247.712-.403.228-.157.462-.342.762-.52.301-.176.785-.466.855-.544.07-.08.117-.147.066-.25-.05-.103-.225-.263-.417-.408-.5-.378-.284-.73-.492-.916-.064-.063-.111-.098-.185-.112-.4-.074-.509.07-.743.048-.252-.022-.157.029-.676-.035-.178-.018-.383-.083-.506-.01" fill="#fcc624"/><path fill-rule="evenodd" clip-rule="evenodd" d="M9.494 9.755c-.178.357-.17.236-.29.609-.165.138-.348.51-.468.83-.153.464-.268.942-.125 1.498.057.057.103.11.155.155.082.071.17.13.278.204.383.267.65.407.703.58.07.231-.087.384-.283.477.143.132.601.401 1.436.368.735-.03 1.196-.285 1.59-.725.002-.101.014-.27.02-.454.005-.174.006-.35.035-.485a.5.5 0 0 1 .032-.089c.048-.108.177-.182.301-.188.065-.003.133-.007.199.006.1-.715.02-1.208-.374-1.965-.03-.053-.176-.278-.263-.342-.068-.305-.077-.29-.214-.57-.206-.423-.281-.913-.344-1.201-.043.02-.118.049-.233.13-.083.06-.237.183-.355.258a1.5 1.5 0 0 1-.245.125c-.12.047-.236.076-.324.078-.316.016-.466-.056-.61-.193-.06-.058-.105-.121-.181-.198a1 1 0 0 0-.128-.11c-.001.037-.134.845-.312 1.202m1.415-2.133a.95.95 0 0 1 .048-.408c.093-.281.43-.47.714-.337.285.133.338.477.27.671-.043.12-.142.26-.218.347a5 5 0 0 0-.22-.074.34.34 0 0 0 .132-.128c.095-.157.061-.362-.074-.457s-.321-.045-.415.112a.37.37 0 0 0-.02.346 3 3 0 0 0-.217-.072m-1.045-.675c.267-.086.427.12.492.412.02.09.02.18.01.263l-.024.008a1 1 0 0 0-.102.042.4.4 0 0 0 .013-.06c.021-.165-.063-.334-.189-.38-.125-.044-.244.053-.265.217-.02.157.056.32.173.372l-.103.068a.7.7 0 0 1-.19-.353c-.064-.253.005-.532.185-.59" fill="#f5f5f5"/><path fill-rule="evenodd" clip-rule="evenodd" d="M9.778 8.448c.004.005.003.013.008.017.059.054.127.107.187.169.068.07.13.15.189.199a.62.62 0 0 0 .358.154c.287.033.501-.04.743-.187.114-.069.272-.196.363-.258.152-.105.196-.097.24-.15.047-.054.07-.198.056-.266-.01-.052-.03-.087-.093-.123a2.2 2.2 0 0 0-.393-.146h-.002l-.002-.001h-.002l-.001-.001h-.002l-.001-.001h-.003v-.001h-.003l-.001-.001h-.002V7.85h-.003l-.001-.001h-.003v-.001h-.003l-.002-.001-.003-.001-.005-.002-.004-.001h-.001l-.003-.002h-.003l-.004-.002h-.001l-.005-.002h-.002l-.003-.001-.006-.002h-.002l-.003-.002-.006-.002-.005-.001-.004-.001h-.001l-.002-.002h-.003v-.001l-.004-.001h-.001l-.005-.002h-.002l-.003-.002h-.003l-.002-.001h-.002l-.003-.002-.005-.002h-.002l-.003-.001-.004-.002-.005-.002-.004-.001-.003-.001h-.003v-.001l-.004-.002h-.003l-.002-.001h-.002l-.003-.002-.005-.002-.005-.001-.003-.002h-.003l-.003-.001-.004-.002h-.003l-.002-.002h-.001l-.003-.001h-.001l-.002-.001h-.002l-.002-.001-.003-.002h-.003l-.002-.001-.004-.002h-.004v-.001h-.003l-.002-.002-.004-.001-.005-.002-.004-.001-.003-.001-.002-.001-.004-.001h-.001v-.001h-.002v-.001h-.004v-.001h-.002l-.002-.001h-.004l-.001-.001h-.001l-.001-.001h-.002l-.002-.001h-.002v-.001h-.002l-.002-.001h-.002v-.001h-.002l-.001-.001h-.002l-.001-.001h-.001l-.002-.001h-.002l-.002-.001h-.002v-.001h-.002l-.001-.001h-.001l-.001-.001h-.003v-.001h-.002l-.001-.001h-.002l-.001-.001h-.001c-.208-.074-.344-.123-.534-.117a.7.7 0 0 0-.228.043l-.005.002-.005.001-.004.002-.005.002-.004.001-.002.002h-.003v.001l-.005.001v.001l-.005.002-.005.002-.003.001h-.001l-.002.001-.004.002-.004.001-.001.001-.004.002h-.002l-.003.002h-.001l-.002.001-.002.001-.003.001-.002.001-.003.002h-.003l-.002.002-.003.001-.003.001-.003.002-.002.001-.003.001-.002.002-.003.001-.003.001-.003.002-.003.001-.003.002-.003.001-.003.001-.002.002-.003.001-.003.001-.003.002-.003.001-.003.002-.003.002-.003.001-.003.002-.018.01h-.003l-.004.002-.002.001-.003.003h-.002v.001l-.004.001-.002.001-.002.002-.003.002h-.002l-.004.003h-.002l-.006.004h-.002l-.004.003-.002.002-.004.002h-.002l-.006.004-.002.001-.005.003h-.002l-.004.003h-.002v.001h-.002l-.002.002h-.001v.001h-.002V7.8l-.006.003-.002.001-.005.003-.002.001-.004.002-.002.002-.002.001-.003.001-.002.001-.002.002-.004.002-.003.002-.004.002-.002.002h-.002l-.002.002-.002.002h-.003l-.002.002-.002.002-.002.001h-.002l-.003.003h-.001l-.002.001-.001.001-.002.001-.001.001-.002.001h-.001l-.002.002-.003.002h-.001l-.001.001-.002.001-.002.001-.001.001-.002.001-.003.002h-.001l-.002.002h-.001l-.002.001-.002.001v.002h-.002l-.002.001-.003.002-.002.001h-.001l-.002.002-.001.001h-.002l-.002.002-.002.002H10v.002h-.002l-.002.002h-.001l-.002.002h-.001l-.002.001-.001.002h-.002l-.002.002h-.002l-.002.003h-.002l-.002.002h-.001l-.003.003H9.97l-.001.002-.007.004a.9.9 0 0 0-.254.23c-.034.05-.088.153-.038.212 0 0 .13.06.258.13.209.114.447.172.66.161a1.5 1.5 0 0 0 .494-.117c.137-.06.306-.156.47-.273.025-.017.074-.06.104-.074.027-.011.113-.005.11.022-.004.021-.105.059-.142.084-.18.122-.38.242-.51.297-.134.057-.36.122-.514.13a1 1 0 0 1-.38-.044 1.6 1.6 0 0 1-.312-.134c-.04-.021-.078-.039-.132-.07Z" fill="#fcc624"/><path fill-rule="evenodd" clip-rule="evenodd" d="M14.373 12.592a.4.4 0 0 0 .022-.069c.026-.24-.484-.294-.88-.282-.18.006-.32.025-.404.048-.146.04-.218.13-.234.243-.033.23.042.714.29.82.257.11.646-.047.875-.283.156-.16.254-.345.33-.477" fill="#191919"/></svg>