<svg width="16" height="16" viewBox="0 0 16 16" xmlns="http://www.w3.org/2000/svg"><path d="m8.106 4.346.147.154H13A1.5 1.5 0 0 1 14.5 6v6.133c0 .82-.568 1.367-1.133 1.367H2.633c-.565 0-1.133-.547-1.133-1.367V3.867c0-.82.568-1.367 1.133-1.367h3.489a.5.5 0 0 1 .36.154z" fill="#C17861" fill-opacity=".9" stroke="#f9e1da"/><defs><radialGradient id="b" gradientUnits="userSpaceOnUse" cx=".874" cy="-.129" fx=".874" fy="-.129" r="1.28" gradientTransform="matrix(14.94531 0 0 12.20313 .5 3.297)"><stop offset=".13" style="stop-color:#ffbd4f;stop-opacity:1"/><stop offset=".28" style="stop-color:#ff980e;stop-opacity:1"/><stop offset=".47" style="stop-color:#ff3750;stop-opacity:1"/><stop offset=".78" style="stop-color:#eb0878;stop-opacity:1"/><stop offset=".86" style="stop-color:#e50080;stop-opacity:1"/></radialGradient><radialGradient id="c" gradientUnits="userSpaceOnUse" cx=".49" cy=".4" fx=".49" fy=".4" r="1.28" gradientTransform="matrix(14.94531 0 0 12.20313 .5 3.297)"><stop offset=".3" style="stop-color:#960e18;stop-opacity:1"/><stop offset=".35" style="stop-color:#b11927;stop-opacity:.741176"/><stop offset=".43" style="stop-color:#db293d;stop-opacity:.341176"/><stop offset=".5" style="stop-color:#f5334b;stop-opacity:.0901961"/><stop offset=".53" style="stop-color:#ff3750;stop-opacity:0"/></radialGradient><radialGradient id="d" gradientUnits="userSpaceOnUse" cx=".48" cy="-.12" fx=".48" fy="-.12" r="1.4" gradientTransform="matrix(3.60156 0 0 6.11719 7.754 0)"><stop offset=".13" style="stop-color:#fff44f;stop-opacity:1"/><stop offset=".53" style="stop-color:#ff980e;stop-opacity:1"/></radialGradient><radialGradient id="e" gradientUnits="userSpaceOnUse" cx=".228" cy="1.101" fx=".228" fy="1.101" r="1" gradientTransform="matrix(6.66797 0 0 7.30469 4.64 4.16)"><stop offset=".35" style="stop-color:#3a8ee6;stop-opacity:1"/><stop offset=".67" style="stop-color:#9059ff;stop-opacity:1"/><stop offset="1" style="stop-color:#c139e6;stop-opacity:1"/></radialGradient><radialGradient id="f" gradientUnits="userSpaceOnUse" cx=".52" cy=".33" fx=".52" fy=".33" r=".59" gradientTransform="matrix(6.00117 0 0 7.30469 4.64 4.16)"><stop offset=".21" style="stop-color:#9059ff;stop-opacity:0"/><stop offset=".97" style="stop-color:#6e008b;stop-opacity:.6"/></radialGradient><radialGradient id="g" gradientUnits="userSpaceOnUse" cx="2.1" cy="-1" fx="2.1" fy="-1" r="2.9" gradientTransform="matrix(1.82813 0 0 1.83594 3.664 2.988)"><stop offset=".1" style="stop-color:#ffe226;stop-opacity:1"/><stop offset=".79" style="stop-color:#ff7139;stop-opacity:1"/></radialGradient><radialGradient id="h" gradientUnits="userSpaceOnUse" cx=".84" cy="-.41" fx=".84" fy="-.41" r="1.8" gradientTransform="matrix(13.64453 0 0 11.80469 .57 2.504)"><stop offset=".11" style="stop-color:#fff44f;stop-opacity:1"/><stop offset=".46" style="stop-color:#ff980e;stop-opacity:1"/><stop offset=".72" style="stop-color:#ff3647;stop-opacity:1"/><stop offset=".9" style="stop-color:#e31587;stop-opacity:1"/></radialGradient><radialGradient id="i" gradientUnits="userSpaceOnUse" cx=".161" cy="-.186" fx=".161" fy="-.186" r="3.488" gradientTransform="matrix(4.70313 0 0 10.15234 9.512 0)"><stop offset="0" style="stop-color:#fff44f;stop-opacity:1"/><stop offset=".3" style="stop-color:#ff980e;stop-opacity:1"/><stop offset=".57" style="stop-color:#ff3647;stop-opacity:1"/><stop offset=".74" style="stop-color:#e31587;stop-opacity:1"/></radialGradient><radialGradient id="j" gradientUnits="userSpaceOnUse" cx=".189" cy="-.425" fx=".189" fy="-.425" r="2.384" gradientTransform="matrix(6.09766 0 0 5.96094 6.406 5.64)"><stop offset=".14" style="stop-color:#fff44f;stop-opacity:1"/><stop offset=".48" style="stop-color:#ff980e;stop-opacity:1"/><stop offset=".66" style="stop-color:#ff3647;stop-opacity:1"/><stop offset=".9" style="stop-color:#e31587;stop-opacity:1"/></radialGradient><radialGradient id="k" gradientUnits="userSpaceOnUse" cx="1.593" cy="-.447" fx="1.593" fy="-.447" r="3.131" gradientTransform="matrix(5.58203 0 0 4.6914 2.441 6.438)"><stop offset=".09" style="stop-color:#fff44f;stop-opacity:1"/><stop offset=".63" style="stop-color:#ff980e;stop-opacity:1"/></radialGradient><linearGradient id="a" gradientUnits="userSpaceOnUse" x1=".873" y1=".155" x2=".094" y2=".931" gradientTransform="matrix(14.94531 0 0 15.5 .5 0)"><stop offset=".05" style="stop-color:#fff44f;stop-opacity:1"/><stop offset=".37" style="stop-color:#ff980e;stop-opacity:1"/><stop offset=".53" style="stop-color:#ff3647;stop-opacity:1"/><stop offset=".7" style="stop-color:#e31587;stop-opacity:1"/></linearGradient><linearGradient id="l" gradientUnits="userSpaceOnUse" x1=".8" y1=".14" x2=".18" y2=".84" gradientTransform="matrix(14.94531 0 0 15.5 .5 0)"><stop offset=".17" style="stop-color:#fff44f;stop-opacity:.8"/><stop offset=".6" style="stop-color:#fff44f;stop-opacity:0"/></linearGradient></defs><path style="fill:url(#a);fill-rule:nonzero;stroke:none" d="M14.96 5.2c-.327-.786-.987-1.634-1.507-1.903.422.828.668 1.66.762 2.281v.012c-.848-2.117-2.29-2.969-3.465-4.828a9 9 0 0 1-.176-.29 1 1 0 0 1-.082-.156A1.1 1.1 0 0 1 10.38.02q-.001-.013-.02-.02h-.011l-.004.004q-.004-.001-.008.004c.004-.004.004-.004.004-.008-1.887 1.105-2.527 3.152-2.586 4.172a3.8 3.8 0 0 0-2.066.797c-.063-.051-.125-.102-.196-.145a3.5 3.5 0 0 1-.02-1.836c-.769.352-1.37.907-1.808 1.395H3.66c-.297-.375-.273-1.621-.258-1.88-.004-.015-.222.114-.25.134a5.4 5.4 0 0 0-.734.629 7 7 0 0 0-.703.84v.003-.004A6.4 6.4 0 0 0 .707 6.383c-.004.015-.004.031-.008.047a9 9 0 0 0-.074.468c0 .008 0 .012-.004.02-.062.34-.105.687-.121 1.035v.04a7.511 7.511 0 0 0 14.914 1.269q.02-.145.031-.29c.153-1.288-.015-2.64-.484-3.773m-8.655 5.878q.05.026.101.05h.008q-.057-.024-.11-.05m7.91-5.487v-.004.008zm0 0" transform="matrix(.6356 0 0 .62685 6.065 6.142)"/><path style="fill:url(#b);fill-rule:nonzero;stroke:none" d="M14.96 5.2c-.327-.786-.987-1.634-1.507-1.903.422.828.668 1.66.762 2.281v.016c.71 1.918.324 3.87-.235 5.066-.859 1.848-2.94 3.738-6.203 3.649-3.523-.102-6.629-2.715-7.207-6.141-.105-.54 0-.813.051-1.25C.56 7.254.535 7.352.5 7.953v.04a7.511 7.511 0 0 0 14.914 1.269c.012-.098.024-.192.031-.29.153-1.288-.015-2.64-.484-3.773m0 0" transform="matrix(.6356 0 0 .62685 6.065 6.142)"/><path style="fill:url(#c);fill-rule:nonzero;stroke:none" d="M14.96 5.2c-.327-.786-.987-1.634-1.507-1.903.422.828.668 1.66.762 2.281v.016c.71 1.918.324 3.87-.235 5.066-.859 1.848-2.94 3.738-6.203 3.649-3.523-.102-6.629-2.715-7.207-6.141-.105-.54 0-.813.051-1.25C.56 7.254.535 7.352.5 7.953v.04a7.511 7.511 0 0 0 14.914 1.269c.012-.098.024-.192.031-.29.153-1.288-.015-2.64-.484-3.773m0 0" transform="matrix(.6356 0 0 .62685 6.065 6.142)"/><path style="fill:url(#d);fill-rule:nonzero;stroke:none" d="M11.309 6.082c.02.012.03.023.046.035a4 4 0 0 0-.695-.91c-2.336-2.336-.613-5.062-.324-5.2q.005-.003.004-.007C8.453 1.105 7.813 3.152 7.754 4.172c.09-.004.176-.012.266-.012a3.79 3.79 0 0 1 3.289 1.922m0 0" transform="matrix(.6356 0 0 .62685 6.065 6.142)"/><path style="fill:url(#e);fill-rule:nonzero;stroke:none" d="M8.023 6.547c-.011.187-.671.832-.902.832-2.137 0-2.48 1.293-2.48 1.293.093 1.086.851 1.98 1.765 2.457l.13.058a3.2 3.2 0 0 0 1.194.278c3.747.176 4.47-4.473 1.77-5.824.691-.121 1.41.16 1.809.441a3.79 3.79 0 0 0-3.29-1.922c-.09 0-.175.008-.265.012a3.8 3.8 0 0 0-2.066.797c.117.097.246.226.515.496.512.5 1.817 1.02 1.82 1.082m0 0" transform="matrix(.6356 0 0 .62685 6.065 6.142)"/><path style="fill:url(#f);fill-rule:nonzero;stroke:none" d="M8.023 6.547c-.011.187-.671.832-.902.832-2.137 0-2.48 1.293-2.48 1.293.093 1.086.851 1.98 1.765 2.457l.13.058a3.2 3.2 0 0 0 1.194.278c3.747.176 4.47-4.473 1.77-5.824.691-.121 1.41.16 1.809.441a3.79 3.79 0 0 0-3.29-1.922c-.09 0-.175.008-.265.012a3.8 3.8 0 0 0-2.066.797c.117.097.246.226.515.496.512.5 1.817 1.02 1.82 1.082m0 0" transform="matrix(.6356 0 0 .62685 6.065 6.142)"/><path style="fill:url(#g);fill-rule:nonzero;stroke:none" d="m5.34 4.719.152.105a3.5 3.5 0 0 1-.02-1.836c-.769.352-1.37.907-1.808 1.395.04 0 1.125-.02 1.676.336m0 0" transform="matrix(.6356 0 0 .62685 6.065 6.142)"/><path style="fill:url(#h);fill-rule:nonzero;stroke:none" d="M.57 8.168c.578 3.426 3.684 6.039 7.207 6.14 3.262.09 5.344-1.8 6.203-3.648.56-1.195.946-3.148.235-5.066v-.016.012c.265 1.738-.617 3.426-2 4.562l-.004.012c-2.695 2.195-5.277 1.324-5.797.969q-.057-.031-.11-.055c-1.574-.754-2.222-2.183-2.081-3.41-1.328 0-1.782-1.121-1.782-1.121s1.192-.848 2.762-.11c1.457.684 2.82.11 2.82.11-.003-.059-1.308-.582-1.82-1.082a9 9 0 0 0-.516-.496 2 2 0 0 0-.195-.145l-.152-.105c-.55-.356-1.637-.336-1.676-.336H3.66c-.297-.375-.273-1.621-.258-1.88-.004-.015-.222.114-.25.134a5.4 5.4 0 0 0-.734.629 7 7 0 0 0-.703.84v.003-.004A6.4 6.4 0 0 0 .707 6.383c-.004.015-.27 1.18-.137 1.785m0 0" transform="matrix(.6356 0 0 .62685 6.065 6.142)"/><path style="fill:url(#i);fill-rule:nonzero;stroke:none" d="M10.66 5.207q.413.406.695.91.065.045.114.09c1.703 1.57.812 3.79.746 3.945 1.383-1.136 2.265-2.824 2-4.562-.848-2.117-2.29-2.969-3.465-4.828a9 9 0 0 1-.176-.29 1 1 0 0 1-.082-.156A1.1 1.1 0 0 1 10.38.02q-.001-.013-.02-.02h-.011l-.004.004q-.004-.001-.008.004c-.29.137-2.012 2.863.324 5.199m0 0" transform="matrix(.6356 0 0 .62685 6.065 6.142)"/><path style="fill:url(#j);fill-rule:nonzero;stroke:none" d="M11.469 6.207a1 1 0 0 0-.114-.09c-.015-.012-.027-.023-.046-.035-.399-.281-1.118-.562-1.809-.441 2.7 1.351 1.977 6-1.77 5.828a3.4 3.4 0 0 1-.976-.192 4 4 0 0 1-.219-.09l-.129-.058c.004 0 .004 0 .008.004.52.355 3.102 1.226 5.797-.969l.004-.012c.066-.156.957-2.375-.746-3.945m0 0" transform="matrix(.6356 0 0 .62685 6.065 6.142)"/><path style="fill:url(#k);fill-rule:nonzero;stroke:none" d="M4.64 8.672s.344-1.293 2.481-1.293c.23 0 .89-.645.902-.832.012-.188-1.363.574-2.82-.11-1.57-.738-2.762.11-2.762.11s.454 1.121 1.782 1.121c-.141 1.227.507 2.656 2.082 3.41q.05.026.101.05c-.914-.476-1.672-1.37-1.765-2.456m0 0" transform="matrix(.6356 0 0 .62685 6.065 6.142)"/><path style="fill:url(#l);fill-rule:nonzero;stroke:none" d="M14.96 5.2c-.327-.786-.987-1.634-1.507-1.903.422.828.668 1.66.762 2.281v.012c-.848-2.117-2.29-2.969-3.465-4.828a9 9 0 0 1-.176-.29 1 1 0 0 1-.082-.156A1.1 1.1 0 0 1 10.38.02q-.001-.013-.02-.02h-.011l-.004.004q-.004-.001-.008.004c.004-.004.004-.004.004-.008-1.887 1.105-2.527 3.152-2.586 4.172.09-.004.176-.012.266-.012a3.79 3.79 0 0 1 3.289 1.922c-.399-.281-1.118-.562-1.809-.441 2.7 1.351 1.977 6-1.77 5.828a3.4 3.4 0 0 1-.976-.192 4 4 0 0 1-.219-.09l-.129-.058q.004-.001.008.004-.057-.031-.11-.055c.036.016.067.035.102.05-.914-.476-1.672-1.37-1.77-2.456 0 0 .348-1.293 2.485-1.293.23 0 .89-.645.902-.832-.003-.059-1.308-.582-1.82-1.082a9 9 0 0 0-.516-.496 2 2 0 0 0-.195-.145 3.5 3.5 0 0 1-.02-1.836c-.769.352-1.37.907-1.808 1.395H3.66c-.297-.375-.277-1.621-.258-1.88-.004-.015-.222.114-.25.134a5.4 5.4 0 0 0-.734.629 7 7 0 0 0-.703.84v.003-.004A6.4 6.4 0 0 0 .707 6.383c-.004.015-.004.031-.008.047a9 9 0 0 0-.086.476c-.004.004 0-.008 0 0A9 9 0 0 0 .5 7.953v.04a7.511 7.511 0 0 0 14.914 1.269c.012-.098.024-.192.031-.29.153-1.288-.015-2.64-.484-3.773m-.745.386v.008zm0 0" transform="matrix(.6356 0 0 .62685 6.065 6.142)"/></svg>