<svg xmlns="http://www.w3.org/2000/svg" width="16" height="16" viewBox="0 0 16 16"><path d="m8.106 4.346.147.154H13A1.5 1.5 0 0 1 14.5 6v6.133c0 .82-.568 1.367-1.133 1.367H2.633c-.565 0-1.133-.547-1.133-1.367V3.867c0-.82.568-1.367 1.133-1.367h3.489a.5.5 0 0 1 .36.154z" fill="#43454A" stroke="#CED0D6"/><g fill="none" fill-rule="evenodd"><path fill="#1f58ff" d="M4.504 6.99h11.409v8.923H4.504z"/><g fill="#fff"><path d="M15.1 14.186v.846h-2.667l1.455-3.158q.215-.471.215-.734a.56.56 0 0 0-.065-.302q-.065-.1-.198-.1a.21.21 0 0 0-.198.11q-.065.11-.065.439v.472h-1.045v-.181q0-.417.04-.657a1.2 1.2 0 0 1 .2-.474q.159-.233.413-.352.254-.12.61-.12.695 0 1.052.366.357.367.356.927 0 .427-.2.901-.2.476-1.183 2.017z"/><path fill-rule="nonzero" d="M9.564 12.173h1.297v-1.956h.978v4.819h-.978v-1.792H9.564v1.792h-.978v-4.819h.978z"/></g></g></svg>