<svg width="16" height="16" viewBox="0 0 16 16" xmlns="http://www.w3.org/2000/svg"><path d="m8.106 4.346.147.154H13A1.5 1.5 0 0 1 14.5 6v6.133c0 .82-.568 1.367-1.133 1.367H2.633c-.565 0-1.133-.547-1.133-1.367V3.867c0-.82.568-1.367 1.133-1.367h3.489a.5.5 0 0 1 .36.154z" fill="#2A7A4E" fill-opacity=".9" stroke="#dcf7e8"/><path d="M8.68 10.663a5.21 5.642 0 0 1 1.944-.405c.685 0 1.34.144 1.94.403l1.22-2.288.755.471-1.195 2.24a5.221 5.653 0 0 1 2.504 4.832H5.398a5.221 5.653 0 0 1 2.503-4.83L6.705 8.844l.754-.471Zm-.669 2.424v.943h.871v-.943zm4.354 0v.943h.871v-.943z" fill="#2CC771" fill-rule="evenodd"/></svg>