<svg width="16" height="16" viewBox="0 0 16 16" xmlns="http://www.w3.org/2000/svg"><path d="m8.106 4.346.147.154H13A1.5 1.5 0 0 1 14.5 6v6.133c0 .82-.568 1.367-1.133 1.367H2.633c-.565 0-1.133-.547-1.133-1.367V3.867c0-.82.568-1.367 1.133-1.367h3.489a.5.5 0 0 1 .36.154z" fill="#878181" fill-opacity=".9" stroke="#ebebeb"/><path d="M15.761 13.581q-.254.56-.604 1.03-.477.645-.778.893-.466.406-1 .418-.386 0-.925-.21a2.8 2.8 0 0 0-.995-.208q-.476 0-1.023.209-.547.21-.884.22-.513.021-1.023-.429-.326-.27-.814-.924a6.3 6.3 0 0 1-.86-1.622 5.7 5.7 0 0 1-.362-1.933q0-1.072.488-1.847A2.87 2.87 0 0 1 9.39 7.825q.408 0 1.07.237.663.236.85.236.14 0 .94-.278.758-.259 1.28-.216 1.42.108 2.129 1.063-1.268.73-1.256 2.04a2.2 2.2 0 0 0 .78 1.696q.346.312.778.484a8 8 0 0 1-.199.494m-2.168-8.094q0 .8-.615 1.491c-.494.548-1.092.865-1.74.815a2 2 0 0 1-.012-.202c0-.512.234-1.06.652-1.508q.312-.34.794-.566.48-.223.909-.244.012.108.012.214" fill="#FEFEFE"/></svg>