<svg width="16" height="16" viewBox="0 0 16 16" xmlns="http://www.w3.org/2000/svg"><path d="m8.106 4.346.147.154H13A1.5 1.5 0 0 1 14.5 6v6.133c0 .82-.568 1.367-1.133 1.367H2.633c-.565 0-1.133-.547-1.133-1.367V3.867c0-.82.568-1.367 1.133-1.367h3.489a.5.5 0 0 1 .36.154z" fill="#EBECF0" stroke="#6C707E"/><path fill="#62b543" fill-opacity=".6" d="M0 15h15V8H0z"/><path fill="#231f20" fill-opacity=".8" d="M3.23 9.584H2.038V8.79h3.174v.794h-1.19v3.174h-.794Zm9.046 1.19c.527 0 .873-.092.873-.595s-.351-.595-.873-.595h-.714v1.19ZM10.77 8.79h1.564c.93 0 1.61.51 1.61 1.31 0 1.298-.817 1.468-1.689 1.468h-.692v1.19h-.793zm-4.762 0h.743l1.241 1.587L9.165 8.79h.81v3.968h-.794V10.14l-1.19 1.429-1.19-1.429v2.62h-.794Z" style="stroke-width:.793615"/></svg>