<svg xmlns="http://www.w3.org/2000/svg" viewBox="0 0 16 16" height="16" width="16"><path d="m8.106 4.346.147.154H13A1.5 1.5 0 0 1 14.5 6v6.133c0 .82-.568 1.367-1.133 1.367H2.633c-.565 0-1.133-.547-1.133-1.367V3.867c0-.82.568-1.367 1.133-1.367h3.489a.5.5 0 0 1 .36.154z" fill="#EBECF0" stroke="#6C707E"/><g fill="none"><path fill="#509cd1" d="m12.253 13.876.928-.93 1.975 1.979-.928.93z"/><path fill="#9cc4e8" d="M14.33 14.103c1.973-1.976 2.034-5.119.137-7.019s-5.033-1.838-7.006.138"/><path fill="#9cc4e8" d="M13.44 13.206c-1.716 1.72-4.446 1.773-6.096.12s-1.597-4.387.12-6.107"/><path fill="#509cd1" d="M13.434 13.212c1.473-1.476 1.519-3.822.102-5.241s-3.758-1.373-5.231.103"/><path fill="#509cd1" d="M12.68 12.45c-1.255 1.257-3.252 1.297-4.46.087-1.207-1.209-1.168-3.209.088-4.467"/><path fill="#9cc4e8" d="M12.676 12.454c1.01-1.01 1.04-2.618.07-3.59-.97-.97-2.574-.94-3.582.071"/><path fill="#509cd1" d="M11.762 11.664c.461-.463.476-1.199.032-1.644s-1.179-.43-1.64.033"/><path fill="#9cc4e8" d="M9.165 8.933c-.763.765-.787 1.98-.053 2.716.734.735 1.948.711 2.711-.053"/></g></svg>