<svg width="16" height="16" viewBox="0 0 16 16" fill="none" xmlns="http://www.w3.org/2000/svg"><g clip-path="url(#a)"><path d="M1 4a2 2 0 0 1 2-2h10a2 2 0 0 1 2 2v3.257A5.5 5.5 0 0 0 6 11.5V14H3a2 2 0 0 1-2-2z" fill="#43454A"/><path fill-rule="evenodd" clip-rule="evenodd" d="M12 7.5a.5.5 0 0 0-1 0v.535a3.5 3.5 0 0 0-1.596.662l-.379-.379a.5.5 0 0 0-.707.707l.379.379A3.5 3.5 0 0 0 8.035 11H7.5a.5.5 0 0 0 0 1h.535c.085.593.319 1.138.662 1.596l-.379.379a.5.5 0 1 0 .707.707l.379-.379a3.5 3.5 0 0 0 1.596.662v.535a.5.5 0 0 0 1 0v-.535a3.5 3.5 0 0 0 1.596-.662l.379.379a.5.5 0 0 0 .707-.707l-.379-.379A3.5 3.5 0 0 0 14.965 12h.535a.5.5 0 0 0 0-1h-.535a3.5 3.5 0 0 0-.662-1.596l.379-.379a.5.5 0 0 0-.707-.707l-.379.379A3.5 3.5 0 0 0 12 8.035zm2 4a2.49 2.49 0 0 0-1.121-2.086A2.5 2.5 0 1 0 14 11.5" fill="#24A394"/><path fill-rule="evenodd" clip-rule="evenodd" d="M1 4a2 2 0 0 1 2-2h10a2 2 0 0 1 2 2v3.257a5.5 5.5 0 0 0-1-.657V6h-3v.022a5.5 5.5 0 0 0-1 .185V6H6v8H3a2 2 0 0 1-2-2zm5-1h4v2H6zM5 3H3a1 1 0 0 0-1 1v1h3zM2 6v6a1 1 0 0 0 1 1h2V6zm12-1V4a1 1 0 0 0-1-1h-2v2z" fill="#CED0D6"/></g><defs><clipPath id="a"><path fill="#fff" d="M0 0h16v16H0z"/></clipPath></defs></svg>