<svg height="16" viewBox="0 0 128 128" width="16" xml:space="preserve" xmlns="http://www.w3.org/2000/svg"><path d="M100.143 32.911a51.04 51.04 0 0 0-24.127-13.534v14.277a37.4 37.4 0 0 1 14.417 8.967c6.775 6.787 10.945 16.088 10.948 26.433-.003 10.346-4.173 19.647-10.948 26.433-6.786 6.774-16.088 10.945-26.433 10.949-10.344-.004-19.646-4.175-26.433-10.949-6.775-6.785-10.945-16.087-10.949-26.433.003-10.344 4.173-19.646 10.949-26.433a37.4 37.4 0 0 1 14.417-8.967V19.376A51.04 51.04 0 0 0 27.857 32.91c-9.239 9.229-14.974 22.05-14.971 36.143a50.98 50.98 0 0 0 14.971 36.143c9.229 9.238 22.05 14.974 36.143 14.972 14.093.002 26.915-5.733 36.143-14.972 9.24-9.227 14.975-22.049 14.971-36.143.003-14.092-5.731-26.914-14.971-36.142" style="fill:#afb1b3" fill-opacity=".9"/><path style="fill:#afb1b3" d="M70.865 61.521V7.833H57.134v53.688" fill-opacity=".9"/></svg>