<svg width="16" height="16" xmlns="http://www.w3.org/2000/svg"><path d="M8.01.913a7.184 7.184 0 1 0 7.185 7.184A7.184 7.184 0 0 0 8.01.913m.343 3.763V1.982c.874.216 1.647 1.242 2.13 2.694zm2.326.684a11.3 11.3 0 0 1 .32 2.395H8.352V5.36Zm-3.01-3.378v2.694h-2.13c.482-1.452 1.255-2.478 2.13-2.694m0 3.378v2.395H5.021a11.3 11.3 0 0 1 .32-2.395ZM4.336 7.755H1.863a6.1 6.1 0 0 1 .633-2.395H4.63a12 12 0 0 0-.292 2.395Zm-2.474.684h2.474a12 12 0 0 0 .292 2.394H2.496a6.1 6.1 0 0 1-.633-2.394Zm3.16 0h2.645v2.394H5.342a11.3 11.3 0 0 1-.32-2.394m2.645 3.079v2.693c-.874-.216-1.647-1.242-2.13-2.693Zm.685 2.693v-2.693h2.13c-.483 1.45-1.256 2.477-2.13 2.693m0-3.378V8.44h2.646a11.3 11.3 0 0 1-.32 2.394Zm3.33-2.394h2.475a6.1 6.1 0 0 1-.634 2.394h-2.132a12 12 0 0 0 .292-2.394zm0-.684a12 12 0 0 0-.291-2.395h2.132a6.1 6.1 0 0 1 .634 2.395Zm1.445-3.08h-1.919a6.6 6.6 0 0 0-1.26-2.421 6.2 6.2 0 0 1 3.179 2.422ZM6.07 2.255a6.6 6.6 0 0 0-1.26 2.422H2.893a6.2 6.2 0 0 1 3.178-2.422Zm-3.178 9.264H4.81a6.6 6.6 0 0 0 1.26 2.422 6.2 6.2 0 0 1-3.178-2.422M9.95 13.94a6.6 6.6 0 0 0 1.26-2.422h1.918A6.2 6.2 0 0 1 9.95 13.94" fill="#40b6e0" fill-opacity=".7" style="stroke-width:.342101"/></svg>