<svg xmlns="http://www.w3.org/2000/svg" width="16" height="16" viewBox="0 0 24 24"><path d="M13.158 2.24a.96.96 0 0 0-.82.446 1 1 0 0 0-.11.195l-3.632 8.78H5.092a.96.96 0 0 0-.964.965c0 .534.43.964.964.964h6.882c.534 0 .964-.43.964-.964a.96.96 0 0 0-.965-.965h-1.29l2.461-5.948 6.375 15.406a.96.96 0 0 0 1.26.522.96.96 0 0 0 .522-1.26L14.04 2.837a.96.96 0 0 0-.883-.597zM3.589 15.298a.96.96 0 0 0-.964.964c0 .534.43.965.964.965h2.704l-1.324 3.2a.96.96 0 0 0 .522 1.259.96.96 0 0 0 1.26-.522l1.63-3.938h2.09c.533 0 .964-.43.964-.964a.96.96 0 0 0-.965-.964z" fill="#f44336"/></svg>