<svg xmlns="http://www.w3.org/2000/svg" width="16" height="16" viewBox="0 0 16 16"><path d="M10.458.788Q8.919.915 6.449 1.834q-.678.474-1.547.938l.005.098a.4.4 0 0 0 .153-.054q.102-.008.113.079l.102-.054.05-.005v.05q.007.067-1.082.805l.061.088-.05.005-.113-.04q.005.046-.153.06l.005.054.117.127a.5.5 0 0 1-.158-.034q-.354.03-.694.491l.056.089q.296-.262.347-.266l.01.143a.5.5 0 0 0-.153.059l.123.177a4 4 0 0 1 .786-.634c.142.035.222.076.225.123l.107-.01q1.165-.83 2.308-1.199l.01.099q-.213.305-.29.314a.3.3 0 0 0 .076.182q.018.187-1.037 2.52-2.391 5.423-4.024 8.02.003.052.061.137c.269-.06.439-.125.511-.186l.056-.005.01.098.103-.005.102-.059c.003.03.033.045.102.04l.01.098q.014.142-.168.442-.163.177-.348.746v.05l.103-.01a6 6 0 0 0 .985-1.37c1.267-.357 2.236-.712 2.906-1.057q1.007-.083 1.532-.506l-.005-.054-.25.074-.062.005-.005-.054c.495-.072.836-.174 1.026-.32q1.445-1.069 2.18-1.517c1.011-.713 1.633-1.352 1.931-2.028l.005-.025v-.019l.005-.005.21-1.017c-.018-.11-.358-.508-1.006-1.199q-.017-.2.684-.58l1.323-1.119q.444-.548.53-1.758l-.02-.187q-.077-.85-1.286-1.38-.714-.463-2.57-.501zm2.124 7.79h.005v-.01zm-.526-7.161q1.476.048 1.517.496l-.046.093zm-2.145.795.01.138q.712-.105.884-.118 1.313-.108 1.369.506l.097-.01-.02-.24.107-.006q.385.205.413.497.016.2-.224.496c-.067.005-.102-.045-.108-.138l-.112.01-.02.29q-.667.957-.966.982c-.18.24-.297.36-.342.363q-.207.24-1.139.816-.306.024-2.287.86a.4.4 0 0 0-.21-.035l-.01-.089q-.024-.274.255-.692.154-.784.337-.894l1.103-2.382q-.018-.221.705-.339zm3.493.241q.144-.014.302.452l.01.088q-.078.007-.301-.452zM7.225 3.961l.01.142q-.072.005-.188.207l-.01-.099c.093-.107.143-.187.137-.245zm-3.207.078.006.045a.4.4 0 0 0-.154.059l-.05.004-.01-.093zm2.717.919.02.186-.05.005-.02-.186zm-.127.344q-.016.236-.138.245l-.051.005q.095-.157.086-.24zm-.215.496.005.049-.097.147-.097.01L6.2 5.96q.15-.014.138-.157zm-.225.452-.03.235-.051.005-.02-.236zm5.378.171.224.123q.014.1-.092.108-.136-.087-.22-.083l-.01-.143zm-4.213.546.01.088-.21.02-.01-.094zm3.4.334q.217.098.225.176l.005.045q-.209.018-.388-.207zm1.645.147c.097.038.151.08.163.118l-.046.01v.005l-.025.005-.077.054zm-2.89.05c.648-.056 1.135.068 1.455.358l.015.186c-.238.665-.505 1.056-.791 1.17l-1.328 1.016q-1.483.935-1.598.943c-1.575.832-2.557 1.265-2.937 1.297l-.056.004c.049-.17.747-1.551 2.104-4.145.597-.05 1.542-.313 2.824-.8zm3.074.284.01.04-.128.029-.01-.04zm-4.78.005.005.044-.214.02-.005-.05zm-3.309 3.09q-.1.487-.215.495v-.044q-.028-.242.215-.452zm4.499.2.01.089c.003.044-.146.164-.444.373q-1.321.628-1.553.85-1.43.479-1.42.594-1.271.485-1.674.708a.6.6 0 0 1-.27-.07c-.016-.165.058-.295.224-.402a.94.94 0 0 1 .429.064c.157-.078.428-.168.817-.26l-.005-.099-.317.025q.059-.077.91-.408l.157-.014v.044q-.4.034-.449.235.011.092.112.084.303-.185.297-.216.575-.104 3.176-1.596zm-4.81.448.005.044q.008.097-.092.103v-.044q-.011-.082.086-.103zm2.369.564q.109-.008.112.084c-.123.012-.363.108-.71.3l-.05.004-.006-.098a1.05 1.05 0 0 0 .654-.29m-2.303.762.01.054a.4.4 0 0 0-.153.059l-.102.005c-.006-.05.028-.086.092-.104zm-1.205.58.107.043c-.036.29-.128.436-.276.447a.66.66 0 0 0-.322-.063l-.01-.143q-.01-.084.097-.108c.067-.006.107.045.113.138q.263-.31.29-.315z"/><path fill="#f9dc3e" d="M10.381.606Q8.843.733 6.373 1.652q-.68.474-1.548.939l.005.098q.059-.004.154-.054c.066-.006.106.02.112.078l.102-.054.051-.005v.05q.006.067-1.082.805l.06.088-.05.005-.113-.039q.005.045-.153.059l.005.054.118.128a.5.5 0 0 1-.159-.035q-.354.03-.694.491l.056.089q.296-.26.347-.265l.01.142a.5.5 0 0 0-.153.059l.123.177a4 4 0 0 1 .786-.634c.142.035.222.077.225.123l.107-.01c.779-.554 1.545-.952 2.309-1.198L7 2.84q-.214.305-.291.314a.3.3 0 0 0 .076.182q.018.188-1.036 2.52c-1.596 3.614-2.936 6.291-4.024 8.02q.004.052.06.138.405-.093.512-.187l.056-.005.01.098.102-.005.102-.059c.003.03.033.045.102.04l.01.098q.014.143-.168.442-.163.177-.347.746v.05l.102-.01q.65-.7.985-1.37 1.901-.537 2.906-1.056 1.008-.084 1.532-.506l-.005-.054-.25.073-.061.005-.006-.054c.495-.072.837-.174 1.027-.32q1.443-1.069 2.18-1.517c1.01-.713 1.632-1.352 1.93-2.028l.006-.025v-.019l.005-.005.21-1.017c-.019-.11-.358-.508-1.007-1.198q-.018-.202.685-.58l1.322-1.12q.445-.548.531-1.758l-.02-.187q-.079-.85-1.287-1.38-.715-.464-2.569-.5zm2.125 7.79h.005v-.01zm-.526-7.161q1.476.048 1.516.496l-.046.093zm-2.145.796.01.137q.711-.105.884-.118 1.313-.108 1.368.506l.097-.01-.02-.24.107-.005q.385.204.414.496.017.2-.225.496c-.066.006-.101-.045-.107-.138l-.113.01-.02.29q-.666.957-.965.982-.273.36-.342.364-.209.24-1.14.815-.306.025-2.287.86a.4.4 0 0 0-.21-.035l-.01-.088q-.024-.274.256-.693.152-.784.337-.894l1.103-2.382q-.019-.221.705-.339zm3.493.24q.144-.013.301.452l.01.089q-.078.006-.301-.452zM7.148 3.78l.011.143q-.071.004-.189.206l-.01-.098c.093-.108.144-.188.138-.246zm-3.206.079.005.044a.4.4 0 0 0-.153.059l-.051.005-.01-.094zm2.717.918.02.187-.051.005-.02-.187zm-.128.344q-.016.236-.138.246l-.051.004q.095-.157.087-.24zm-.215.496.006.05-.097.146-.098.01-.005-.044q.15-.013.138-.157zm-.224.452-.03.236-.052.005-.02-.236zm5.377.172.225.123q.012.099-.092.108-.136-.088-.22-.084l-.01-.142zm-4.213.545.01.088-.21.02-.01-.093zm3.401.334q.217.099.225.177l.005.044q-.21.018-.388-.206zm1.644.147q.146.059.164.118l-.046.01V7.4l-.026.005-.076.054zm-2.89.05c.649-.056 1.136.068 1.455.358l.016.187q-.36.997-.792 1.169l-1.327 1.016c-.99.624-1.52.937-1.599.943-1.574.833-2.556 1.265-2.936 1.297l-.056.005c.048-.171.746-1.552 2.104-4.146.597-.049 1.542-.313 2.824-.8zm3.074.284.01.04-.127.029-.01-.04zm-4.78.005.006.044-.215.02-.005-.05zm-3.309 3.09q-.1.487-.214.496v-.045q-.029-.241.214-.451m4.5.2.01.09c.003.043-.146.164-.445.373q-1.32.626-1.552.85-1.431.476-1.42.594-1.271.484-1.675.707c-.063.006-.15-.017-.27-.069-.016-.165.058-.295.224-.403a.94.94 0 0 1 .43.064q.233-.119.816-.26l-.005-.098-.316.024q.058-.077.909-.407l.158-.015v.044c-.269.023-.416.1-.45.236q.01.092.113.083.302-.184.296-.216.575-.104 3.176-1.596zm-4.811.448.005.044q.008.097-.092.103v-.044c-.006-.055.02-.089.087-.103m2.37.565q.108-.009.112.083c-.124.012-.363.108-.71.3l-.051.005-.005-.099a1.05 1.05 0 0 0 .653-.29zm-2.304.76.01.055a.4.4 0 0 0-.153.059l-.102.005c-.006-.05.029-.086.092-.103zm-1.205.58.107.045c-.036.29-.128.435-.275.447a.66.66 0 0 0-.322-.064l-.01-.143q-.01-.084.097-.108c.066-.005.106.045.112.138q.263-.31.291-.315"/></svg>