<svg xmlns="http://www.w3.org/2000/svg" width="16" height="16" viewBox="0 0 16 16"><path fill="#f9dc3e" d="M10.32.672Q8.79.8 6.337 1.724q-.674.477-1.537.944l.005.099a.4.4 0 0 0 .153-.055q.1-.008.111.08l.102-.055.05-.005v.05q.006.067-1.075.81l.06.089-.05.005-.111-.04q.005.045-.153.06l.005.054.117.128a.4.4 0 0 1-.157-.034q-.352.03-.69.494l.056.089q.294-.263.345-.267l.01.143a.5.5 0 0 0-.152.06l.121.177q.35-.367.782-.637c.14.035.22.077.223.124l.106-.01q1.158-.836 2.293-1.206l.01.099q-.211.307-.289.316.009.104.076.183.018.188-1.03 2.535c-1.584 3.636-2.915 6.329-3.997 8.068a.3.3 0 0 0 .061.138c.267-.06.436-.126.508-.187l.055-.006.01.1.102-.006.101-.06c.003.03.033.046.102.04l.01.1q.012.142-.167.444-.162.178-.345.75v.05l.101-.01c.432-.47.754-.929.98-1.378q1.887-.54 2.885-1.062 1.001-.084 1.522-.51l-.005-.054-.249.075-.06.005-.006-.055c.492-.073.831-.175 1.02-.32q1.434-1.078 2.166-1.527c1.004-.718 1.62-1.361 1.917-2.041l.005-.025v-.019l.005-.005.208-1.023c-.018-.111-.355-.511-.999-1.206q-.018-.201.68-.583l1.314-1.126q.44-.552.527-1.769l-.02-.188c-.051-.572-.478-1.032-1.278-1.388q-.71-.466-2.552-.504zm2.11 7.836h.004v-.01l-.005.01zm-.523-7.204q1.466.048 1.506.5l-.045.093zm-2.13.8.01.14q.705-.106.877-.12 1.304-.108 1.36.51l.096-.01-.02-.243.106-.005q.384.207.41.5.018.2-.222.499c-.066.005-.1-.045-.107-.139l-.111.01-.02.292q-.662.962-.96.988-.27.362-.34.365-.205.241-1.13.82-.305.026-2.273.865a.4.4 0 0 0-.208-.034l-.01-.09q-.024-.275.254-.696.152-.788.335-.9L8.919 2.46q-.019-.223.7-.34zm3.469.243q.143-.014.3.454l.01.09q-.079.006-.3-.455zM7.108 3.864l.01.143q-.071.005-.187.207l-.01-.098c.092-.108.143-.189.137-.247zm-3.185.079.005.044a.4.4 0 0 0-.152.06l-.051.004-.01-.093zm2.698.924.02.187-.05.005-.02-.187zm-.126.346q-.016.236-.137.247l-.051.004q.095-.158.086-.242zm-.213.499.005.049-.097.148-.096.01-.005-.044q.15-.014.137-.158zm-.224.454-.03.237-.05.005-.021-.237zm5.342.173.223.124q.013.1-.092.108-.136-.088-.218-.084l-.01-.143zm-4.185.548.01.09-.208.02-.01-.095zm3.378.336q.215.101.223.178l.005.045q-.208.018-.385-.208zm1.633.149c.096.038.15.08.163.118l-.046.01v.005l-.025.005-.076.054zm-2.87.05c.644-.056 1.127.068 1.445.36l.015.187c-.236.669-.501 1.063-.786 1.176l-1.319 1.023q-1.473.941-1.587.949c-1.564.837-2.54 1.272-2.917 1.304l-.056.005q.07-.257 2.09-4.17c.593-.05 1.532-.315 2.805-.805zm3.053.286.01.04-.127.029-.01-.04zm-4.748.005.005.044-.213.02-.005-.05zM4.374 10.82q-.1.49-.213.5v-.045c-.018-.16.052-.315.213-.455m4.47.203.01.089c.002.044-.145.165-.442.375q-1.313.63-1.542.855c-.947.321-1.42.52-1.41.598q-1.263.488-1.664.711c-.063.006-.149-.016-.269-.069-.015-.166.059-.297.223-.405a.9.9 0 0 1 .426.064c.156-.078.426-.168.812-.261l-.005-.1-.315.025q.06-.077.903-.41l.158-.015v.045q-.399.033-.447.237c.006.061.046.09.112.084q.3-.185.294-.217.57-.105 3.155-1.606zm-4.78.45.006.044q.008.097-.091.104v-.045c-.006-.055.02-.089.086-.103zm2.354.568q.109-.009.112.084c-.123.011-.36.108-.705.301l-.05.005-.006-.099q.379-.031.65-.291zm-2.287.766.01.054a.4.4 0 0 0-.152.06l-.102.004c-.006-.05.029-.086.092-.104zm-1.197.583.106.044c-.036.292-.127.438-.274.45a.65.65 0 0 0-.32-.065l-.01-.143c-.005-.055.025-.094.097-.109.066-.005.106.045.112.139q.26-.311.289-.316"/></svg>