<svg width="16" height="16" viewBox="0 0 160 160" xml:space="preserve" style="fill-rule:evenodd;clip-rule:evenodd;stroke-linejoin:round" xmlns="http://www.w3.org/2000/svg"><path d="M79.678 157.644a13.74 13.74 0 0 0 7.14-2.017l50.685-30.799a15.8 15.8 0 0 0 7.338-13.525V50.199a15.82 15.82 0 0 0-7.338-13.525l-50.685-30.8a13.83 13.83 0 0 0-14.267 0L21.866 36.687a15.81 15.81 0 0 0-7.35 13.525v61.092a16.02 16.02 0 0 0 5.358 12.065v.022l52.677 32.25a13.73 13.73 0 0 0 7.127 2.004zm.53-148.065c1.596 0 3.622.992 5.02 1.845l49.69 30.419c3.068 1.868 4.798 7.263 4.798 11.148l-.517 58.312c0 3.885-2.616 7.376-5.685 9.245L84.12 150.3c-2.808 1.708-5.09 1.708-7.899 0l-50.057-29.828c-3.07-1.868-5.538-5.297-5.538-9.17v-60.23a11.9 11.9 0 0 1 5.316-9.746l49.54-29.902c1.4-.853 3.13-1.845 4.726-1.845" style="fill:#f2f1f0;fill-rule:nonzero;stroke-width:.817825"/><path d="M86.138 12.508a12.24 12.24 0 0 0-12.92 0L27.31 40.585a14.38 14.38 0 0 0-6.645 12.324v55.697a14.4 14.4 0 0 0 1.724 7.025 14.4 14.4 0 0 0 4.921 5.3l45.909 28.076a12.24 12.24 0 0 0 12.919 0l45.908-28.077a14.39 14.39 0 0 0 6.645-12.324V52.909a14.41 14.41 0 0 0-6.645-12.324z" style="fill:url(#a);stroke-width:.817825"/><path d="M79.678 11.87c1.377 0 2.916.708 4.607 1.737L132.1 42.674a10.78 10.78 0 0 1 4.956 9.257v57.639a10.78 10.78 0 0 1-4.956 9.256l-47.814 29.067-.001.001a9.26 9.26 0 0 1-4.607 1.59 9.26 9.26 0 0 1-4.606-1.59l-47.813-29.066-.002-.001a10.2 10.2 0 0 1-3.633-3.304c-.8-1.311-1.323-3.123-1.323-5.953V51.931a10.78 10.78 0 0 1 4.956-9.257l47.807-29.063.004-.002c1.704-1.024 3.226-1.74 4.61-1.74zm6.308-1.057 47.813 29.066a14.04 14.04 0 0 1 6.528 12.052v57.639a14.05 14.05 0 0 1-6.528 12.052L85.985 150.69a12.44 12.44 0 0 1-6.307 2.065 12.43 12.43 0 0 1-6.306-2.065h-.001l-47.813-29.07h-.002a13.4 13.4 0 0 1-4.725-4.395 14.3 14.3 0 0 1-1.802-7.656V51.931a14.04 14.04 0 0 1 6.528-12.052l47.815-29.067.006-.005c1.71-1.028 3.924-2.209 6.3-2.209 2.36 0 4.582 1.164 6.307 2.214z" style="fill:#0078d4;stroke-width:.817825"/><defs><linearGradient id="a" x1="0" y1="0" x2="1" y2="0" gradientUnits="userSpaceOnUse" gradientTransform="rotate(90 34.507 45.171)scale(140.18747)"><stop offset="0" style="stop-color:#00abde;stop-opacity:1"/><stop offset="1" style="stop-color:#007ed8;stop-opacity:1"/></linearGradient></defs></svg>