<svg xmlns="http://www.w3.org/2000/svg" width="16" height="16" viewBox="0 0 16 16"><g fill="none" fill-rule="evenodd"><path fill="#F26522" fill-opacity=".7" d="M10.733 5.737c2.19 2.28 3.272 4.774.819 7.228-2.204 2.203-6.815 2.551-8.883 1.42zM1.9 13.742C.56 11.909.653 6.892 3.067 4.479c2.365-2.365 4.742-1.47 6.951.558zm6.102-.743a1 1 0 1 0 0-2 1 1 0 0 0 0 2M6 7a1 1 0 1 0 0-2 1 1 0 0 0 0 2m-3 3a1 1 0 1 0 0-2 1 1 0 0 0 0 2"/><path fill="#9AA7B0" d="M13.037 5a3 3 0 0 1-.283 1.965c-.621-1.05-1.582-2.03-2.629-2.877A11 11 0 0 0 8.558 3 3 3 0 0 1 11 2.718V1h1v2.262c.253.209.471.458.645.738H15v1z"/></g></svg>