<svg width="16" height="16" viewBox="0 0 100 100" fill="none" xmlns="http://www.w3.org/2000/svg"><path fill-rule="evenodd" clip-rule="evenodd" d="M8.265 7.766a3.57 3.57 0 0 0-3.568 3.569v62.982a3.57 3.57 0 0 0 3.568 3.569h38.102c1.278 0 2.165-1.282 1.838-2.518a26 26 0 0 1-.865-6.671c0-14.337 11.622-25.96 25.96-25.96 2.07 0 4.084.242 6.014.7 1.221.29 2.46-.594 2.46-1.849V11.335a3.57 3.57 0 0 0-3.568-3.569z" fill="url(#a)" style="fill:url(#a);stroke-width:.913517"/><path d="m95.022 87.124-.927-.928-2.49-2.49-1.364-1.364c-.648-.648-.708-1.67-.212-2.44a19.43 19.43 0 0 0 3.1-10.55c0-7.866-4.67-14.657-11.382-17.758a19.4 19.4 0 0 0-7.004-1.759 20 20 0 0 0-1.168-.038c-6.007 0-11.387 2.725-14.977 7a19.52 19.52 0 0 0-4.577 12.555c0 .49.024.974.06 1.455.088 1.2.282 2.371.578 3.502.32 1.217.752 2.39 1.288 3.502 3.16 6.559 9.875 11.096 17.628 11.096 3.28 0 6.373-.815 9.09-2.249.753-.397 1.687-.3 2.29.303l1.504 1.504 2.515 2.516 1.096 1.096a3.5 3.5 0 0 0 2.476 1.026 3.502 3.502 0 0 0 2.476-5.979m-21.447-5.221a12.52 12.52 0 0 1-9.26-4.09 12.6 12.6 0 0 1-2.267-3.503 12.4 12.4 0 0 1-.935-3.502 13 13 0 0 1-.087-1.455c0-6.92 5.63-12.55 12.55-12.55q.59.001 1.167.056c1.227.114 2.402.406 3.502.849a12.6 12.6 0 0 1 3.502 2.132c2.678 2.304 4.378 5.713 4.378 9.513 0 6.92-5.63 12.55-12.55 12.55" fill="url(#b)" style="fill:url(#b);stroke-width:.913517"/><path d="M21.02 50.206q-1.596 0-2.43-1.006-.835-1.047-.835-2.497v-.16q0-1.45.835-2.457.834-1.047 2.43-1.047c1.596 0 1.874.35 2.43 1.047q.835 1.007.835 2.456v.161q0 1.45-.835 2.497-.834 1.005-2.43 1.006m-2.975-24.7v-4.681h5.95v4.682l-1.887 13.85h-2.176zm19.298 24.7q-1.596 0-2.43-1.006-.834-1.047-.834-2.497v-.16q0-1.45.834-2.457.834-1.047 2.43-1.047c1.596 0 1.874.35 2.43 1.047q.835 1.007.835 2.456v.161q0 1.45-.835 2.497-.834 1.006-2.43 1.006m-2.974-24.7v-4.681h5.949v4.682l-1.887 13.85h-2.176z" fill="#fff" style="stroke-width:.913517"/><defs><linearGradient id="a" x1="0" y1="73.861" x2="92.884" y2="59.484" gradientUnits="userSpaceOnUse" gradientTransform="translate(4.697 7.766)scale(.91352)"><stop stop-color="#7942EE"/><stop offset="1" stop-color="#FF4651"/></linearGradient><linearGradient id="b" x1="94.725" y1="92.106" x2="108.962" y2="54.038" gradientUnits="userSpaceOnUse" gradientTransform="translate(4.697 7.766)scale(.91352)"><stop stop-color="#7942EE"/><stop offset="1" stop-color="#FF4651"/></linearGradient></defs></svg>