<!--SPDX-License-Identifier: MIT--><svg xmlns="http://www.w3.org/2000/svg" height="16" viewBox="0 0 64 64" width="16"><linearGradient id="a" gradientUnits="userSpaceOnUse" x1="33.138" x2="32.203" y1="4.878" y2="64"><stop offset="0" stop-color="#d9d8dc"/><stop offset="1" stop-color="#fff" stop-opacity=".385"/></linearGradient><linearGradient id="b" gradientTransform="matrix(.1142 0 0 .22712 11.41 0)" gradientUnits="userSpaceOnUse" x1="199.036" x2="140.071" y1="21.413" y2="278.408"><stop offset="0" stop-color="#8d67af" stop-opacity=".672"/><stop offset="1" stop-color="#9f8daf"/></linearGradient><linearGradient id="c" gradientUnits="userSpaceOnUse" x1="36.732" x2="36.732" y1="21.34" y2="62.234"><stop offset="0" stop-color="#26053d" stop-opacity=".762"/><stop offset="1" stop-color="#b7b4b4" stop-opacity=".278"/></linearGradient><linearGradient id="d" gradientTransform="matrix(.18478 0 0 .14038 11.41 0)" gradientUnits="userSpaceOnUse" x1="23.483" x2="112.931" y1="171.718" y2="351.723"><stop offset="0" stop-color="#91739f" stop-opacity=".46"/><stop offset="1" stop-color="#32054f" stop-opacity=".54"/></linearGradient><linearGradient id="e" gradientTransform="matrix(.14184 0 0 .18287 11.41 0)" gradientUnits="userSpaceOnUse" x1="226.781" x2="67.804" y1="317.252" y2="147.413"><stop offset="0" stop-color="#463d49" stop-opacity=".331"/><stop offset="1" stop-color="#340a50" stop-opacity=".821"/></linearGradient><linearGradient id="f" gradientTransform="matrix(.10597 0 0 .24478 11.41 0)" gradientUnits="userSpaceOnUse" x1="248.016" x2="200.705" y1="88.755" y2="255.005"><stop offset="0" stop-color="#715383" stop-opacity=".145"/><stop offset="1" stop-color="#f4f4f4" stop-opacity=".234"/></linearGradient><linearGradient id="g" gradientTransform="matrix(.09173 0 0 .28277 11.41 0)" gradientUnits="userSpaceOnUse" x1="307.564" x2="156.451" y1="109.963" y2="81.527"><stop offset="0" stop-color="#a5a1a8" stop-opacity=".356"/><stop offset="1" stop-color="#370c50" stop-opacity=".582"/></linearGradient><g fill-rule="evenodd"><path d="M34.034.161Q27.06 2.634 20.568 14.592c-6.491 11.959-14.874 28.953-3.33 42.409 5.341 6.225 14.159 9.899 25.731 4.08 9.297-4.674 11.882-18.088 8.544-24.392-6.885-13.003-13.87-16.21-15.74-24.274Q33.903 4.351 34.034.161" fill="url(#a)"/><path d="M34.034 0q-7.01 2.498-13.466 14.431c-6.456 11.934-14.874 28.953-3.33 42.409 5.341 6.225 14.045 8.236 18.875 4.545 3.149-2.407 5.29-4.701 6.524-9.535 1.374-5.382.32-12.629-.403-15.957q-1.371-6.318-.897-13.87l-.249-.304c-2.515-3.077-4.455-5.758-5.315-9.464Q33.903 4.19 34.034 0" fill="url(#b)"/><path d="M30.164 2.094q-6.53 5.16-9.709 17.311c-3.18 12.151-3.525 23.356-2.403 29.873 2.174 12.634 13.446 17.43 25.007 11.549 7.115-3.619 10.079-11.388 9.922-19.82-.163-8.731-17.035-18.626-20.023-25.913Q29.97 7.807 30.164 2.093z" fill="url(#c)"/><path d="M41.199 24.874q7.83 10.042 3.414 13.981c-4.417 3.939-15.217 6.509-21.937 1.744q-6.718-4.765-5.085-20.444a94 94 0 0 0-4.69 11.736q-1.917 5.944-1.119 12.439 2.402 4.86 11.68 6.491c9.278 1.632 18.06.825 23.953-2.145q5.892-2.97 5.574-5.914.213-4.346-2.681-8.276c-2.894-3.93-4.965-5.824-9.109-9.613z" fill="url(#d)"/><path d="M20.799 18.189q-.066 7.252 3.73 13.789c3.795 6.536 8.225 12.995 14.854 18.349q6.629 5.353 10.594 3.459-3.256 5.828-6.925 5.712c-3.669-.116-8.142-1.72-15.31-10.333q-7.167-8.613-9.807-16.295l.888-6.071q.469-3.024 1.976-8.61" fill="url(#e)"/><path d="M32.011 24.824c.406 3.939 1.938 10.24 0 14.435S21.12 51.032 23.592 57.708s8.494 5.177 12.271 2.101 5.8-8.079 6.248-11.598-1.072-10.288-1.567-16.176q-.495-5.888.671-10.097l-1.158-1.457-6.813-2.017q-1.638 2.421-1.233 6.36" fill="url(#f)"/><path d="M34.443 5.315q-3.308 1.398-6.268 5.539c-2.96 4.141-4.468 6.624-3.352 14.833q1.116 8.21 1.598 15.105l9.543-27.727q-.527-2.12-.875-3.828c-.348-1.708-.448-2.447-.645-3.922z" fill="url(#g)"/><path d="M35.946 13.01q-3.635 2.121-5.631 8.691c-1.996 6.57-2.55 10.503-3.655 18.369q2.21-7.505 2.933-10.871c.722-3.367.969-8.127 2.887-11.359q1.917-3.232 3.467-4.829z" fill="#330a4c" fill-opacity=".316"/><path d="M24.729 59.938q5.98.855 6.254 1.519c.274.665-.505 1.273-2.718.864q-2.213-.408-3.536-2.383" fill="#fff"/><path d="M26.732 5.315q-3.29 3.93-5.7 8.332c-2.41 4.402-2.756 5.124-3.446 6.568q-.32 1.615-.313 4.768c.007 3.153.187 4.438.545 7.01q.471-7.554 2.882-14.665c2.411-7.111 3.618-8.745 6.031-12.013z" fill="#ededed" fill-opacity=".603"/></g></svg>