<svg width="16" height="16" viewBox="0 0 16 16" xmlns="http://www.w3.org/2000/svg"><path d="M1.017 7.498V2.007h1.997c1.22 0 2.136.03 2.356.076.642.137 1.054.405 1.85 1.207l.744.75h7.02v8.95H1.016z" fill="#80B8D0" fill-opacity=".7" fill-rule="evenodd"/><path d="M15.691 10.586V9.263h-2.135a1.068 1.323 0 0 0-1.068 1.323v1.323a1.068 1.323 0 0 0 1.068 1.324h1.067v1.323h-2.135v1.323h2.135a1.068 1.323 0 0 0 1.068-1.323v-1.323a1.068 1.323 0 0 0-1.068-1.324h-1.067v-1.323m-2.67 3.97H9.818v-3.97h1.068m0-1.323H9.818a1.068 1.323 0 0 0-1.067 1.323v3.97a1.068 1.323 0 0 0 1.067 1.323h1.068a1.068 1.323 0 0 0 1.068-1.323v-3.97a1.068 1.323 0 0 0-1.068-1.323M7.15 15.879h1.068v-3.97H7.149m0-1.323h1.068V9.263H7.149Z" fill="#0092cf"/></svg>