<svg xmlns="http://www.w3.org/2000/svg" width="16" height="16" viewBox="0 0 16 16"><path d="M1.017 7.498V2.007h1.997c1.22 0 2.136.03 2.356.076.642.137 1.054.405 1.85 1.207l.744.75h7.02v8.95H1.016z" fill="#9AA7B0" fill-opacity=".8" fill-rule="evenodd"/><g fill="none" fill-rule="evenodd"><path fill="#1f58ff" d="M4.504 6.99h11.409v8.923H4.504z"/><g fill="#fff"><path d="M15.1 14.186v.846h-2.667l1.455-3.158q.215-.471.215-.734a.56.56 0 0 0-.065-.302q-.065-.1-.198-.1a.21.21 0 0 0-.198.11q-.065.11-.065.439v.472h-1.045v-.181q0-.417.04-.657a1.2 1.2 0 0 1 .2-.474q.159-.233.413-.352.254-.12.61-.12.695 0 1.052.366.357.367.356.927 0 .427-.2.901-.2.476-1.183 2.017z"/><path fill-rule="nonzero" d="M9.564 12.173h1.297v-1.956h.978v4.819h-.978v-1.792H9.564v1.792h-.978v-4.819h.978z"/></g></g></svg>