<svg width="16" height="16" viewBox="0 0 16 16" xmlns="http://www.w3.org/2000/svg"><path d="M1.017 7.498V2.007h1.997c1.22 0 2.136.03 2.356.076.642.137 1.054.405 1.85 1.207l.744.75h7.02v8.95H1.016z" fill="#BEBDBD" fill-opacity=".7" fill-rule="evenodd"/><path d="M15.761 13.581c-.17.373-.37.716-.604 1.03-.318.43-.578.728-.778.893-.311.271-.644.41-1 .418-.257 0-.566-.069-.925-.21a2.774 2.774 0 0 0-.995-.208c-.317 0-.658.07-1.023.209-.365.14-.659.213-.884.22-.342.014-.683-.129-1.023-.429-.217-.18-.489-.487-.814-.924a6.272 6.272 0 0 1-.86-1.622 5.666 5.666 0 0 1-.362-1.933c0-.715.162-1.33.488-1.847A2.867 2.867 0 0 1 9.39 7.825c.272 0 .628.08 1.07.237.442.157.725.236.85.236.092 0 .407-.093.94-.278.506-.173.931-.244 1.28-.216.946.072 1.656.426 2.129 1.063-.846.486-1.264 1.167-1.256 2.04a2.2 2.2 0 0 0 .78 1.696c.231.208.49.37.778.484a7.761 7.761 0 0 1-.199.494m-2.168-8.094c0 .533-.206 1.03-.615 1.491-.494.548-1.092.865-1.74.815a1.568 1.568 0 0 1-.012-.202c0-.512.234-1.06.652-1.508.208-.227.473-.415.794-.566.32-.148.624-.23.909-.244.008.072.012.143.012.214" fill="#FEFEFE"/></svg>