<svg width="16" height="16" viewBox="0 0 16 16" xmlns="http://www.w3.org/2000/svg"><path d="M1.017 7.498V2.007h1.997c1.22 0 2.136.03 2.356.076.642.137 1.054.405 1.85 1.207l.744.75h7.02v8.95H1.016z" fill="#8CE6B4" fill-opacity=".7" fill-rule="evenodd"/><path d="M8.68 10.663a5.21 5.642 0 0 1 1.944-.405c.685 0 1.34.144 1.94.403l1.22-2.288.755.471-1.195 2.24a5.221 5.653 0 0 1 2.504 4.832H5.398a5.221 5.653 0 0 1 2.503-4.83L6.705 8.844l.754-.471Zm-.669 2.424v.943h.871v-.943zm4.354 0v.943h.871v-.943z" fill="#E4F7ED" fill-rule="evenodd"/></svg>