<svg width="16" height="16" viewBox="0 0 32 32" fill="none" aria-labelledby="tanukiHomeDesktop" xmlns="http://www.w3.org/2000/svg"><path d="m29.433 13.202-.04-.1-3.779-9.86a1 1 0 0 0-.388-.47 1.01 1.01 0 0 0-1.167.061 1 1 0 0 0-.335.51l-2.554 7.82H10.832L8.277 3.344a.99.99 0 0 0-.908-.73 1 1 0 0 0-.982.626l-3.784 9.876-.039.098a7.03 7.03 0 0 0 2.328 8.114l.014.01.033.026 5.764 4.315 2.85 2.158 1.732 1.312a1.17 1.17 0 0 0 1.414 0l1.732-1.312 2.851-2.158 5.797-4.34.016-.012a7.026 7.026 0 0 0 2.337-8.124z" fill="#e24329" style="stroke-width:.868746"/><path d="m29.433 13.202-.04-.1a12.8 12.8 0 0 0-5.087 2.288l-8.299 6.29 5.292 3.998 5.798-4.341.016-.012a7.03 7.03 0 0 0 2.32-8.124z" fill="#fc6d26" style="stroke-width:.868746"/><path d="m10.708 25.678 2.845 2.159 1.732 1.311a1.17 1.17 0 0 0 1.414 0l1.732-1.311 2.851-2.158s-2.463-1.86-5.292-4z" fill="#fca326" style="stroke-width:.868746"/><path d="M7.69 15.396a12.8 12.8 0 0 0-5.086-2.287l-.04.098a7.03 7.03 0 0 0 2.33 8.12l.013.01.033.027 5.764 4.315 5.304-4-8.317-6.283z" fill="#fc6d26" style="stroke-width:.868746"/></svg>