<svg width="16" height="16" viewBox="0 0 400 400" xmlns="http://www.w3.org/2000/svg"><g fill-rule="evenodd"><path d="M181.525 29.952c-1.639.074-2.98.28-2.98.461 0 .18-1.072.326-2.384.326-1.362 0-2.383.147-2.383.342 0 .189-.909.34-2.044.34s-2.043.152-2.043.34c0 .187-.843.34-1.873.34s-1.873.155-1.873.342c0 .186-.613.34-1.362.34s-1.362.153-1.362.34-.766.341-1.703.341-1.703.153-1.703.34-.613.342-1.362.342-1.362.153-1.362.34-.527.34-1.171.34c-.645 0-1.268.154-1.383.341-.116.187-.662.34-1.212.34-.552 0-1.002.154-1.002.341s-.537.34-1.192.34-1.192.154-1.192.34c0 .188-.365.342-.812.342-.758 0-3.6.753-5.147 1.364-.375.15-1.218.454-1.873.679-1.442.496-2.69.997-3.487 1.402-.325.165-.9.3-1.277.3s-.685.154-.685.342c0 .186-.307.34-.68.34-.375 0-.682.154-.682.34s-.383.341-.852.341-.85.153-.85.34-.384.341-.853.341c-.467 0-.85.153-.85.34s-.308.342-.682.342-.681.152-.681.34c0 .187-.307.34-.68.34-.376 0-.683.154-.683.341 0 .186-.372.34-.83.34s-.926.154-1.042.341-.509.34-.872.34c-.364 0-.662.115-.662.256 0 .14-.843.638-1.871 1.107-1.03.468-1.872.966-1.874 1.106 0 .141-.307.256-.68.256-.376 0-.681.153-.681.34s-.308.34-.682.34-.68.155-.68.342c0 .186-.202.34-.448.34-.245 0-.775.307-1.177.68-.403.376-.896.683-1.098.683-.538 0-3.9 1.739-4.032 2.086a.51.51 0 0 1-.45.297c-.184 0-1.005.46-1.821 1.022s-1.593 1.022-1.724 1.022c-.132 0-.487.269-.79.598s-.972.814-1.487 1.08c-.515.264-.937.608-.937.763s-.272.283-.605.283c-.334 0-.828.306-1.097.68-.27.376-.703.682-.96.682-.258 0-.899.46-1.424 1.022-.526.562-1.165 1.021-1.423 1.021-.259 0-.691.308-.96.681-.27.375-.704.68-.961.68-.258 0-.899.461-1.424 1.023s-1.052 1.022-1.173 1.022c-.23 0-.57.267-2.276 1.788-.577.515-1.184.937-1.347.937s-1.14.842-2.17 1.873c-1.03 1.03-2.022 1.872-2.204 1.872s-1.985 1.678-4.008 3.728c-4.459 4.518-3.777 3.836-8.295 8.295-2.05 2.022-3.728 3.826-3.728 4.007 0 .183-.842 1.174-1.873 2.204-1.03 1.03-1.873 2.007-1.873 2.17 0 .164-.46.79-1.022 1.391-.56.602-1.021 1.244-1.021 1.426s-.612.92-1.362 1.64-1.362 1.517-1.362 1.77c0 .255-.307.684-.68.954-.376.27-.683.703-.683.96 0 .258-.46.898-1.021 1.424-.562.524-1.022 1.165-1.022 1.423s-.306.69-.68.96c-.376.27-.682.73-.682 1.022s-.307.752-.68 1.022c-.375.27-.682.73-.682 1.021 0 .293-.307.752-.681 1.022s-.681.62-.681.78c0 .159-.46.958-1.022 1.774s-1.021 1.637-1.021 1.821a.51.51 0 0 1-.299.45c-.346.132-2.085 3.494-2.085 4.032 0 .201-.308.695-.682 1.097-.374.403-.68.932-.68 1.178s-.154.447-.341.447-.341.306-.341.68-.153.682-.34.682-.341.307-.341.68c0 .376-.115.683-.256.683-.14 0-.638.844-1.106 1.872s-.966 1.871-1.107 1.873c-.14 0-.256.226-.256.5 0 .275-.306 1.047-.68 1.713-.375.668-.681 1.515-.681 1.884s-.154.671-.341.671-.34.307-.34.68c0 .376-.154.682-.342.682-.186 0-.34.307-.34.68 0 .376-.153.682-.34.682s-.341.46-.341 1.022-.153 1.021-.34 1.021-.341.308-.341.681c0 .375-.153.682-.34.682s-.34.307-.34.686a3.4 3.4 0 0 1-.302 1.276 28 28 0 0 0-.721 1.613 28 28 0 0 1-.72 1.614c-.166.325-.301.825-.301 1.11 0 .287-.14.786-.31 1.112-.508.973-1.393 4.186-1.393 5.058 0 .448-.153.812-.34.812s-.341.537-.341 1.192-.153 1.192-.34 1.192-.342.45-.342 1.001-.152 1.097-.34 1.213c-.186.115-.34.738-.34 1.383 0 .644-.154 1.171-.341 1.171-.186 0-.34.612-.34 1.362 0 .749-.154 1.362-.341 1.362s-.34.766-.34 1.703-.153 1.703-.34 1.703-.342.613-.342 1.361c0 .75-.153 1.363-.34 1.363s-.341.766-.341 1.703c0 .936-.153 1.702-.34 1.702-.192 0-.34.965-.34 2.214s-.15 2.213-.342 2.213-.34 1.013-.34 2.356c0 1.582-.14 2.402-.426 2.498-.623.207-.623 42.53 0 42.738.287.095.426.916.426 2.498 0 1.343.147 2.355.34 2.355.19 0 .342.909.342 2.044 0 1.134.15 2.043.34 2.043.186 0 .34.68.34 1.511 0 .833.154 1.608.341 1.724.186.116.34.891.34 1.723s.154 1.512.341 1.512.34.68.34 1.512.153 1.608.34 1.724.342.728.342 1.36c0 .635.153 1.248.34 1.363.187.117.341.662.341 1.213 0 .55.153 1.002.34 1.002s.34.612.34 1.361c0 .75.154 1.363.341 1.363s.34.382.34.85c0 .47.154.853.342.853.186 0 .34.525.34 1.167 0 1.259 1.677 6.76 2.117 6.948.147.064.267.561.267 1.107 0 .547.153.994.34.994s.341.302.341.67.307 1.217.68 1.883c.375.668.682 1.516.682 1.884 0 .37.154.671.34.671s.341.307.341.68c0 .376.154.683.341.683s.34.459.34 1.021.153 1.021.34 1.021.342.308.342.682.152.68.34.68c.187 0 .34.308.34.682s.154.68.341.68.34.308.34.682.154.681.341.681.34.383.34.852.154.85.342.85c.186 0 .34.307.34.681 0 .376.153.682.34.682s.341.307.341.68c0 .375.153.682.34.682s.341.308.341.681c0 .375.153.682.34.682s.34.272.34.605c0 .334.308.827.682 1.097s.681.764.681 1.097c0 .334.154.606.341.606s.34.307.34.68c0 .376.153.683.34.683s.342.205.342.458c0 .477.988 2.65 1.34 2.947.11.093.568.898 1.016 1.787.449.89.907 1.618 1.02 1.618.111 0 .394.431.627.958s.73 1.287 1.105 1.688c.374.402.68.933.68 1.181s.308.671.681.941c.375.27.682.73.682 1.022s.307.751.681 1.021.68.703.68.96c0 .258.46.899 1.023 1.424s1.021 1.13 1.021 1.344.383.773.852 1.24c.468.47.85.993.85 1.166s.538.85 1.194 1.506c.655.655 1.19 1.35 1.19 1.544s.18.351.399.351c.218 0 .3.097.182.216-.119.118.239.64.795 1.158.554.518 1.009 1.096 1.009 1.283s.766 1.122 1.703 2.079c.936.956 1.702 1.883 1.702 2.06 0 .176 1.678 1.976 3.728 4 4.518 4.458 3.836 3.775 8.295 8.294 2.022 2.05 3.823 3.728 4 3.728.176 0 1.103.766 2.06 1.702.956.937 1.882 1.703 2.055 1.703.176 0 .855.536 1.51 1.192.656.655 1.355 1.192 1.555 1.192s.792.46 1.317 1.022 1.123 1.021 1.329 1.021.373.153.373.34.196.341.436.341.657.307.927.68c.27.376.69.682.93.682s.919.46 1.508 1.022c.587.562 1.241 1.022 1.454 1.022.211 0 .605.306.876.68.27.376.73.681 1.021.681.292 0 .752.308 1.022.682s.693.68.94.68c.249 0 .78.307 1.182.681.4.376 1.161.873 1.688 1.106s.958.521.958.642c0 .118.804.62 1.787 1.112s2.248 1.19 2.81 1.548 1.29.663 1.618.677c.327.013.596.177.596.364 0 .188.306.342.68.342s.681.152.681.34c0 .187.308.34.682.34s.68.154.68.341.308.34.682.34.682.116.684.256c.003.305 1.652 1.107 2.279 1.107.449 0 .503-8.079.442-65.13-.013-13.13.077-16.943.4-16.943.228 0 1.726.675 3.328 1.5 7.539 3.88 18.872 7.843 27.773 9.712 8.304 1.744 9.752 1.98 18.9 3.084 29.258 3.528 52.843-7.344 59.084-27.236 7.802-24.873-1.779-47.023-23.495-54.32-4.298-1.445-5.484-1.716-12.6-2.867-8.866-1.435-19.796-1.22-32.864.648l-4.768.682c-3.322.475-5.541.866-9.69 1.706-4.657.941-4.87.913-8.018-1.018-1.526-.937-2.829-1.703-2.895-1.703s-1.37-.767-2.895-1.702c-1.525-.937-2.83-1.703-2.9-1.703s-1.15-.643-2.404-1.429l-2.28-1.429.234-2.743c.128-1.508.375-4.582.55-6.83.476-6.126.997-12.783 1.364-17.453.181-2.294.475-6.048.653-8.343a6553 6553 0 0 1 1.378-17.453c.196-2.435.503-6.343.68-8.684.18-2.342.476-6.172.661-8.515 1.597-20.205 2.802-35.785 2.976-38.48.115-1.78.336-3.582.492-4.004l.283-.768 60.115.086 60.115.088v-20.45c0-15.331.1-20.552.404-20.855.313-.312.157-.454-.68-.622-.597-.119-1.086-.351-1.086-.514s-.46-.298-1.022-.298-1.022-.153-1.022-.34-.45-.342-1.001-.342-1.088-.139-1.193-.308c-.104-.17-.956-.414-1.892-.543-.937-.128-1.788-.372-1.893-.542s-.633-.31-1.172-.31c-.54 0-1.077-.152-1.192-.34-.116-.187-.662-.34-1.212-.34-.551 0-1.002-.153-1.002-.34s-.613-.342-1.362-.342-1.362-.153-1.362-.34c0-.186-.613-.34-1.362-.34s-1.363-.154-1.363-.341-.612-.34-1.361-.34c-.75 0-1.363-.154-1.363-.342 0-.186-.68-.34-1.512-.34s-1.607-.153-1.724-.34c-.115-.187-.89-.341-1.722-.341s-1.513-.153-1.513-.34c0-.19-.9-.341-2.022-.341-1.113 0-2.118-.153-2.234-.34s-1.244-.34-2.507-.34c-1.356 0-2.465-.171-2.712-.418-.411-.411-31.132-.707-38.627-.371" fill="#dd6334"/><path d="M137.72 81.907c-.155.42-.376 2.222-.491 4.001-.174 2.697-1.38 18.278-2.976 38.482a3523 3523 0 0 0-.66 8.515 2182 2182 0 0 1-.681 8.684 6040 6040 0 0 0-1.377 17.453l-.653 8.343c-.369 4.67-.889 11.327-1.365 17.453-.175 2.248-.422 5.322-.55 6.83l-.233 2.743 2.28 1.43c1.252.785 2.334 1.428 2.404 1.428.068 0 1.374.766 2.898 1.703 1.527.935 2.83 1.702 2.896 1.702s1.37.766 2.895 1.703c3.147 1.931 3.361 1.959 8.018 1.017 4.149-.839 6.368-1.23 9.69-1.706l4.768-.681c13.068-1.868 23.998-2.084 32.862-.648 7.118 1.152 8.304 1.422 12.6 2.866 18.364 6.172 27.153 20.505 25.704 41.921-1.795 26.507-19.183 39.985-51.585 39.985-3.746 0-8.113-.158-9.706-.349-9.148-1.103-10.596-1.34-18.9-3.084-8.901-1.869-20.234-5.831-27.773-9.712-1.602-.825-3.096-1.5-3.32-1.5-.31 0-.408 3.973-.408 16.712v16.712l4.513 2.137c7.018 3.324 12.74 5.16 22.816 7.318 14.275 3.06 38.012 3.828 53.211 1.724 5.62-.78 9.566-1.543 13.452-2.603 1.03-.282 2.333-.634 2.894-.786 16.617-4.466 31.117-14.59 40.819-28.501 9.99-14.328 14.775-37.864 11.79-58.006-.386-2.604-.568-3.512-1.534-7.602-5.27-22.352-23.16-39.91-46.817-45.95-10.327-2.638-14.614-3.123-27.585-3.123-10.053 0-13.786.227-19.497 1.18l-3.916.654c-9.01 1.506-8.781 1.51-8.714-.157.07-1.754.727-9.35 1.828-21.115.192-2.06.5-5.393.68-7.406.345-3.81.778-8.574 1.347-14.814.182-2.013.489-5.475.68-7.693.19-2.218.432-4.172.537-4.342.114-.183 17.872-.312 43.507-.315 23.823-.003 43.507-.128 43.743-.278.338-.214.41-3.762.341-16.597l-.088-16.323-60.03-.087-60.03-.085-.283.767" fill="#fbfbfa"/><path d="M258.46 40.162c-.124.125-.226 16.812-.226 37.083 0 33.295-.052 36.877-.54 37.063-.296.114-19.978.207-43.74.207-25.573 0-43.28.126-43.392.31-.106.17-.348 2.125-.539 4.343-.19 2.217-.497 5.678-.68 7.692-.562 6.177-.998 10.985-1.345 14.814-.183 2.013-.49 5.347-.681 7.406-1.118 11.964-1.758 19.357-1.828 21.115-.067 1.666-.295 1.663 8.714.157l3.917-.655c5.71-.952 9.443-1.178 19.497-1.178 38.077-.002 63.875 15.786 73.23 44.816.566 1.753 1.192 4.212 2.023 7.942 2.772 12.44 1.53 31.944-2.882 45.293-6.399 19.358-22.462 35.75-41.893 42.75-2.819 1.017-5.93 2.051-7.152 2.38-.56.151-1.864.504-2.894.786-15.096 4.121-37.99 5-58.234 2.237-5.17-.706-6.983-1.026-11.408-2.009-7.394-1.643-13.542-3.693-19.538-6.518-2.316-1.091-4.347-1.901-4.512-1.799-.167.103-.3 10.717-.3 24.174 0 15.764-.116 23.989-.34 23.989a.34.34 0 0 0-.341.34c0 .186.308.34.681.34.375 0 .682.153.682.34s.383.341.851.341.851.153.851.34.307.342.68.342c.376 0 .683.152.683.34 0 .186.306.34.68.34s.681.154.681.341c0 .186.308.34.682.34s.681.154.681.341.307.34.68.34c.376 0 .683.153.683.34s.459.342 1.021.342 1.021.153 1.021.34.307.341.68.341c.376 0 .683.153.683.34s.373.34.83.34.927.154 1.042.341c.117.187.51.34.873.34s.66.154.66.342c0 .186.382.34.851.34s.852.153.852.34.46.341 1.022.341 1.021.153 1.021.34.358.341.795.341.9.105 1.028.233c.438.438 2.772 1.126 4.563 1.344.983.121 1.787.352 1.787.513s.374.294.832.294c.456 0 .925.153 1.042.34.115.187.738.34 1.382.34.645 0 1.171.154 1.171.342 0 .186.613.34 1.363.34s1.362.154 1.362.341c0 .186.45.34 1.001.34s1.096.153 1.212.34.892.342 1.724.342c.831 0 1.512.152 1.512.34 0 .187.69.34 1.532.34s1.533.154 1.533.341.766.34 1.703.34c.936 0 1.702.154 1.702.341 0 .19.908.34 2.043.34s2.044.152 2.044.342c0 .193 1.012.34 2.355.34 1.582 0 2.402.14 2.498.426.112.334 4.69.425 21.369.425 16.68 0 21.258-.09 21.37-.425.095-.287.915-.426 2.497-.426 1.343 0 2.355-.147 2.355-.34 0-.19.909-.342 2.044-.342 1.134 0 2.043-.15 2.043-.34 0-.187.843-.34 1.873-.34s1.873-.154 1.873-.341.612-.34 1.362-.34 1.362-.154 1.362-.341.766-.34 1.703-.34 1.703-.154 1.703-.342c0-.186.613-.34 1.362-.34s1.362-.153 1.362-.34.527-.341 1.171-.341c.645 0 1.268-.153 1.383-.34.116-.188.662-.341 1.212-.341.552 0 1.002-.153 1.002-.34s.536-.34 1.192-.34 1.192-.154 1.192-.342c0-.186.365-.34.812-.34.872 0 4.085-.885 5.057-1.394.327-.17.826-.309 1.112-.309s.786-.136 1.111-.3a28 28 0 0 1 1.612-.722 28 28 0 0 0 1.615-.72c.325-.166.9-.301 1.276-.301.378 0 .686-.153.686-.34s.307-.342.68-.342c.375 0 .682-.153.682-.34s.46-.34 1.021-.34c.562 0 1.023-.154 1.023-.341s.306-.34.68-.34.681-.154.681-.341.308-.34.682-.34.681-.153.681-.34.307-.342.68-.342c.376 0 .683-.153.683-.34s.372-.341.83-.341.926-.153 1.042-.34.509-.34.872-.34c.364 0 .662-.116.662-.257 0-.14.843-.638 1.871-1.106 1.03-.469 1.872-.966 1.874-1.107 0-.14.306-.256.68-.256s.681-.152.681-.34c0-.187.308-.34.682-.34s.68-.154.68-.341c0-.186.202-.34.448-.34.245 0 .775-.308 1.177-.681.403-.375.909-.682 1.125-.682.496 0 3.852-1.784 4.005-2.128.063-.14.264-.256.45-.256.184 0 1.005-.46 1.82-1.021.817-.562 1.616-1.022 1.774-1.022.16 0 .511-.307.78-.68.27-.376.73-.681 1.022-.681s.752-.308 1.022-.682.73-.68 1.022-.68c.291 0 .752-.308 1.021-.682.27-.375.73-.681 1.022-.681s.752-.307 1.022-.682c.27-.374.687-.68.925-.68.24 0 .437-.154.437-.341s.195-.341.436-.341c.24 0 .656-.306.926-.68s.702-.682.96-.682.899-.46 1.424-1.021c.525-.562 1.052-1.023 1.173-1.023.23 0 .57-.266 2.275-1.787.578-.515 1.185-.937 1.348-.937s1.14-.842 2.17-1.873c1.03-1.03 2.022-1.873 2.204-1.873s1.985-1.677 4.008-3.728c4.459-4.518 3.776-3.835 8.295-8.295 2.05-2.022 3.728-3.825 3.728-4.007s.842-1.173 1.873-2.203c1.03-1.031 1.873-2.007 1.873-2.17 0-.164.44-.791.979-1.395 1.494-1.671 1.745-1.993 1.745-2.23 0-.12.46-.647 1.022-1.172s1.021-1.166 1.021-1.424.307-.69.68-.96c.376-.27.683-.702.683-.96 0-.259.46-.9 1.021-1.424.562-.525 1.022-1.165 1.022-1.424 0-.257.306-.69.68-.96.376-.27.682-.73.682-1.021 0-.293.307-.752.68-1.022.375-.27.682-.73.682-1.022s.307-.751.681-1.021.68-.621.68-.78.46-.958 1.023-1.774 1.021-1.65 1.021-1.85.154-.363.341-.363.34-.308.34-.682.124-.681.275-.681c.26 0 1.428-2.336 1.428-2.853 0-.132.308-.57.682-.972.374-.4.68-.932.68-1.177 0-.246.154-.447.341-.447s.341-.307.341-.68c0-.376.153-.682.34-.682s.34-.294.34-.653.118-.704.26-.766.923-1.493 1.738-3.178a292 292 0 0 1 1.783-3.657c.168-.326.306-.823.306-1.108 0-.283.154-.514.341-.514s.34-.307.34-.681.154-.68.341-.68.34-.299.34-.662.153-.755.34-.872c.188-.115.342-.585.342-1.042 0-.456.153-.831.34-.831s.341-.307.341-.68c0-.376.153-.683.34-.683s.34-.307.34-.685c0-.377.137-.951.302-1.276.165-.327.49-1.052.72-1.614.231-.562.555-1.288.721-1.613.166-.326.301-.826.301-1.112 0-.285.14-.785.309-1.11.509-.973 1.394-4.186 1.394-5.058 0-.448.153-.812.34-.812s.341-.537.341-1.193c0-.655.153-1.191.34-1.191s.342-.45.342-1.002c0-.55.152-1.096.34-1.212.186-.116.34-.738.34-1.383 0-.644.154-1.171.341-1.171.186 0 .34-.613.34-1.363 0-.748.154-1.361.341-1.361s.34-.604.34-1.342.153-1.437.34-1.553.342-.892.342-1.724c0-.831.153-1.512.34-1.512s.341-.756.341-1.682.153-1.777.34-1.893.34-1.12.34-2.234c0-1.12.152-2.022.341-2.022.194 0 .34-1.013.34-2.357 0-1.58.14-2.402.427-2.497.622-.208.622-41.912 0-42.535-.258-.256-.426-1.342-.426-2.74 0-1.318-.148-2.317-.34-2.317-.188 0-.342-.833-.342-1.852s-.152-1.948-.34-2.064c-.187-.116-.34-.967-.34-1.893 0-.925-.154-1.682-.341-1.682-.186 0-.34-.69-.34-1.533s-.154-1.532-.341-1.532-.34-.614-.34-1.363c0-.75-.153-1.361-.34-1.361s-.342-.614-.342-1.363c0-.75-.153-1.363-.34-1.363s-.341-.612-.341-1.361c0-.75-.153-1.363-.34-1.363s-.34-.526-.34-1.171c0-.644-.154-1.268-.341-1.382-.187-.117-.34-.586-.34-1.043s-.137-.83-.303-.83-.405-.841-.534-1.868c-.128-1.027-.375-1.956-.55-2.064s-.316-.646-.316-1.197-.154-1.002-.341-1.002-.34-.46-.34-1.022-.154-1.021-.342-1.021c-.186 0-.34-.374-.34-.831s-.153-.926-.34-1.042-.341-.585-.341-1.042-.153-.83-.34-.83-.341-.299-.341-.662-.153-.755-.34-.872c-.188-.115-.34-.584-.34-1.042 0-.456-.155-.831-.342-.831-.186 0-.34-.306-.34-.68s-.154-.682-.341-.682-.34-.373-.34-.83c0-.458-.153-.927-.34-1.043s-.342-.508-.342-.871c0-.364-.152-.662-.34-.662-.187 0-.34-.306-.34-.68s-.154-.68-.341-.68-.34-.308-.34-.683c0-.374-.154-.68-.341-.68s-.34-.308-.34-.681c0-.375-.154-.682-.342-.682-.186 0-.34-.306-.34-.68 0-.376-.154-.682-.34-.682s-.341-.307-.341-.68c0-.375-.124-.682-.277-.682-.152 0-.487-.537-.745-1.193-.257-.655-.592-1.19-.744-1.19s-.277-.308-.277-.682-.154-.68-.341-.68c-.186 0-.34-.308-.34-.683 0-.374-.154-.68-.341-.68s-.34-.308-.34-.681c0-.375-.153-.682-.34-.682s-.342-.275-.342-.613-.134-.758-.298-.936c-.164-.177-.683-1.026-1.152-1.883-1.368-2.497-1.773-3.197-1.956-3.378-.093-.094-.387-.592-.652-1.108-.266-.514-.61-.936-.767-.936-.155 0-.283-.23-.283-.51 0-.281-.134-.512-.298-.512-.166 0-.491-.46-.723-1.021-.233-.562-.558-1.022-.724-1.022-.164 0-.298-.206-.298-.46 0-.252-.46-.941-1.022-1.53-.561-.587-1.022-1.267-1.022-1.507 0-.242-.306-.66-.68-.93-.376-.27-.681-.702-.681-.96s-.46-.899-1.023-1.423c-.562-.526-1.021-1.1-1.021-1.279 0-.177-.46-.804-1.021-1.392-.562-.588-1.022-1.186-1.022-1.328s-.613-.93-1.362-1.75c-.75-.818-1.363-1.62-1.363-1.78 0-.158-.806-1.098-1.792-2.085-.984-.988-2.17-2.331-2.632-2.988-.462-.655-2.069-2.383-3.571-3.84-3.296-3.196-2.677-2.577-5.872-5.87-1.457-1.503-3.185-3.107-3.841-3.566s-1.728-1.38-2.384-2.048c-.656-.667-1.728-1.59-2.383-2.051a26 26 0 0 1-2.37-1.948c-.648-.61-1.301-1.11-1.45-1.11s-.755-.459-1.343-1.02c-.588-.563-1.2-1.022-1.362-1.022-.16 0-.774-.46-1.362-1.022-.589-.561-1.242-1.022-1.454-1.022s-.606-.306-.876-.68c-.27-.376-.73-.681-1.022-.681s-.751-.308-1.022-.682c-.27-.374-.73-.681-1.021-.681-.293 0-.752-.307-1.022-.68-.27-.376-.73-.683-1.022-.683-.291 0-.75-.306-1.021-.68s-.658-.681-.862-.681c-.205 0-.669-.277-1.033-.615-.362-.339-1.157-.835-1.766-1.106-.609-.268-1.107-.567-1.107-.661 0-.096-1.188-.787-2.64-1.535-1.45-.749-2.69-1.476-2.752-1.617-.063-.14-.408-.256-.766-.256-.36 0-.652-.153-.652-.34s-.308-.34-.682-.34-.68-.154-.68-.341-.308-.341-.682-.341-.681-.124-.681-.277c0-.152-.537-.487-1.192-.745-.655-.257-1.192-.592-1.192-.744s-.307-.277-.68-.277c-.376 0-.683-.154-.683-.341 0-.186-.305-.34-.68-.34s-.681-.154-.681-.341-.307-.34-.682-.34c-.374 0-.68-.153-.68-.34s-.307-.342-.682-.342-.68-.153-.68-.34-.46-.341-1.023-.341-1.021-.153-1.021-.34-.307-.34-.68-.34c-.376 0-.682-.154-.682-.342 0-.186-.307-.34-.681-.34s-.681-.153-.681-.34-.46-.34-1.022-.34-1.022-.154-1.022-.341-.306-.341-.68-.341-.682-.153-.682-.34-.374-.341-.831-.341-.927-.153-1.042-.34c-.236-.38-1.976-.467-2.327-.114" fill="#24a464"/></g></svg>