<svg width="16" height="16" viewBox="0 0 16 16" fill="none" xmlns="http://www.w3.org/2000/svg"><g clip-path="url(#a)"><path fill-rule="evenodd" clip-rule="evenodd" d="M13.436 6.703a8.2 8.2 0 0 0 .21-1.896L8.691 3.668a8.215 8.215 0 0 1-9.009 7.063 8.2 8.2 0 0 0 3.91 2.139 8.2 8.2 0 0 0 3.491.042 5 5 0 0 1 6.23-5.738q.069-.232.123-.47z" fill="#E05555"/><path d="m8 4 6.417 2.071L10.88-.057l-.875.505.135 2.257z" fill="#62B543"/><path fill-rule="evenodd" clip-rule="evenodd" d="m15.814 13.232-.91-.653a3 3 0 0 0 0-1.158l.91-.653a4 4 0 0 0-.835-1.445l-1.02.46a3 3 0 0 0-1.006-.582l-.111-1.114a4 4 0 0 0-1.67 0l-.111 1.114a3 3 0 0 0-1.006.582l-1.02-.46c-.373.413-.66.904-.835 1.445l.91.653a3 3 0 0 0 0 1.158l-.91.653c.175.541.462 1.032.835 1.445l1.02-.46c.29.256.631.455 1.006.582l.11 1.114a4 4 0 0 0 1.67 0l.112-1.114a3 3 0 0 0 1.006-.582l1.02.46c.372-.413.66-.904.835-1.445M13.422 12a1.415 1.415 0 1 1-2.83 0 1.415 1.415 0 0 1 2.83 0" fill="#9AA7B0" fill-opacity=".8"/></g><defs><clipPath id="a"><path fill="#fff" d="M0 0h16v16H0z"/></clipPath></defs></svg>