<!--Created with Inkscape (http://www.inkscape.org/)--><svg version="1.2" width="16" height="16" xmlns="http://www.w3.org/2000/svg"><path d="M73.5 106.875c-42.677 7.737-72.156 24.253-72.156 43.406 0 26.564 56.72 48.125 126.687 48.125s126.688-21.56 126.688-48.125c0-18.827-28.526-35.102-70.031-43V111c26.532 6.88 43.968 18.444 43.968 31.563 0 21.1-45.05 38.218-100.625 38.218S27.375 163.663 27.375 142.562c0-13.469 18.39-25.29 46.125-32.093z" transform="matrix(.06315 0 0 .06568 -.085 -.432)" style="fill:#0067ab;fill-opacity:1;stroke:none"/><path d="M117.341 684.789v3.655q-8.123 1.544-11.982 5.727-3.858 4.184-3.859 9.546 0 5.442 1.95 13.525t1.95 14.095q0 5.524-3.29 11.25-3.29 5.728-9.464 9.79-4.305 2.842-13.73 5.361 10.074 3.168 14.623 6.255 6.012 4.143 9.017 9.749 3.006 5.605 3.006 10.641 0 4.875-1.99 12.998-1.99 8.124-1.99 14.135 0 5.768 3.696 9.951 3.696 4.185 12.063 5.809v3.818h-2.843q-8.286.08-15.719-3.818-7.433-3.9-11.21-10.033-3.778-6.134-3.778-11.9 0-5.607 2.518-15.354 1.869-7.23 1.869-12.917 0-6.417-4.062-10.926t-11.86-5.808v-4.956q7.798-1.3 11.86-6.011c4.062-4.711 4.062-6.96 4.062-11.454q0-5.524-1.787-12.43-2.52-9.666-2.519-14.703 0-5.28 3.168-10.723 3.169-5.442 7.962-8.855a32.7 32.7 0 0 1 10.479-4.955q4.386-1.218 11.86-1.462zm56.134 146.305v-3.737q8.042-1.544 11.942-5.727 3.899-4.184 3.899-9.545 0-5.362-1.95-13.445t-1.95-14.094q0-5.605 3.25-11.332t9.505-9.79q4.305-2.761 13.728-5.36-10.073-3.17-14.622-6.256-6.093-4.143-9.098-9.748t-3.006-10.642q0-4.875 1.99-12.998t1.99-14.054q0-5.849-3.655-9.991-3.656-4.143-12.023-5.85v-3.736l2.843-.081q8.205-.082 15.679 3.818 7.473 3.9 11.25 10.032 3.778 6.134 3.778 11.982 0 5.524-2.518 15.273-1.869 7.23-1.869 12.916 0 6.418 4.022 10.967 4.02 4.549 11.9 5.768v4.955q-7.88 1.3-11.9 6.011-4.022 4.713-4.022 11.455 0 5.523 1.788 12.429 2.436 9.666 2.437 14.703 0 5.362-3.128 10.764-3.127 5.402-7.92 8.814a32.7 32.7 0 0 1-10.48 4.955q-4.386 1.219-11.86 1.544z" style="font-style:normal;font-variant:normal;font-weight:700;font-stretch:normal;font-size:166.37px;line-height:125%;font-family:&quot;Times New Roman&quot;;-inkscape-font-specification:&quot;Times New Roman Bold&quot;;text-align:start;writing-mode:lr-tb;text-anchor:start;display:inline;fill:#000;fill-opacity:1;stroke:#000;stroke-width:4.36847;stroke-linecap:butt;stroke-linejoin:round;stroke-miterlimit:4;stroke-dashoffset:0;stroke-opacity:1" transform="matrix(.06315 0 0 .06568 -1.184 -44.83)"/><path d="M147.146 560.429h-6.372v-16.631l-4.604 10.792h-4.42l-4.605-10.792v16.63h-6.038v-24.837h7.44l5.588 12.46 5.571-12.46h7.44zm29.509 0h-7.857l-7.423-9.942-1.501 1.818v8.124h-6.406V535.59h6.406v11.243l8.874-11.243h7.423l-9.708 11.493zm25.688-24.839-9.057 24.839h-7.173l-9.058-24.838h6.722l6.006 17.448 6.005-17.448z" style="font-style:normal;font-variant:normal;font-weight:700;font-stretch:normal;font-size:34.1627px;line-height:125%;font-family:Verdana;-inkscape-font-specification:&quot;Verdana Bold&quot;;text-align:start;writing-mode:lr-tb;text-anchor:start;fill:#000;fill-opacity:1;stroke:none" transform="matrix(.1105 0 0 .11484 -9.872 -48.36)"/></svg>