<svg xmlns="http://www.w3.org/2000/svg" width="16" height="16"><defs><radialGradient id="a" cy=".828" r="38.364" fx="19.992" fy=".828" gradientTransform="matrix(.3909 0 0 .39121 .212 .26)" cx="19.992" gradientUnits="userSpaceOnUse"><stop offset="0%" stop-color="#20C6B7"/><stop offset="100%" stop-color="#4D9ABF"/></radialGradient></defs><path fill="url(#a)" d="m11.393 5.788-.005-.003-.009-.005a.04.04 0 0 1-.01-.036l.301-1.848 1.418 1.417-1.474.628-.013.002h-.006l-.008-.006a.7.7 0 0 0-.194-.148zm2.058-.113 1.515 1.516c.315.315.472.472.53.654l.022.082-3.624-1.534-.005-.002c-.015-.006-.033-.013-.033-.027s.018-.022.033-.028l.004-.002zm2.003 2.738c-.077.147-.23.3-.488.558l-1.71 1.708-2.21-.46-.01-.002c-.02-.003-.041-.007-.041-.024a.668.667 0 0 0-.257-.467c-.008-.008-.006-.023-.004-.036v-.005l.417-2.551.002-.01c.002-.019.005-.042.023-.042a.676.677 0 0 0 .454-.26q.004-.006.01-.01c.013-.006.028 0 .04.006zm-2.59 2.66-2.81 2.81.48-2.957v-.003l.004-.01c.003-.012.014-.015.024-.019l.004-.002a.724.723 0 0 0 .273-.202.067.066 0 0 1 .034-.024h.01l1.98.407zM9.46 14.476l-.318.316-3.502-5.06a.166.165 0 0 0-.004-.005q-.01-.01-.011-.024a.04.04 0 0 1 .01-.016l.003-.005.029-.048.008-.014c.007-.01.011-.019.022-.024.008-.005.018-.002.028 0l3.88.8a.065.064 0 0 1 .03.012q.007.008.007.017a.69.69 0 0 0 .403.46c.01.005.005.017 0 .03l-.006.017-.58 3.543zm-.663.661c-.234.231-.371.353-.528.403a.8.8 0 0 1-.47 0c-.184-.058-.34-.215-.655-.53l-3.517-3.517.918-1.424a.06.058 0 0 1 .016-.018c.01-.008.023-.004.035 0a.95.95 0 0 0 .641-.032c.01-.004.022-.007.03 0l.01.013zm-5.51-3.983-.807-.806 1.595-.68a.032.033 0 0 1 .012-.002c.014 0 .021.012.028.025a1.139 1.138 0 0 0 .051.071l.005.007q.006.01-.004.02zM2.125 9.991l-1.021-1.02a5.98 5.89 0 0 1-.388-.407l3.104.643.011.001c.02.004.041.008.041.026 0 .019-.022.029-.043.036l-.009.003zM.538 8.04a.8.8 0 0 1 .036-.195c.057-.182.215-.339.53-.654L2.41 5.885A850.868 850.625 0 0 0 4.22 8.5c.01.015.022.03.01.042a1.131 1.114 0 0 0-.155.206.062.063 0 0 1-.02.024q-.007.005-.016 0l-3.5-.733zM2.76 5.536 4.515 3.78c.166.073.767.326 1.304.552.407.173.777.329.894.38q.018.006.028.021c.003.007 0 .016 0 .023a.78.78 0 0 0 .204.715c.011.012 0 .029-.01.043l-.006.01-1.782 2.76a.054.053 0 0 1-.018.02c-.01.006-.021.003-.033 0a.89.889 0 0 0-.212-.028q-.098.002-.205.024c-.008 0-.015.003-.022-.002l-.017-.02zm2.112-2.11L7.145 1.15c.314-.314.473-.472.655-.53a.8.8 0 0 1 .472 0c.182.058.339.216.653.53l.494.493-1.617 2.504-.016.019q-.017.008-.036 0A.82.82 0 0 0 7 4.31c-.011.01-.027.005-.04 0-.212-.092-1.853-.787-2.09-.887zm4.89-1.44 1.494 1.494-.36 2.228v.006l-.003.015q-.007.01-.019.01a.715.716 0 0 0-.215.108l-.007.006q-.005.01-.016.01a.044.045 0 0 1-.016-.002l-2.28-.967-.005-.002c-.014-.005-.032-.013-.032-.027a.9.9 0 0 0-.12-.358c-.012-.018-.023-.037-.015-.055zM8.224 5.354l2.133.902c.012.006.025.01.03.023a.04.042 0 0 1 0 .022.547.539 0 0 0-.01.103v.06c0 .015-.017.021-.03.027l-.005.002c-.338.144-4.744 2.022-4.75 2.022q-.012.002-.022-.007c-.01-.01 0-.027.01-.042l.007-.009L7.34 5.743l.003-.004c.01-.017.021-.035.04-.035l.018.003q.059.009.111.01a.789.776 0 0 0 .66-.35.062.063 0 0 1 .014-.017q.018-.009.038.003zM5.78 8.943l4.803-2.047s.007 0 .014.006a.652.642 0 0 0 .07.06l.011.007c.01.006.02.012.02.021v.011l-.412 2.527-.002.01c-.003.02-.006.042-.024.042a.68.68 0 0 0-.536.33l-.003.004q-.007.015-.019.022c-.012.007-.02.002-.028 0l-3.83-.789c-.004 0-.06-.203-.064-.204"/></svg>