<svg width="16" height="16" viewBox="0 0 16 16" xmlns="http://www.w3.org/2000/svg"><path fill="#AAA" d="M9.588 10.048c-2.048 0-3.58-1.5-3.58-3.483 0-.21.032-.436.064-.613.113-.017.242-.017.355-.017 2.065 0 3.58 1.5 3.58 3.5 0 .21-.015.436-.048.597a3 3 0 0 1-.37.016ZM8.75 14c2.145 0 4.129-.613 5.484-1.758.322-.258.338-.661.129-.903-.226-.242-.613-.178-.904.113-1.21 1-2.903 1.548-4.71 1.548-3.209 0-5.741-1.855-5.741-4.097 0-1.161.79-2.21 2.048-2.71-.032.194-.032.436-.032.662C5.024 9.225 6.976 11 9.588 11s4.42-1.645 4.42-3.903C14.008 4.194 11.105 2 7.25 2c-2.145 0-4.13.613-5.484 1.758-.323.258-.339.661-.13.903.227.242.614.178.904-.113C3.75 3.548 5.443 3 7.25 3c3.21 0 5.758 1.839 5.758 4.097 0 1.177-.79 2.21-2.065 2.693.049-.193.049-.419.049-.645C10.992 6.775 9.04 5 6.412 5c-2.63 0-4.404 1.645-4.404 3.903C2.008 11.79 4.895 14 8.75 14" fill-opacity=".9"/><path fill="#c75450" d="M12.939 2 11 3.939 9.061 2 8 3.061 9.939 5 8 6.939 9.061 8 11 6.061 12.939 8 14 6.939 12.061 5 14 3.061z"/></svg>