<svg width="16" height="16" viewBox="0 0 16 16" fill="none" xmlns="http://www.w3.org/2000/svg"><g clip-path="url(#a)" transform="translate(.692 .692)scale(.91352)"><path d="M10.74 6.97 3.044 8.58c-.199.034-.398.067-.597.133A3.03 3.03 0 0 0 .903 9.775c-2.306 2.988.166 6.905 3.7 6.124l8.46-1.228a3.53 3.53 0 0 0 2.173-1.493c2.19-3.27-.647-7.336-4.495-6.208" fill="url(#b)" style="fill:url(#b)"/><path d="M6.512 1.012C5.566.15 4.172-.266 2.597.182A3.27 3.27 0 0 0 .954 1.329c-1.576 2.04-1.044 4.496.531 5.758l8.428 7.037c.846.564 1.94.813 3.151.547a3.53 3.53 0 0 0 2.174-1.493c1.294-1.942.83-4.183-.581-5.427z" fill="url(#c)" style="fill:url(#c)"/><path d="M3.674.017C3.259.05 2.894.1 2.596.199A3.14 3.14 0 0 0 .953 1.328c-2.455 3.186.183 7.335 3.932 6.506L14.97 4.033c.299-.066.548-.232.713-.498.63-.946-.016-2.091-1.045-2.091L4.09 0c-.15 0-.282 0-.415.017" fill="url(#d)" style="fill:url(#d)"/><path d="M12.98 3.021H3.027v9.958h9.953z" fill="#fff"/><path d="M8.003 11.103H4.271v.63h3.732zM7.506 8.1l-.415-.365c-.315.2-.697.315-1.112.315-1.144 0-1.974-.863-1.974-1.908v-.017c0-1.062.83-1.925 1.991-1.925s1.974.863 1.974 1.909v.016c0 .398-.116.764-.332 1.062l.382.332Zm-1.012-.896-.614-.515.514-.58.614.547c.066-.15.1-.332.1-.514v-.017c0-.63-.465-1.178-1.129-1.178s-1.111.514-1.111 1.162v.016c0 .63.465 1.179 1.128 1.179q.274 0 .498-.1m2.123-2.938h1.41c1.178 0 1.974.797 1.974 1.86v.016C12.001 7.187 11.19 8 10.027 8h-1.41Zm.813.73v2.258h.58c.664 0 1.129-.448 1.129-1.112v-.017c0-.664-.448-1.128-1.128-1.128z" fill="#000"/></g><defs><linearGradient id="b" x1="-.317" y1="12.564" x2="12.732" y2="10.688" gradientUnits="userSpaceOnUse"><stop offset=".176" stop-color="#FC7A26"/><stop offset=".634" stop-color="#FF318C"/></linearGradient><linearGradient id="c" x1="-2.221" y1="-.196" x2="16.345" y2="13.596" gradientUnits="userSpaceOnUse"><stop stop-color="#FF318C"/><stop offset=".399" stop-color="#B544C6"/><stop offset=".874" stop-color="#FF318C"/></linearGradient><linearGradient id="d" x1="-4.376" y1="5.917" x2="16.203" y2="1.093" gradientUnits="userSpaceOnUse"><stop stop-color="#FF318C"/><stop offset=".2" stop-color="#D73BAB"/><stop offset=".515" stop-color="#9D4AD8"/><stop offset=".748" stop-color="#7953F4"/><stop offset=".872" stop-color="#6B57FF"/></linearGradient><clipPath id="a"><path fill="#fff" d="M0 0h16v16H0z"/></clipPath></defs></svg>