<svg xmlns="http://www.w3.org/2000/svg" width="16" height="16" viewBox="0 0 16 16"><g fill="none"><path fill="#85EA2D" d="M7.976 14.538a6.61 6.61 0 0 1-6.604-6.604 6.61 6.61 0 0 1 6.604-6.603 6.61 6.61 0 0 1 6.604 6.604 6.61 6.61 0 0 1-6.604 6.603"/><path fill="#173647" d="M7.976 1.661a6.273 6.273 0 1 1 0 12.547 6.273 6.273 0 0 1 0-12.547m0-.661a6.94 6.94 0 0 0-6.934 6.934 6.94 6.94 0 0 0 6.934 6.935 6.94 6.94 0 0 0 6.935-6.935A6.94 6.94 0 0 0 7.976 1"/><path fill="#173647" d="M5.408 5.693c-.021.237.008.482-.008.722a6 6 0 0 1-.096.715c-.066.339-.277.595-.568.808.566.368.63.938.667 1.517.019.312.01.627.043.936.024.24.117.301.365.31.101.002.205 0 .323 0v.74c-.734.126-1.339-.082-1.488-.703a4 4 0 0 1-.091-.694c-.016-.248.01-.496-.008-.744-.053-.68-.141-.909-.792-.94v-.846q.07-.016.141-.024c.358-.019.51-.128.587-.48q.055-.296.067-.6c.026-.387.016-.781.082-1.165.094-.552.435-.819 1.003-.85.16-.009.323 0 .507 0v.756c-.078.006-.144.016-.214.016-.461-.016-.485.142-.52.526m.888 1.754h-.01a.488.488 0 0 0-.049.973h.032a.48.48 0 0 0 .507-.45v-.027a.49.49 0 0 0-.48-.496m1.672 0a.467.467 0 0 0-.483.45q0 .024.003.046c0 .29.197.478.496.478.294 0 .478-.192.478-.494-.003-.29-.198-.482-.494-.48m1.712 0a.5.5 0 0 0-.506.483c0 .272.218.49.49.49h.005c.246.043.494-.194.51-.48.013-.264-.227-.493-.499-.493m2.35.04c-.31-.013-.465-.117-.542-.41a3 3 0 0 1-.088-.574c-.021-.357-.019-.717-.043-1.075-.056-.847-.669-1.143-1.56-.997v.736c.142 0 .251 0 .36.003.19.002.334.074.352.285.019.192.019.387.038.582.037.386.058.778.125 1.16.059.314.275.549.544.74-.472.318-.61.771-.635 1.28-.013.35-.02.702-.04 1.054-.016.32-.127.424-.45.432-.09.003-.179.01-.28.016v.755c.19 0 .362.01.536 0 .538-.032.864-.294.97-.816q.069-.433.08-.87c.019-.266.017-.536.043-.8.04-.413.23-.584.643-.61a.6.6 0 0 0 .115-.027v-.845c-.07-.008-.118-.016-.169-.019z"/></g></svg>