<svg xmlns="http://www.w3.org/2000/svg" width="16" height="16" viewBox="0 0 252.667 254.399"><path fill="#CB3349" d="M29.319 118.142c2.226-.596-5.313-1.299-2.702-2.117-.001 2.389 23.674-22.587 23.82-20.398-.333.169-.625.328-.85.471-3.015 1.917-3.662 5.471-3.901 12.232-.122 3.472.174 10.295.985 16.629 1.392 10.898 2.684 12.328 4.499 13.038.917.365 2.346.794 3.763.973 2.887.364-16.799 28.202-14.07 27.898.03.204.068.443.109.7-1.233 2.201-2.477 3.342-2.477 3.342 4.29 12.945-3.543 20.115-3.543 20.115 2.927 13.428-9.251 16.601-9.251 16.601l-.88 3.856c2.365 3.82 6.442 2.714 4.34 19.379s-13.183 19.457-13.183 19.457c.828-2.577-3.93-8.709-3.93-8.709-15.862-31.307 8.153-30.709 8.153-30.709l.17-4.002s-6.94-8.397-6.232-14.007 3.784-10.439 3.784-10.439-4.343-8.091-3.656-13.536 2.939-8.681 2.939-8.681-3.127-7.099-2.315-13.534 4.53-10.659 4.53-10.659 6.83-5.429 7.6-11.534a15.1 15.1 0 0 1 2.298-6.366m205.216 0a181 181 0 0 1-7.298-2.117c.001 2.389-23.674-22.587-23.82-20.398.333.169.625.328.85.471 3.015 1.917 3.662 5.471 3.901 12.232.122 3.472-.174 10.295-.985 16.629-1.392 10.898-2.684 12.328-4.499 13.038-.917.365-2.346.794-3.763.973-2.887.364 16.799 28.202 14.07 27.898-.03.204-.068.443-.109.7 1.234 2.201 2.477 3.342 2.477 3.342-4.29 12.945 3.543 20.115 3.543 20.115-2.927 13.428 9.251 16.601 9.251 16.601l.88 3.856c-2.365 3.82-6.442 2.714-4.34 19.379s13.183 19.457 13.183 19.457c-.828-2.577 3.93-8.709 3.93-8.709 15.862-31.307-8.153-30.709-8.153-30.709l-.17-4.002s6.94-8.397 6.232-14.007-3.568-10.38-3.568-10.38 4.127-8.15 3.44-13.595-2.939-8.681-2.939-8.681 3.127-7.099 2.315-13.534-4.53-10.659-4.53-10.659 3.17-5.429 2.4-11.534a15.1 15.1 0 0 0-2.298-6.366"/><path fill="#32994F" d="M202.684 137.999c-.917.365-2.346.794-3.763.973-2.887.364 16.799 28.202 14.07 27.898-.03.204-.068.443-.109.7 1.234 2.201 2.477 3.342 2.477 3.342-.818 2.469-1.193 4.727-1.268 6.766l21.157-.023 2.911 2.997c.932-2.701 1.767-9.046 1.428-11.735-.687-5.445-2.939-8.681-2.939-8.681s3.127-7.099 2.315-13.534-4.53-10.659-4.53-10.659.452-.776.974-2.069l-29.877.033c-.85 2.859-1.753 3.564-2.846 3.992M40.972 167.57a58 58 0 0 1-.109-.7c-2.729.303 16.957-27.534 14.07-27.898a16.4 16.4 0 0 1-3.763-.973c-1.07-.419-1.958-1.105-2.793-3.819l-26.962.03c-1.136 1.145-1.994 1.832-1.994 1.832s-3.718 4.224-4.53 10.659 2.315 13.534 2.315 13.534-2.252 3.236-2.939 8.681c-.351 2.782.611 9.249 1.636 11.98l4.051-3.002 2.75-5.006 17.061 4.982c-.057-2.09-.427-4.411-1.271-6.959.002 0 1.245-1.141 2.478-3.341"/><path fill="#1E72B7" d="M17.924 182.452s-3.077 4.829-3.784 10.439c-.708 5.61 6.232 14.007 6.232 14.007l-.17 4.002S8.19 210.604 6.77 221.509l22.938-.025c-.341-7.036-3.101-7.117-4.886-10.001l.88-3.856s12.178-3.173 9.251-16.601c0 0 5.048-4.628 4.815-13.156l-16.677-6.131z"/><path fill="#6F5BA7" d="M12.049 241.61s4.758 6.132 3.93 8.709c0 0 11.08-2.793 13.182-19.457.515-4.083.658-7.095.547-9.378l-22.938.025c-.587 4.512.637 10.938 5.279 20.101"/><path fill="#1E72B7" d="m233.652 210.9-.17-4.002s6.94-8.397 6.232-14.007-3.568-10.38-3.568-10.38-4.565-9.312-4.988-11.86l-17.068 7.027c-.316 8.651 4.811 13.348 4.811 13.348-2.927 13.428 9.251 16.601 9.251 16.601l.88 3.856c-1.767 2.854-4.49 2.961-4.876 9.785l22.892-.025c-1.577-10.635-13.396-10.343-13.396-10.343"/><path fill="#6F5BA7" d="M224.692 230.862c2.102 16.665 13.183 19.457 13.183 19.457-.828-2.577 3.93-8.709 3.93-8.709 4.734-9.343 5.915-15.843 5.244-20.367l-22.892.025c-.132 2.309.004 5.382.535 9.594m-194.984-9.378c-.271-5.586-2.066-6.79-3.688-8.492l-7.809-1.955c-3.475.449-10.385 2.364-11.441 10.472-.587 4.512.636 10.938 5.279 20.101 0 0 4.758 6.132 3.93 8.709 0 0 11.08-2.793 13.182-19.457.516-4.083.658-7.095.547-9.378"/><path fill="#2D3136" d="M50.348 95.492q.078-.001.088.136c-.233.118-.446.231-.63.338.255-.306.441-.474.542-.474m-.541.474c-.707.851-1.943 2.768-3.386 5.099.55-2.337 1.494-3.903 3.165-4.966q.102-.064.221-.133m-3.386 5.099c-.442 1.878-.63 4.254-.736 7.266-.122 3.472.174 10.295.985 16.629 1.392 10.898 2.684 12.328 4.499 13.038.917.365 2.346.794 3.763.973 2.871.362-16.585 27.901-14.112 27.901l.042-.002c.03.204.068.443.109.699-1.234 2.201-2.477 3.342-2.477 3.342 4.29 12.945-3.543 20.115-3.543 20.115 2.927 13.428-9.251 16.601-9.251 16.601l-.88 3.856c-2.302 4.487 6.442 2.714 4.34 19.379s-13.183 19.457-13.183 19.457c.204-9.718-8.013-18.2-7.792-25.266.406-12.998 8.082-14.218 10.948-14.218a7.4 7.4 0 0 1 1.067.065l.17-4.002s-6.94-8.397-6.232-14.007 3.784-10.439 3.784-10.439-4.343-8.091-3.656-13.536 2.939-8.681 2.939-8.681-3.127-7.099-2.315-13.534 4.53-10.659 4.53-10.659 6.83-5.429 7.6-11.534a15.15 15.15 0 0 1 2.298-6.367 181 181 0 0 0 7.298-2.117q.001.162.083.161c.718.002 5.93-8.99 9.722-15.12m3.927-9.573c-1.484 0-2.525.775-3.13 1.377-2.215 1.485-3.699 3.654-4.52 6.612a744 744 0 0 0-2.695 4.425c-1.688 2.786-4.094 6.757-5.318 8.531a179 179 0 0 1-6.401 1.841 4 4 0 0 0-2.325 1.693c-1.561 2.415-2.539 5.119-2.907 8.037-.462 3.664-4.679 7.758-6.12 8.903a4 4 0 0 0-.514.489c-.185.21-4.541 5.234-5.495 12.801-.672 5.326.884 10.866 1.878 13.712-.879 1.778-2.02 4.686-2.502 8.503-.615 4.874 1.695 10.829 3.114 13.923-1.116 2.19-2.72 5.915-3.242 10.052-.672 5.323 3.048 11.512 5.442 14.866-5.775 1.419-11.078 6.574-11.425 17.672-.133 4.241 1.793 8.277 3.832 12.55 1.991 4.172 4.049 8.486 3.959 12.757a3.997 3.997 0 0 0 4 4.084q.49 0 .977-.121c.561-.141 13.757-3.681 16.173-22.835 1.533-12.155-2.307-16.472-4.371-18.792l-.068-.076q.017-.06.03-.122l.394-1.725c5.131-2.269 11.501-7.979 10.104-18.437 2.372-3.079 6.312-10.076 3.721-20.339a21 21 0 0 0 1.521-2.347 4 4 0 0 0 .46-2.592l-.074-.467c.986-2.074 3.781-6.685 5.899-10.179 7.981-13.167 9.423-15.999 8.027-18.889a4.29 4.29 0 0 0-3.34-2.395 12.5 12.5 0 0 1-2.739-.703c-.318-.53-1.122-2.531-2.056-9.847-.782-6.102-1.072-12.659-.955-15.982.096-2.716.251-4.536.506-5.892 1.156-1.854 1.856-2.91 2.281-3.507a4 4 0 0 0 1.959-3.713c-.148-2.205-1.902-3.868-4.08-3.868"/><path fill="#2D3136" d="M23.814 209.616a2 2 0 0 1-1.738-1.008c-.547-.957-.596-1.367.738-2.725.045-.046 6.421-5.65 6.421-5.65s-2.961 7.599-3.13 7.696c-.314.178-1.955 1.687-2.291 1.687m-9.377 12.687c-1.333-5.875-.977-7.003-.395-8.5 1.305-3.357 2.833-4.018 2.962-4.113a2 2 0 0 1 2.38 3.214c-.103.08-1.427.899-2.885 2.92-.661.917-1.145 2.167-2.062 6.479"/><path fill="#FFF" d="m15.612 207.188 13.718 3.117-.919 3.286-13.19-3.302z"/><path fill="#2D3136" d="m15.612 207.188 13.718 3.117-.919 3.286-13.19-3.302zm0-2a2 2 0 0 0-1.984 1.75l-.391 3.1a2 2 0 0 0 1.499 2.19l13.19 3.302a2 2 0 0 0 2.412-1.402l.919-3.286a2 2 0 0 0-1.483-2.488l-13.718-3.116a2 2 0 0 0-.444-.05"/><path fill="#6F5BA7" d="M247.048 221.243c-1.17-7.886-7.967-9.763-11.405-10.206l-7.81 1.955c-1.601 1.679-3.371 2.873-3.677 8.276-.131 2.308.005 5.382.536 9.593 2.102 16.665 13.183 19.457 13.183 19.457-.828-2.577 3.93-8.709 3.93-8.709 4.733-9.342 5.914-15.842 5.243-20.366"/><path fill="#2D3136" d="M203.557 95.492c1.865.002 21.652 20.695 23.536 20.695q.143.001.144-.161c2.611.818 5.072 1.521 7.298 2.117.973 1.505 1.952 3.622 2.298 6.367.77 6.105-2.4 11.534-2.4 11.534s3.718 4.224 4.53 10.659-2.315 13.534-2.315 13.534 2.252 3.236 2.939 8.681-3.44 13.595-3.44 13.595 2.86 4.77 3.568 10.38-6.232 14.007-6.232 14.007l.17 4.002s.405-.065 1.067-.065c2.866 0 10.542 1.22 10.948 14.218.221 7.066-7.996 15.548-7.792 25.266 0 0-11.08-2.793-13.183-19.457s6.641-14.892 4.34-19.379l-.88-3.856s-12.178-3.173-9.251-16.601c0 0-7.833-7.169-3.543-20.115 0 0-1.243-1.141-2.477-3.342.041-.256.079-.496.109-.699l.042.002c2.473 0-16.984-27.538-14.112-27.901a16.4 16.4 0 0 0 3.763-.973c1.815-.71 3.107-2.141 4.499-13.038.811-6.335 1.107-13.157.985-16.629-.239-6.761-.886-10.316-3.901-12.232a10 10 0 0 0-.85-.471q.01-.14.14-.138m.003-4h-.004c-2.207 0-3.983 1.663-4.131 3.869a4 4 0 0 0 2.182 3.835c.339.172.48.258.515.28 1.147.729 1.814 2.379 2.048 8.997.117 3.323-.174 9.879-.955 15.98-.935 7.316-1.738 9.317-2.056 9.848-.657.254-1.724.575-2.739.703a4.29 4.29 0 0 0-3.339 2.395c-1.397 2.89.046 5.722 8.027 18.889 2.118 3.494 4.912 8.104 5.899 10.179l-.074.467a4 4 0 0 0 .46 2.592 21 21 0 0 0 1.521 2.347c-2.591 10.263 1.349 17.26 3.721 20.339-1.396 10.458 4.973 16.168 10.104 18.437l.394 1.725q.013.061.03.122l-.068.076c-2.063 2.32-5.904 6.637-4.371 18.792 2.417 19.155 15.613 22.694 16.173 22.835a4 4 0 0 0 4.977-3.963c-.09-4.271 1.969-8.585 3.959-12.757 2.039-4.273 3.964-8.309 3.832-12.55-.347-11.097-5.649-16.252-11.425-17.672 2.395-3.353 6.114-9.543 5.442-14.866-.522-4.135-2.039-7.837-3.077-9.986 1.336-3.07 3.565-9.102 2.949-13.989-.482-3.818-1.622-6.726-2.502-8.503.995-2.846 2.55-8.386 1.878-13.712-.59-4.678-2.48-8.384-3.881-10.582 1.051-2.574 2.346-6.898 1.752-11.611-.368-2.918-1.346-5.623-2.907-8.037a4 4 0 0 0-2.325-1.693 177 177 0 0 1-7.136-2.069 4 4 0 0 0-.423-.108c-1.962-1.543-6.707-6.076-9.974-9.196-10.828-10.345-12.181-11.411-14.476-11.413"/><path d="m226.417 115.053-99.5-10.75-98.25 9v36.534c-1.64.92-3.106 1.796-3.611 2.219-.637.527-1.126 1.873-.434 8.122.522 4.695 2.174 11.913 3.86 17.32l.034.105c2.965 2.253 7.143 4.583 11.575 4.437l2.118 1.138.066.223.061-.017-.049-.164 3.879 2.083 8.25 20 4.491 6.488-.241.179 8.167 11.833L83.5 238.47l22.167 10.667 17.833 3 20.833-1.167L168 241.803l19.833-18.167 12.346-17.785.737-.049 10.75-25.75 6-17.75zm3.077 33.055c-.62-.522-4.583-2.716-5.048-2.973l-3.562 24.949a1.8 1.8 0 0 1-.747 1.209l-.053.037-.001.002-1.889 1.321-3.157 2.209c-.123.624-.221 1.142-.313 1.625 4.994 1.203 9.839-2.395 12.561-4.992-1.124 4.383-2.372 8.034-3.346 9.136l.026-.004c2.065-2.24 5.404-16.172 6.112-24.112.587-6.48.071-7.875-.583-8.407" fill="#FFF"/><path fill="#2D3136" d="M216.666 194.303a2.001 2.001 0 0 1-1.482-3.343l4.92-3.594-1.594 6.312c-.395.436-1.299.625-1.844.625m21.878-9.25c-.615 0-2.006-2.008-2.398-2.542l-3.289-7.195 7.296 6.553a2 2 0 0 1-1.609 3.184m-222.879 0a2 2 0 0 1-1.611-3.184l7.296-6.553-3.427 7.136c-.391.534-1.643 2.601-2.258 2.601"/><path fill="#C6C6C5" d="M190.5 216.803s-32.167 29-61.667 29S67.5 220.47 67.5 220.47s17.5 31.667 63.667 31.667 59.333-35.334 59.333-35.334m-147.333-39.5 3 9.25s24.25 10.25 45.5 4 28.75-22.75 31.25-32-5 4-5 4-27 16.75-43 16.75-31.75-2-31.75-2m169.26 0-3 9.25s-24.25 10.25-45.5 4-28.75-22.75-31.25-32 5 4 5 4 27 16.75 43 16.75 31.75-2 31.75-2m2.252-.824a55 55 0 0 1-.753 3.424c2.921.681 7.7 1.208 9.983.763.978-1.063 2.24-4.746 3.374-9.171-2.73 2.605-7.594 6.219-12.604 4.984m-172.397 6.944c-.163-.517-.31-1.042-.462-1.564-5.104.945-10.042-1.758-13.392-4.322 1.082 3.472 2.178 6.2 2.998 7.028 2.526.44 8.116-.334 10.856-1.142"/><path d="M212.41 185.641c2.67.643 6.623.56 9.533.56 1.428 0 2.9-.247 3.855-.494 1.89-.477 3.35-1.735 6.096-12.372 1.598-6.183 2.745-12.915 3.059-16.375.609-6.738.412-10.345-2.339-12.624-1.354-1.12-5.306-3.251-7.366-4.327l-.118.006-.73 5.095c-.002-.001 4.437 2.444 5.095 2.998.654.532 1.17 1.927.582 8.407-.708 7.941-4.047 21.872-6.112 24.112-2.278.445-7.062-.082-9.972-.757.494-1.999.642-2.966 1.044-5.008l-4.976 3.482a114 114 0 0 1-.955 3.723c-.504 1.609-1.03 3.17-1.567 4.705-2.141 6.107-4.551 11.65-7.17 16.656l-.053.003-.002.036s2.127.411 5.546-1.163l.056-.042c3.864-7.891 5.814-14.199 6.494-16.621M57.574 215.717l4.692-1.371.069-.02-.014-.019s-10.125-16.82-12.44-22.274c-1.348-3.176-2.094-5.334-2.266-5.847v-.01c-.175-.499-.361-1.009-.525-1.524L45 179.587l-5.43-3.796c.099.343 2.204 5.685 2.304 6.029.152.522.3 1.047.462 1.564-2.74.808-8.33 1.581-10.856 1.142-.82-.829-1.916-3.557-2.998-7.028-1.686-5.407-3.338-12.625-3.86-17.32-.692-6.249-.203-7.595.434-8.122.73-.61 3.453-2.165 5.828-3.434l-.632-5.127c-1.246.648-6.666 3.499-8.294 4.859-2.729 2.269-2.861 5.788-2.13 12.356.373 3.366 1.636 9.901 3.338 15.892 2.933 10.307 5.08 12.131 6.969 12.559.851.203 1.949.297 3.185.297 3.377 0 7.704-.659 10.527-1.511 3.305 10.277 7.983 19.557 13.684 27.701z" fill="#2D3136"/><path fill="#9A9C9E" d="m28.345 119.438 1.06 4.009a134 134 0 0 1 7.984-5.892 285 285 0 0 0-9.044 1.883"/><path fill="#D8D8D8" d="m140.921 129.081-2.395-1.295c-.251-.125-4.407-2.151-10.233-1.906l-.251.011-.251-.011c-5.977-.248-10.203 1.89-10.245 1.912l-2.432 1.315-2.531-1.021c-22.722-8.758-40.45-9.794-53.504-10.32l-23.28 4.133c-.603.163-1.156.325-1.646.478.475 20.423 4.607 34.042 12.592 41.566 6.961 6.56 17.325 9.358 34.656 9.358 26.78 0 30.531-25.413 30.678-26.494l.431-3.176 2.879-1.408c.061-.03 6.951-2.955 12.654-2.955s12.594 2.925 12.654 2.955l2.879 1.408.431 3.176c.152 1.059 4.121 26.494 30.678 26.494 17.331 0 27.695-2.799 34.656-9.358 7.793-7.345 11.906-20.515 12.541-40.132l-32.378-7.498c-12.094 1.26-27.365 4.59-46.001 11.772z"/><path fill="#CB3349" d="M250.667 143.97s-48-15-57-39.667l41.894 5c-.001 0-3.228 17.333 15.106 34.667M77.247 93.567l-26.58 10.795s1.825 3.783 2.176 10.153l-31.737 3.787S20.333 135.636 2 152.969c0 0 39.167-9.417 58.906-33.588-1.739 10.421-7.239 15.671-13.662 22.405 0 0 30.674-9.234 49.897-37.724-1.144 4.377-4.827 18.317-7.973 23.49 0 0 105.084-26.233 107.257-52.4L76.334 91.029s.43.897.913 2.538"/><g fill="#51B95B"><path d="M2 152.97s22.762-5.474 42.327-18.785l-28.143.031C13.366 139.84 8.945 146.404 2 152.97"/><path d="m77.247 93.567-26.58 10.795s1.825 3.783 2.176 10.153l-31.737 3.787s-.302 6.691-4.922 15.913l28.143-.031c6.099-4.149 11.888-9.059 16.579-14.803-1.059 6.35-3.52 10.777-6.73 14.792-2.059 2.575-4.423 4.982-6.933 7.613 0 0 7.182-2.17 16.767-7.624 10.233-5.822 23.204-15.389 33.13-30.1-1.144 4.377-4.827 18.317-7.973 23.49 0 0 66.033-16.487 94.489-36.358l-107.197.12c.162.381.461 1.142.788 2.253m164.983 40.399c-8.753-13.425-6.669-24.663-6.669-24.663l-41.894-5c4.633 12.697 19.599 22.833 33.034 29.68 12.664 6.454 23.966 9.987 23.966 9.987-3.573-3.378-6.319-6.755-8.437-10.004"/></g><path d="m235.56 109.303-41.894-5c9 24.667 57 39.667 57 39.667-18.333-17.334-15.106-34.667-15.106-34.667M77.247 93.567l-26.58 10.795s1.825 3.783 2.176 10.153l-31.737 3.787S20.333 135.636 2 152.969c0 0 45.167-13.667 61.917-39.417-1.739 10.421-10.25 21.5-16.674 28.234 0 0 30.674-9.234 49.897-37.724-1.144 4.377-4.827 18.317-7.973 23.49 0 0 95.084-26.233 97.257-52.4L76.334 91.029s.43.897.913 2.538" fill="none" stroke="#2D3136" stroke-width="4" stroke-linecap="round" stroke-linejoin="round" stroke-miterlimit="10"/><path fill="#F4EDAE" d="M240.153 89.895a68 68 0 0 0-.268-2.576 33 33 0 0 0-.275-1.828c-2.301-1.933-4.915-3.657-7.633-5.217-2.949-1.73-6.035-3.267-9.186-4.701-3.125-1.477-6.338-2.811-9.566-4.113a152 152 0 0 0-4.876-1.894c-1.626-.637-3.268-1.23-4.915-1.829 3.454.571 6.88 1.362 10.28 2.236a126 126 0 0 1 6.594 1.894c-15.54-40.604-52.678-67.045-93.232-67.045-40.559 0-77.693 26.441-93.223 67.045 2.18-.687 4.382-1.329 6.584-1.894 3.399-.873 6.826-1.665 10.285-2.236a209 209 0 0 0-4.931 1.829 165 165 0 0 0-4.865 1.894c-3.229 1.302-6.436 2.636-9.571 4.113-3.142 1.434-6.227 2.971-9.176 4.701-2.724 1.56-5.332 3.284-7.638 5.217a57 57 0 0 0-.269 1.828 83 83 0 0 0-.275 2.576 66 66 0 0 0-.22 5.205c-.038 3.481.197 6.963.637 10.401.477 3.453 1.11 6.886 2.043 10.203a56 56 0 0 0 1.592 4.881c.308.791.637 1.576.983 2.328.17.379.345.752.527 1.109l.224.423c.253.126.522.263.775.385l1.543.736c.862.395 2.053.961 3.041 1.4.055-.05.11-.099.154-.148l-2.866-10.917c.609-.165 6.051-1.571 15.431-3.361a47 47 0 0 1-2.268-.483c-2.136-.532 19.742-3.581 38.676-5.541 17.309-1.785 34.667-2.938 52.113-2.976 17.441.038 34.805 1.191 52.108 2.976 18.94 1.961 45.979 3.108 44.969 3.537-2.043.824-4.146 1.472-6.282 2.004-.319.077-.638.143-.956.215 10.291 1.905 16.277 3.459 16.913 3.629l-2.74 10.4c.555-.241 1.115-.483 1.653-.735l1.548-.736c.252-.122.516-.258.779-.385l.209-.423c.187-.357.368-.73.538-1.109.347-.752.676-1.538.979-2.328a56 56 0 0 0 1.593-4.881c.939-3.317 1.57-6.749 2.042-10.203.445-3.438.682-6.92.649-10.401a65 65 0 0 0-.231-5.205"/><path fill="#2D3136" d="M178.491 106.522c-8.735-.904-17.486-1.644-26.255-2.162-8.6-.507-17.217-.801-25.853-.82-8.588.019-17.155.31-25.705.812-8.815.519-17.615 1.261-26.408 2.17-18.934 1.955-40.812 5.003-38.676 5.535.388.094.78.167 1.172.25.368.078.735.167 1.101.233 0 0 8.359-.14 23.483-.289l.433-.035a771 771 0 0 1 11.6-.776c.435-.025.87-.056 1.305-.08 1.11-.062 2.22-.111 3.33-.171 2.612-.139 5.225-.281 7.839-.402q5.576-.26 11.148-.46l16.31-.456q6.54-.124 13.064-.142h.011c2.96.011 5.925.043 8.891.082l-.026.006h.026l25.271.686c5.843.247 11.686.527 17.529.857 1.596.089 3.188.192 4.78.294l.334.023c1.873.121 3.747.254 5.62.387 8.861.053 18.003.121 27.408.206.318-.072.636-.138.956-.215 2.135-.53-19.748-3.578-38.688-5.533m54.296 103.094c-.335 0-.675-.085-.987-.264-.169-.097-4.431-9.12-4.431-9.12s6.394 5.634 6.422 5.651a2.002 2.002 0 0 1-1.004 3.733m-75.82 34.713c-9.675 3.91-18.789 5.432-25.811 5.902-7.001.472-14.106-.353-21.064-2.251l-.121.022-9.299 1.361c17.84 6.54 37.508 6.933 56.173-.137a82.6 82.6 0 0 0 13.979-6.898c-.209.048-8.128 1.86-13.818 2.005z"/><path fill="#2D3136" d="M62.32 214.306s19.327 27.27 47.649 33.696l-3.553 1.551-5.747-.19s-22.274-6.37-43.139-33.715l.26-3.72z"/><path fill="none" d="M106.576 74.028h.006zM14.579 91.151l-.254.086zm38.002-9.876-.005.001h-.002c.489-.1.975-.199 1.472-.298-.494.099-.978.198-1.465.297m-38.277 9.97-.209.072zm99.398-17.61q-.855.04-1.706.084h-.001c.57-.028 1.137-.058 1.71-.084zm4.764-.184q-1.161.038-2.315.083h-.001q1.157-.045 2.322-.083zm31.969.406-.019-.001zm-25.229-.564h-.002zm114.791 17.749-.041-.016zm-222.261-.919-.094.03zm32.77-8.419h-.002zm188.501 8.97-.042-.015zm-223.63.21-.227.075zm-.428.142-.221.074zm.921-.304-.181.059zm.63-.202-.158.05zm120.368-16.989q-.595-.013-1.194-.022h-.003l1.199.022zm82.33 11.419.029.008zm-3.58-.926-.011-.003.072.018-.004-.001zm-3.802-.935.038.009-.032-.008zm1.968.478.026.006zm-3.924-.94-.004-.001.034.008-.003-.001zm12.586 3.204-.006-.002.068.019-.01-.003zm15.207 4.748.014.005-.009-.003zm-8.172-2.694.027.008-.018-.006zm-5.45-1.609.002.001zm4.203 1.23.03.009-.009-.003zM13.504 91.51l-.003.001-.17.059.178-.062zm192.19-9.825-.015-.003.064.014-.005-.001z"/><path fill="#E5D667" d="m240.233 91.133-.042-.016-.194-.074-.041-.016-.371-.14-.014-.005-.563-.207-.042-.015-.724-.262-.014-.005h-.001a194 194 0 0 0-8.132-2.681l-.013-.004-.027-.008-1.218-.371-.03-.009-.015-.005q-.641-.194-1.315-.393l-.014-.004q-1.36-.402-2.856-.827l-.002-.001-.036-.01a260 260 0 0 0-1.488-.418l-.068-.019q-.757-.21-1.544-.424l-.068-.018-1.601-.43-.029-.008-.051-.014q-.814-.216-1.657-.434l-.086-.022q-.848-.219-1.724-.441l-.072-.018q-.883-.223-1.797-.448l-.026-.006-.032-.008q-.919-.227-1.866-.453l-.032-.008-.038-.009a384 384 0 0 0-1.925-.455l-.034-.008q-.995-.231-2.018-.463l-.019-.004a385 385 0 0 0-2.076-.463l-.064-.014a271 271 0 0 0-2.112-.456l-.019-.004a330 330 0 0 0-4.09-.845 93 93 0 0 1 .52 10.987 72 72 0 0 1-.193 4.493c-.079-.902-.237-2.566-.473-4.492-.428-3.497-1.114-7.872-2.07-10.206-.222-.543-.727-1.036-1.422-1.488a357 357 0 0 0-19.705-3.151c-.791.63-1.397 1.564-1.701 2.942-.924 4.198-2.253 7.581-3.448 9.874 1.056-4.674 1.495-9.335 1.642-13.258a348 348 0 0 0-3.439-.402c-.149 4.451-.68 9.927-2.118 15.169a1.6 1.6 0 0 0-.048.556c.008.118.018.237.048.35a400 400 0 0 0-8.27-.763c3.091-6.48 3.767-13.382 3.916-15.815q.098-.07.196-.143c-1.095-.103-2.204-.2-3.317-.294l-.31-.025c-.102 1.929-.701 9.263-4.01 15.645a2 2 0 0 0-.143.368c-9.522-.653-19.072-.933-28.61-.939-9.534.006-19.089.269-28.616.918-.039-.115-.077-.237-.132-.346-3.077-5.925-3.81-12.672-3.983-15.152-1.149.111-2.302.219-3.434.339.187 2.7.935 9.244 3.885 15.428-1.924.153-3.848.329-5.771.516-.832.081-1.663.159-2.494.247.022-.078.023-.162.033-.244a1.7 1.7 0 0 0-.033-.646c-1.371-5.003-1.916-10.226-2.094-14.567q-1.737.214-3.444.438c.156 3.514.551 7.569 1.405 11.671-1.061-2.239-2.168-5.274-2.972-8.925-.225-1.02-.62-1.791-1.126-2.385a409 409 0 0 0-21.348 3.52 2.3 2.3 0 0 0-.354.562c-.967 2.37-1.661 6.844-2.088 10.367a129 129 0 0 0-.515 5.058l-.135.081a68 68 0 0 1-.261-5.138c-.043-2.732.045-6.27.446-10.361-.496.099-.983.199-1.472.298q-1.045.213-2.068.427h-.002c-15.641 3.271-27.155 6.648-32.768 8.419l-.094.03-.57.181-.158.05-.472.152-.184.06-.39.127-.181.059-.312.103-.227.075-.201.067-.221.074-.15.051-.254.086-.021.007-.209.072-.013.004-.178.062a71 71 0 0 0-.127 3.717c-.038 3.481.198 6.963.637 10.401.477 3.453 1.109 6.886 2.043 10.203a56 56 0 0 0 1.592 4.881c.308.791.637 1.576.983 2.328.17.379.345.752.527 1.109l.224.423c.253.126.522.263.775.385l1.544.736c.862.395 2.053.961 3.041 1.401.055-.05.11-.099.154-.148l-2.867-10.917c.609-.165 6.051-1.571 15.431-3.361a47 47 0 0 1-2.268-.483c-2.136-.532 19.742-3.581 38.676-5.541 17.309-1.785 34.667-2.938 52.113-2.976 17.441.038 34.805 1.192 52.108 2.976 18.94 1.961 45.979 3.108 44.969 3.537-2.043.824-4.146 1.472-6.282 2.004-.319.077-.638.143-.956.215 10.291 1.905 16.276 3.459 16.913 3.629l-2.74 10.4c.555-.241 1.115-.483 1.653-.735l1.548-.736c.252-.122.516-.258.779-.385l.209-.423c.187-.357.368-.73.538-1.109.347-.752.676-1.538.979-2.328a56 56 0 0 0 1.593-4.881c.939-3.317 1.57-6.749 2.042-10.203.445-3.438.682-6.92.649-10.401a69 69 0 0 0-.149-3.968M49.712 98.499c-2.551.836-5.113 1.713-7.551 2.84 2.73-1.769 4.789-5.784 6.286-9.994a65 65 0 0 0 1.814-6.115 92 92 0 0 0-.116 6.113c.062 4.034.389 6.455.418 6.656.017.077.039.148.05.225-.297.094-.604.182-.901.275m154.844 0c-.297-.093-.604-.182-.901-.274.011-.077.033-.149.05-.225.03-.204.365-2.693.42-6.827a91 91 0 0 0-.117-5.943 66 66 0 0 0 1.751 5.941c1.501 4.274 3.581 8.375 6.349 10.168-2.438-1.127-5-2.004-7.552-2.84"/><path fill="#DACD52" d="m150.416 73.856-.026-.001a358 358 0 0 0-6.424-.313l-.307-.013q-3.073-.119-6.215-.185l-1.199-.022a348 348 0 0 0-6.331-.063q-2.367.002-4.709.035c-.57.008-1.135.021-1.703.031a343 343 0 0 0-9.795.311q-.857.04-1.71.084a383 383 0 0 0-5.414.309h-.006c-1.458.094-2.898.2-4.335.308 1.931 4.607 4.37 7.584 7.448 7.584h35.432c3.151 0 5.612-3.122 7.538-7.915-.744-.048-1.471-.105-2.222-.149z"/><path fill="#E2453C" d="m94.26 25.669.701-2.072s.129 6.784.838 15.723c9.978-1.082 20.595-1.825 30.949-1.825 10.688 0 21.699.777 32.016 1.896.551-7.45.707-13.419.744-15.237.991 3.769 2.22 9.197 3.152 15.68 24.742 2.93 44.557 7.572 44.557 7.572-18.842-26.436-48.448-42.584-80.14-42.584-31.766 0-61.428 16.222-80.259 42.762 0 0 19.842-4.793 44.672-7.771a143 143 0 0 1 2.77-14.144"/><path fill="#E07E39" d="M163.547 47.454c.618 6.981.77 14.748-.056 22.788l-.119.34a46 46 0 0 1-2.757 2.048 1.74 1.74 0 0 0-.757 1.399c0 .012-.005.192-.021.492l.31.027a315 315 0 0 1 3.317.294c2.31-1.658 4.59-3.613 6.278-5.146a87 87 0 0 1-.002 5.791q1.736.195 3.439.402a86 86 0 0 0-.049-7.66l26.32 7.485c.238 1.551.428 3.044.579 4.474 2.15.43 4.221.866 6.221 1.305l.015.003.044.01.005.001q2.115.465 4.113.93l.004.001.027.006.003.001q.977.228 1.925.455l.006.001.032.008q.98.235 1.931.469l.026.006q.913.225 1.797.448l.011.003.057.014.004.001q1.823.46 3.518.911l.028.007h.001q1.67.443 3.213.872l.006.002.051.014.01.003q.779.216 1.524.428h.003q2.253.64 4.201 1.229l.021.006.009.003q.625.189 1.218.371l.009.003.018.006a194 194 0 0 1 8.145 2.685l.006.002.009.003q.403.144.724.262l.042.015q.643.236.948.352l.041.016.236.091c-.027-.413-.043-.826-.08-1.238a68 68 0 0 0-.268-2.576 33 33 0 0 0-.275-1.828c-2.301-1.933-4.915-3.657-7.633-5.217-2.949-1.73-6.035-3.267-9.186-4.701-3.125-1.477-6.338-2.811-9.566-4.113a152 152 0 0 0-4.876-1.894c-1.626-.637-3.268-1.23-4.915-1.829 3.454.571 6.88 1.362 10.28 2.236a126 126 0 0 1 6.594 1.894c-3.396-8.872-7.823-17.068-13.092-24.46 0 0-19.815-4.642-44.557-7.572.348 2.407.654 4.954.89 7.621m-61.307 26.88q2.152-.164 4.336-.305h.006q2.684-.173 5.414-.309h.001q.85-.044 1.706-.084h.003q1.218-.055 2.444-.101h.001q1.154-.044 2.315-.083h.005q3.338-.11 6.733-.158h.001q2.342-.033 4.708-.034c2.134 0 4.24.026 6.331.063h.003l1.194.022h.002c4.427.094 8.754.268 12.972.512l.019.001q1.118.065 2.227.136c2.742-6.835 4.394-17.066 5.385-26.533.292-2.793.527-5.517.715-8.069-10.317-1.119-21.328-1.896-32.016-1.896-10.354 0-20.971.743-30.949 1.825.206 2.593.46 5.365.774 8.208 1.065 9.604 2.812 19.988 5.67 26.805M14.077 91.323l.005-.002.013-.004.209-.072.021-.007.254-.086.15-.051.221-.074.201-.067.227-.075.312-.103.181-.059.39-.127.184-.06.472-.152.158-.05.57-.181.094-.03c5.609-1.771 17.123-5.147 32.768-8.419h.001q1.023-.214 2.069-.427h.001l.005-.001c.487-.099.971-.198 1.465-.297a96 96 0 0 1 .658-5.263l26.309-7.485a89 89 0 0 0-.02 8.297q1.707-.224 3.444-.438a88 88 0 0 1-.03-6.393c1.741 1.576 4.096 3.602 6.479 5.288l.024.37a373 373 0 0 1 3.433-.342c-.042-.607-.052-.967-.053-.984a1.74 1.74 0 0 0-.752-1.399 45 45 0 0 1-2.861-2.12c-.85-8.101-.711-15.94-.09-22.974.239-2.705.549-5.287.901-7.723-24.829 2.979-44.672 7.771-44.672 7.771a109.6 109.6 0 0 0-12.964 24.283c2.18-.687 4.382-1.329 6.584-1.894 3.399-.873 6.826-1.665 10.285-2.236a209 209 0 0 0-4.931 1.829 165 165 0 0 0-4.865 1.894c-3.229 1.302-6.436 2.636-9.571 4.113-3.142 1.434-6.227 2.971-9.176 4.701-2.724 1.56-5.332 3.284-7.638 5.217a54 54 0 0 0-.269 1.828 80 80 0 0 0-.275 2.576c-.043.495-.063.992-.092 1.489l.17-.059q-.002-.002.001-.002"/><path fill="#E07E39" d="M90.911 75.355c1.132-.119 2.285-.228 3.434-.339v-.003c-1.151.112-2.301.223-3.434.342M14.325 91.237l-.021.007zm194.067-9.266.019.004zm-8.361-1.781c1.397.279 2.757.561 4.09.845l.019.004a332 332 0 0 0-4.109-.849m39.539 10.691.014.005.371.14zm-.605-.223q-.322-.118-.724-.262zm2.186-.717-.472.152zm-34.932 8.875-.57.181zm222.549.964.042.016-.236-.091zM50.504 81.704c-15.645 3.271-27.158 6.648-32.768 8.419 5.613-1.771 17.126-5.148 32.768-8.419M16.26 90.595l-.39.127zm-1.11.364-.201.067zm.539-.178-.312.103zm-1.595.536-.013.004zm88.146-16.983.001.003c1.437-.108 2.877-.215 4.335-.308q-2.184.14-4.336.305m21.261-1.01c.568-.01 1.133-.023 1.703-.031a361 361 0 0 0-4.601.094q1.444-.038 2.898-.063m36.731.222c.751.043 1.478.101 2.222.149l.005-.013q-1.109-.071-2.227-.136m37.385-.486q3.252.13 6.424.313l.026.001a358 358 0 0 0-6.757-.327zm15.872.982.31.025-.31-.027zm-2.592-.781.014.004q.675.2 1.315.393l.015.005zm2.632.793a194 194 0 0 1 8.132 2.681h.001a194 194 0 0 0-8.133-2.681m-5.526-1.631.036.01zm-12.109-3.16q.948.226 1.866.453l.032.008a330 330 0 0 0-1.931-.469zm5.517 1.374.086.022q.843.219 1.657.434l.051.014a314 314 0 0 0-1.794-.47m3.424.907.068.018zm-3.791-.932"/><path fill="#C6B22F" d="m163.465 74.843-.196.143c-.149 2.432-.825 9.335-3.916 15.815a400 400 0 0 1 8.27.763 2 2 0 0 1-.048-.35 1.6 1.6 0 0 1 .048-.556c1.438-5.242 1.969-10.718 2.118-15.169q-3.086-.346-6.276-.646"/><path fill="#A34D24" d="M169.743 69.697c-1.688 1.533-3.968 3.488-6.278 5.146q3.19.3 6.276.645c.076-2.245.056-4.234.002-5.791"/><path fill="#C6B22F" d="M86.532 90.657c.059.218.059.435.033.646-.01.082-.012.166-.033.244.831-.088 1.663-.166 2.494-.247 1.923-.187 3.847-.363 5.771-.516-2.95-6.184-3.699-12.729-3.885-15.428-2.189.231-4.35.475-6.473.734.177 4.341.722 9.564 2.093 14.567"/><path fill="#A34D24" d="M84.407 69.697a89 89 0 0 0 .03 6.393 393 393 0 0 1 6.473-.734l-.024-.37c-2.382-1.687-4.738-3.713-6.479-5.289"/><path fill="#C6B22F" d="M54.046 80.978a92 92 0 0 0-.446 10.361 68 68 0 0 0 .261 5.138l.135-.081s.171-2.22.515-5.058c.427-3.523 1.121-7.998 2.088-10.367.08-.194.207-.38.354-.562q-1.475.284-2.907.569m24.255-4.089c.507.594.901 1.365 1.126 2.385.804 3.65 1.911 6.686 2.972 8.925-.855-4.103-1.249-8.157-1.405-11.671q-1.357.177-2.693.361m93.238 12.259c1.195-2.293 2.524-5.676 3.448-9.874.303-1.378.909-2.311 1.701-2.942a349 349 0 0 0-3.507-.442c-.147 3.923-.586 8.584-1.642 13.258m24.854-9.665c.695.451 1.2.945 1.422 1.488.956 2.335 1.642 6.709 2.07 10.206.236 1.926.394 3.59.473 4.492.082-1.077.166-2.604.193-4.493a93 93 0 0 0-.52-10.987 372 372 0 0 0-3.638-.706"/><path d="M54.704 75.715a96 96 0 0 0-.658 5.263 408 408 0 0 1 26.948-4.451 89 89 0 0 1 .02-8.297zm144.748 0-26.32-7.485c.096 1.816.168 4.499.049 7.66a357 357 0 0 1 23.212 3.593q1.852.35 3.638.706a99 99 0 0 0-.579-4.474" fill="#A34D24"/><path fill="#8D9294" d="M-43.119-5.899h-.002l.016.001-.012-.001zm-60.326.512c-.228.021-.46.039-.688.06.228-.021.46-.039.688-.06m4.913-.414-.347.026z"/><path fill="#C6B22F" d="M156.91 74.291c-1.398-.106-2.829-.193-4.252-.285-1.925 4.793-4.387 7.915-7.538 7.915h-35.432c-3.078 0-5.516-2.978-7.448-7.584-.246.019-.497.034-.742.053l-.347.026q-2.302.181-4.565.388l-.688.06c-.523.048-1.034.103-1.554.153.173 2.48.906 9.227 3.983 15.152.055.11.093.231.132.346 9.527-.648 19.082-.912 28.616-.918 9.538.006 19.088.286 28.61.939.038-.126.077-.247.143-.368 3.309-6.382 3.908-13.716 4.01-15.645q-1.448-.12-2.912-.232z"/><path fill="#A82023" d="M159.507 24.154a301 301 0 0 1-.744 15.237q1.967.214 3.896.442c-.932-6.481-2.16-11.909-3.152-15.679m-64.546-.557-.701 2.072a143 143 0 0 0-2.771 14.144q2.132-.256 4.31-.492c-.709-8.94-.838-15.724-.838-15.724"/><path fill="#A34D24" d="M152.662 73.993q2.143.137 4.247.297h.004l.013.001c.975.074 1.95.149 2.912.229.016-.301.021-.48.021-.492a1.75 1.75 0 0 1 .757-1.399 46 46 0 0 0 2.757-2.048l.119-.34c.826-8.04.674-15.807.056-22.788a141 141 0 0 0-.888-7.62q-1.93-.228-3.896-.442a269 269 0 0 1-.715 8.069c-.992 9.467-2.644 19.698-5.387 26.533m-56.076.81q2.263-.206 4.565-.388l.347-.026.741-.056c-2.857-6.817-4.604-17.201-5.667-26.805a266 266 0 0 1-.774-8.208q-2.177.235-4.31.492a140 140 0 0 0-.901 7.723c-.62 7.034-.76 14.873.09 22.974a45 45 0 0 0 2.861 2.12c.461.318.742.839.752 1.399.001.017.011.377.053.984.518-.05 1.033-.102 1.554-.15z"/><path fill="#8D9294" d="M101.499 74.389c.245-.019.496-.034.742-.053l-.001-.003zm55.775-.123q1.465.112 2.912.232v-.003c-.962-.081-1.937-.155-2.912-.229m-4.268-.286c1.423.091 2.854.179 4.252.285a340 340 0 0 0-4.247-.297zm-58.314 1.008v.003c.52-.05 1.031-.105 1.554-.153-.521.048-1.036.099-1.554.15"/><path fill="#C6B22F" d="M50.145 91.343a91 91 0 0 1 .116-6.113 65 65 0 0 1-1.814 6.115c-1.497 4.21-3.556 8.225-6.286 9.994 2.438-1.127 5-2.004 7.551-2.84.297-.093.604-.182.901-.274-.011-.077-.033-.149-.05-.225-.029-.202-.356-2.623-.418-6.657m155.614-.172a66 66 0 0 1-1.751-5.941 91 91 0 0 1 .117 5.943c-.055 4.134-.391 6.622-.42 6.827-.017.077-.039.148-.05.225.297.093.604.181.901.274 2.551.836 5.113 1.713 7.551 2.84-2.767-1.793-4.847-5.894-6.348-10.168"/><g fill="#2D3136"><path d="M212.705 101.748a6 6 0 0 1-.731-.413c-2.436-1.123-4.988-1.996-7.536-2.831a28 28 0 0 0-.901-.275q.036-.116.056-.23c.038-.289.693-5.127.298-12.757a101 101 0 0 0-1.21-11.164 1.73 1.73 0 0 0-1.23-1.378l-3.751-1.06c-.807-29.028-12.757-42.668-13.13-43.091 10.675 17.183 10.582 37.561 10.396 42.311l-23.257-6.611c-.016 0-.033 0-.054-.011a3 3 0 0 0-.297-.045c-.022 0-.049-.005-.088-.005a1.5 1.5 0 0 0-.379.033c-.017 0-.038.017-.061.017a1.3 1.3 0 0 0-.301.104c-.038.016-.072.039-.105.05-.077.055-.153.099-.23.154-.017.011-.038.022-.055.038-.022.017-.033.034-.044.044-.022.022-.049.038-.066.055-.022.023-.648.637-1.62 1.555a106 106 0 0 0-.241-10.742c-.729-10.212-3.145-24.557-10.358-37.115.062.181.775 2.265 1.697 5.774 2.322 8.83 5.977 26.699 3.984 46.088l-.024.267q-.048.036-.094.073a46 46 0 0 1-2.756 2.048 1.75 1.75 0 0 0-.757 1.399c0 .088-.203 8.759-4.031 16.14a2 2 0 0 0-.143.368c-9.522-.653-19.072-.933-28.61-.939-9.534.006-19.089.269-28.616.918-.039-.115-.077-.237-.132-.346-3.833-7.381-4.031-16.052-4.037-16.14a1.74 1.74 0 0 0-.752-1.399 45 45 0 0 1-2.861-2.12c-1.936-18.446 1.257-35.54 3.582-44.841 1.104-4.416 2.014-7.083 2.085-7.288-10.467 18.212-10.829 40.188-10.598 47.855a51 51 0 0 1-1.62-1.555c-.017-.017-.05-.033-.071-.055l-.039-.044a.2.2 0 0 0-.061-.038 3 3 0 0 0-.23-.142c-.038-.022-.066-.045-.11-.061a.8.8 0 0 0-.286-.093c-.027-.011-.049-.028-.066-.028a1.6 1.6 0 0 0-.385-.033c-.033 0-.065.005-.098.005a3 3 0 0 0-.286.045c-.022.011-.033.011-.055.011l-23.25 6.611c-.186-4.75-.286-25.128 10.39-42.311-.374.423-12.323 14.063-13.136 43.091L52.71 72.7a1.72 1.72 0 0 0-1.241 1.378 101 101 0 0 0-1.209 11.151c-.395 7.638.261 12.481.303 12.771.017.077.039.148.05.225-.297.093-.604.181-.901.274-2.551.836-5.113 1.713-7.551 2.84a7 7 0 0 1-.685.389l-.041.02-1.1.538-.572.28-.003.001c-.12.068-.242.13-.36.199 1.724-.676 3.509-1.17 5.293-1.61 1.79-.445 3.592-.84 5.392-1.181a175 175 0 0 1 10.901-1.702c3.641-.478 7.298-.873 10.961-1.181 3.662-.313 7.32-.62 10.994-.835 14.684-.867 29.406-1.142 44.135-1.147 14.733.011 29.455.241 44.134 1.142 3.674.214 7.331.521 10.999.83 3.668.312 7.315.714 10.956 1.192 3.652.439 7.288 1.021 10.901 1.697 1.806.346 3.602.73 5.387 1.186 1.796.439 3.569.933 5.299 1.61-.096-.055-.194-.105-.289-.159l-.656-.321zM82.556 91.981c-3.69.45-7.386.917-11.065 1.526-3.668.627-7.337 1.296-10.972 2.103a183 183 0 0 0-6.578 1.648 33 33 0 0 1-.08-.781c-.253-2.713-.732-10.528.844-20.761l26.309-7.485c-.198 3.916-.305 11.852 1.386 19.968.235 1.125.503 2.254.811 3.376.034.11.078.22.126.319-.265.031-.517.054-.781.087m3.976-.434c.077-.28.083-.587 0-.889-2.158-7.874-2.273-16.304-2.125-20.961 1.741 1.576 4.097 3.602 6.479 5.288.143 2.432.819 9.319 3.91 15.799a318 318 0 0 0-8.264.763m81.092-.89a1.7 1.7 0 0 0 0 .906 355 355 0 0 0-8.27-.764c3.091-6.48 3.767-13.382 3.916-15.815 2.377-1.686 4.738-3.712 6.474-5.288.158 4.647.043 13.076-2.12 20.961m32.734 5.013a41 41 0 0 1-.149 1.594 185 185 0 0 0-6.579-1.647c-7.276-1.598-14.64-2.784-22.042-3.63-.252-.033-.516-.05-.774-.082q.075-.165.127-.33c.222-.807.416-1.617.598-2.426 1.907-8.441 1.807-16.849 1.592-20.918l26.32 7.485c1.435 9.352 1.157 16.689.907 19.954"/><path d="M128.766 85.921H141.1V69.274h-5.266V39.802h3.487v6.376h15.48v-21.84h-54.469v21.839h15.469v-6.376h3.476v29.472h-5.25V85.92h14.739zm-10.098-11.996h5.26V35.161H111.15v6.375h-6.178V28.984h45.178v12.553h-6.178v-6.375h-12.778v38.764h5.261v7.194h-17.786v-7.195z"/><path d="M23.965 126.43c-.663-.307-1.327-.618-1.863-.864l-1.543-.736c-.253-.122-.522-.258-.775-.385l-.002-.004-.002-.001-.22-.417c-.182-.357-.358-.73-.527-1.109a35 35 0 0 1-.858-2.031c-.04-.101-.086-.196-.125-.297a56 56 0 0 1-1.592-4.881c-.934-3.317-1.566-6.744-2.043-10.203a81 81 0 0 1-.348-3.313 74 74 0 0 1-.294-7.088q.012-1.165.058-2.329c.035-.961.086-1.92.168-2.877.077-.862.17-1.725.275-2.576.077-.604.17-1.241.269-1.828 2.306-1.939 4.914-3.657 7.638-5.228 2.944-1.719 6.029-3.257 9.176-4.69 3.135-1.477 6.342-2.816 9.566-4.118a236 236 0 0 1 4.871-1.895c.223-.085.449-.164.672-.248 1.413-.54 2.828-1.058 4.259-1.575-3.459.571-6.886 1.362-10.285 2.236a127 127 0 0 0-6.584 1.894c15.53-40.604 52.663-67.045 93.223-67.045 6.337 0 12.59.646 18.69 1.89 32.942 6.719 61.43 30.896 74.542 65.155l-.006-.002v.001a128 128 0 0 0-6.595-1.894c-3.39-.872-6.813-1.663-10.269-2.234 1.43.52 2.855 1.04 4.27 1.584.212.08.428.156.64.237a206 206 0 0 1 4.876 1.895c3.229 1.302 6.441 2.641 9.566 4.118 3.151 1.434 6.238 2.971 9.186 4.69 2.719 1.57 5.333 3.289 7.633 5.228.104.587.203 1.219.275 1.828a65 65 0 0 1 .5 7.782c.033 3.481-.203 6.963-.649 10.401-.472 3.453-1.104 6.886-2.042 10.203a54 54 0 0 1-1.588 4.876 39 39 0 0 1-.983 2.334c-.169.379-.351.752-.538 1.109l-.209.423c-.263.126-.527.263-.779.385l-1.548.736c-.537.252-1.097.493-1.651.735l-3.522 13.378 1.856-7.035c.653-.28 1.345-.56 2.13-.862 1.12-.445 2.241-.889 3.361-1.372l1.658-.747a47 47 0 0 0 1.725-.841l.592-.302.374-.588c.208-.318.319-.494.451-.736l.362-.654c.247-.45.467-.878.67-1.318a44 44 0 0 0 1.142-2.658 59 59 0 0 0 1.802-5.381 71 71 0 0 0 2.076-11.038c.423-3.718.516-7.463.329-11.202a60 60 0 0 0-.538-5.58 36 36 0 0 0-.456-2.784 31 31 0 0 0-.664-2.85l-.198-.725-.516-.407c-2.944-2.311-6.118-4.058-9.341-5.601-2.663-1.257-5.365-2.351-8.1-3.361-7.621-21.153-20.725-39.912-37.951-52.981C169.83 7.15 148.887 0 127.075 0S84.319 7.15 66.51 20.659C49.284 33.728 36.18 52.486 28.559 73.645c-2.729 1.004-5.436 2.103-8.094 3.355-3.229 1.543-6.403 3.29-9.346 5.601l-.516.407-.198.725a40 40 0 0 0-.664 2.85 47 47 0 0 0-.456 2.784 63 63 0 0 0-.538 5.58 70 70 0 0 0 .329 11.202 71 71 0 0 0 2.075 11.038 59 59 0 0 0 1.801 5.381q.519 1.334 1.143 2.658c.208.44.433.868.664 1.318l.369.654c.142.242.236.418.45.736l.373.588.594.302c.631.325 1.153.572 1.724.841l1.664.747c.307.126.598.252.912.378l4.289-3.824a129 129 0 0 1-1.169-.536"/></g><path fill="#CC4032" d="M118.668 73.925h5.26V35.161H111.15v6.376h-6.178V28.984h45.178v12.553h-6.178v-6.376h-12.779v38.764h5.261v7.194h-17.786z"/><path fill="#2D3136" d="M170.822 242.328s24.856-15.774 35.038-40.025l-3.068-1.126-2.423 2.25s-17.903 30.061-43.365 40.906l-.337 1.72zm-26.339-59.54s-5.876 5.458-15.343 6.678c-9.462 1.214-16.892-4.597-16.892-4.597.312 1.006.751 3.277 2.876 5.214h-.031l.037.006.018.018h.05c.409.495 4.607 4.009 13.032 4.009 6.371 0 11.177-3.711 11.994-4.256l.18-.046h-.027c4.07-3.076 4.106-7.026 4.106-7.026"/><path fill="none" stroke="#656C67" stroke-width="12" stroke-linecap="round" stroke-linejoin="round" stroke-miterlimit="10" d="M141.343 122.489s-5.424-2.934-13.302-2.603c-7.878-.331-13.302 2.603-13.302 2.603-59.608-22.974-86.634-4.186-86.634-4.186 0 52.022 20.964 61 53.294 61s36.624-31.689 36.624-31.689c.112-.055 5.862-2.344 10.018-2.344s9.906 2.29 10.018 2.344c0 0 4.294 31.689 36.624 31.689s53.294-8.978 53.294-61c0 0-27.026-18.788-86.634 4.186"/><path fill="#2D3136" d="M238.271 222.303c1.333-5.875.977-7.003.395-8.5-1.305-3.357-2.833-4.018-2.962-4.113a2 2 0 0 0-2.38 3.214c.103.08 1.427.899 2.885 2.92.661.917 1.145 2.167 2.062 6.479"/><circle fill="#FFF" cx="85.667" cy="141.303" r="4"/><circle fill="#FFF" cx="171" cy="141.303" r="4"/><path fill="none" stroke="#2D3136" stroke-width="4" stroke-linecap="round" stroke-linejoin="round" stroke-miterlimit="10" d="M174.683 185.303c-27.013 0-38.661-19.931-41.856-33.141-1.618-.471-3.471-.892-4.786-.892s-3.167.421-4.786.892c-3.195 13.209-14.843 33.141-41.856 33.141-35.59 0-59.294-11.394-59.294-67v-3.557l3.12-1.707c1.188-.65 29.449-19.476 89.374 2.978 2.795-1.043 7.538-2.339 13.441-2.136 5.914-.21 10.646 1.092 13.441 2.136 59.928-22.453 88.187-3.628 89.374-2.978l3.12 1.708v3.556c.002 55.606-23.701 67-59.292 67m-46.641-46.033c5.704 0 12.594 2.925 12.654 2.955l2.879 1.408.431 3.176c.152 1.059 4.121 26.494 30.678 26.494 17.331 0 27.695-2.799 34.656-9.358 7.984-7.525 12.117-21.147 12.592-41.573-8.423-2.644-33.824-11.477-78.43 5.715l-2.58.994-2.395-1.295c-.251-.125-4.407-2.151-10.233-1.906l-.251.011-.251-.011c-5.977-.248-10.203 1.89-10.245 1.912l-2.432 1.315-2.531-1.021c-44.553-17.172-69.951-8.371-78.43-5.709.475 20.423 4.607 34.042 12.592 41.566 6.961 6.56 17.325 9.358 34.656 9.358 26.78 0 30.531-25.413 30.678-26.494l.431-3.176 2.879-1.408c.058-.028 6.948-2.953 12.652-2.953"/><g fill="#2D3136"><path d="M183.191 133.734c-.04.187-.941 3.306-5.75 3.061.267.474.399-.973-2.208-2.537 3.333.298 5.764.641 7.958-.524"/><path d="M184.593 135.611c-.04.187-.941 3.306-5.75 3.061.267.474.399-.973-2.208-2.537 3.333.298 5.764.64 7.958-.524"/><path d="M185.668 137.94c-.04.187-.941 3.306-5.75 3.061.267.474.399-.973-2.208-2.537 3.332.299 5.764.641 7.958-.524"/><path d="M170.497 157.532q.633.09 1.238.157c5.735.517 8.078-2.368 8.078-2.368.788-1.174 1.329-2.843 1.53-5.225.731-8.628-3.117-16.21-8.577-16.911-5.467-.702-10.104 5.789-11.203 14.384-1.1 8.579 3.467 9.267 8.934 9.963m-2.327-16.648a2.807 2.807 0 0 1 3.184-2.382 2.803 2.803 0 0 1 2.382 3.189 2.82 2.82 0 0 1-3.19 2.382 2.81 2.81 0 0 1-2.376-3.189"/></g><g fill="#2D3136"><path d="M73.443 133.578c.037.188.889 3.32 5.701 3.152-.274.47-.384-.979 2.248-2.502-3.337.246-5.773.55-7.949-.65"/><path d="M72.012 135.433c.037.188.889 3.32 5.701 3.152-.274.47-.384-.979 2.248-2.502-3.338.245-5.774.549-7.949-.65"/><path d="M70.9 137.745c.037.188.889 3.32 5.701 3.152-.274.47-.384-.979 2.248-2.502-3.337.246-5.773.55-7.949-.65"/><path d="M94.85 147.752c-.963-8.612-5.498-15.174-10.975-14.559-5.471.615-9.438 8.136-8.842 16.774.164 2.385.679 4.062 1.448 5.249 0 0 2.297 2.922 8.04 2.495.405-.039.816-.083 1.241-.137 5.476-.611 10.053-1.227 9.088-9.822m-8.926-3.636a2.82 2.82 0 0 1-3.152-2.432 2.805 2.805 0 0 1 2.432-3.152c1.54-.2 2.952.89 3.146 2.432a2.81 2.81 0 0 1-2.426 3.152"/></g><path fill="#414042" d="M148.404 215.935s-6.863-1.789-8.988-1.789-11.669 2.644-11.669 2.644l-11.669-4.644-8.988 3.789 11.248 3.965h7.409l2.053 1s6.367-.473 9.409-1 11.248-3.965 11.248-3.965l7.096-4"/><path fill="#FFF" d="M126.748 216.791s-.002 1.346 1.002 1.346 12.247-.069 19.707-2.201l-5.957-3.549-14.5.417z"/><path fill="#FFF" d="M128.457 216.791s.002 1.346-1.002 1.346-12.247-.069-19.707-2.201l5.957-3.549 14.5.417z"/><path fill="#6F5BA7" d="M157.556 210.937c-.019-.019-.056-.002-.056-.002s-5.74 2.685-8.78-.355-7.859-6.027-11.644-6.027c-3.237 0-7.746 2.726-8.988 3.516-1.452-.79-6.694-3.516-9.931-3.516-3.784 0-8.604 2.987-11.644 6.027s-8.78.355-8.78.355-.037-.017-.056.002-.005.048-.005.048l10.155 10.816s5.072 5.668 7.989 7.251 9.666 2.758 11.616 2.758l.252-.001v-.002l.116.003c1.95 0 8.699-1.175 11.616-2.758s7.989-7.251 7.989-7.251l10.155-10.816c.001 0 .015-.029-.004-.048m-9.099 4.998s-8.206 3.438-11.248 3.965-9.516 1-9.516 1-6.627-.473-9.669-1-11.248-3.965-11.248-3.965l-.019-.011.072.011s6.863-1.789 8.988-1.789c2.122 0 11.639 2.636 11.666 2.643 0 0 .087.013.142.013s.126-.013.126-.013c.027-.007 9.544-2.643 11.666-2.643 2.125 0 8.988 1.789 8.988 1.789l.072-.011z"/><path fill="#1E72B7" d="M157.556 210.937c-.019-.019-.056-.002-.056-.002s-5.74 2.685-8.78-.355-7.859-6.027-11.644-6.027c-3.237 0-7.746 2.726-8.988 3.516-1.452-.79-6.694-3.516-9.931-3.516-3.784 0-8.604 2.987-11.644 6.027s-8.78.355-8.78.355-.037-.017-.056.002-.005.048-.005.048l.422.45c2.611 1.677 5.598 3.191 8.996 4.433 1.257-.321 6.844-1.721 8.726-1.721 2.122 0 11.639 2.636 11.666 2.643 0 0 .087.013.142.013s.126-.013.126-.013c.027-.007 9.544-2.643 11.666-2.643 1.768 0 6.801 1.235 8.449 1.651a65 65 0 0 0 9.041-4.114l.655-.698c0-.001.014-.03-.005-.049"/><path fill="none" stroke="#2D3136" stroke-width="2" stroke-linecap="round" stroke-linejoin="round" stroke-miterlimit="10" d="M148.457 215.935s-8.206 3.438-11.248 3.965-9.516 1-9.516 1-6.627-.473-9.669-1-11.248-3.965-11.248-3.965l-.019-.011.072.011s6.863-1.789 8.988-1.789c2.122 0 11.639 1.636 11.666 1.643 0 0 .087.013.142.013s.126-.013.126-.013c.027-.007 9.544-1.643 11.666-1.643 2.125 0 8.988 1.789 8.988 1.789l.072-.011z"/><path fill="#FFF" d="m238.242 207.188-13.718 3.117.918 3.286 13.191-3.302z"/><path fill="#2D3136" d="m238.242 207.188.391 3.1-13.19 3.302-.919-3.286zm0-2a2 2 0 0 0-.443.05l-13.718 3.116a2 2 0 0 0-1.483 2.488l.918 3.286a2 2 0 0 0 2.412 1.402l13.19-3.302a2 2 0 0 0 1.499-2.19l-.391-3.1a2 2 0 0 0-1.984-1.75"/><path fill="#DACD52" d="M125.204 73.293c-.429.006-.848.022-1.276.03v.602h-5.26v7.194h17.786v-7.194h-5.261v-.654c-.429-.002-.848-.013-1.28-.013q-2.367.002-4.709.035"/><path fill="#CC4032" d="M111.15 35.161h12.778v2.358c.941-.012 1.882-.025 2.819-.025 1.477 0 2.96.018 4.446.046v-2.38h12.778v2.936c2.07.136 4.132.291 6.178.464v-9.578h-45.177v9.467c2.048-.168 4.107-.322 6.178-.45z"/><path fill="#E07E39" d="M125.206 73.293q2.34-.033 4.707-.034c.431 0 .851.011 1.28.013V37.541a228 228 0 0 0-4.446-.046c-.937 0-1.878.013-2.819.025v35.796q.636-.014 1.276-.023z"/><path fill="#DD8142" d="M111.15 41.537v-3.536c-2.07.128-4.129.282-6.178.45v3.086zm32.822 0h6.178v-2.975a331 331 0 0 0-6.178-.464z"/><path fill="#D8D8D8" d="M143.407 28.983h-38.435v12.554h6.178v-6.376h12.778v38.764h-5.26v7.194h17.786v-7.194h-5.261V35.161h12.779v6.376h6.178V28.983z"/><path fill="none" stroke="#2D3136" stroke-width="3" stroke-linecap="round" stroke-linejoin="round" stroke-miterlimit="10" d="M157.556 210.937c-.019-.019-.056-.002-.056-.002s-5.74 2.685-8.78-.355-7.859-6.027-11.644-6.027c-3.237 0-7.746 2.726-8.988 3.516-1.452-.79-6.694-3.516-9.931-3.516-3.784 0-8.604 2.987-11.644 6.027s-8.78.355-8.78.355-.037-.017-.056.002-.005.048-.005.048l10.155 10.816s5.072 5.668 7.989 7.251 9.666 2.758 11.616 2.758l.252-.001v-.002l.116.003c1.95 0 8.699-1.175 11.616-2.758s7.989-7.251 7.989-7.251l10.155-10.816c.001 0 .015-.029-.004-.048"/><path fill="#2D3136" d="M148.539 216.991s1.729-.646 4.062-2.229 2.083-2.354 2.083-2.354-2.438 2.875-9.479 1.729c-4.911-.799 3.334 2.854 3.334 2.854m-41.804 0s-1.729-.646-4.062-2.229-2.083-2.354-2.083-2.354 2.438 2.875 9.479 1.729c4.911-.799-3.334 2.854-3.334 2.854"/></svg>