<svg width="16" height="16" viewBox="0 0 16 16" xmlns="http://www.w3.org/2000/svg"><path d="m8.5 8.048.015.016.021.022zm-1 0-6-3.028v6.5l6 3.028zM14.1 4.2 8 1.603 1.9 4.2 8 7.228Z" fill="#9aa7b0" fill-opacity=".8" fill-rule="evenodd"/><path fill="#40A0CF" d="M11.491 6.878q-.526 0-1.047.089c-.928.162-1.097.501-1.097 1.127v.827h2.193v.275H8.524a1.366 1.366 0 0 0-1.37 1.1 4 4 0 0 0 0 2.204c.06.606.558 1.075 1.166 1.1h.754v-.991a1.386 1.386 0 0 1 1.37-1.347h2.19a1.1 1.1 0 0 0 1.096-1.103V8.094a1.22 1.22 0 0 0-1.096-1.127 7 7 0 0 0-1.143-.089m-1.186.665a.413.413 0 1 1 .004.827.413.413 0 0 1-.004-.827"/><path fill="#FFC900" d="M14.004 9.196v.963a1.4 1.4 0 0 1-1.37 1.376h-2.19a1.11 1.11 0 0 0-1.097 1.102v2.065a1.27 1.27 0 0 0 1.097 1.102c.713.22 1.476.22 2.19 0a1.25 1.25 0 0 0 1.096-1.102v-.827h-2.19V13.6h3.286c.638 0 .875-.44 1.097-1.1a3.7 3.7 0 0 0 0-2.204 1.17 1.17 0 0 0-1.097-1.1zm-1.232 5.23a.413.413 0 1 1 .003.827.413.413 0 0 1-.003-.827"/></svg>