<svg xmlns="http://www.w3.org/2000/svg" width="16" height="16" viewBox="0 0 16 16"><g fill="#1EBBEE"><path d="M15 8.035a6 6 0 0 0-.788-2.982C16.35.321 11.92 1.015 11.673 1.062a11.5 11.5 0 0 0-2.608.833 7 7 0 0 0-.356-.01c-2.99 0-5.492 2.038-6.133 4.77 1.576-1.727 2.679-2.425 3.34-2.704a15 15 0 0 0-.311.28l-.1.094-.199.189-.114.114-.172.173-.12.124a16 16 0 0 0-.787.885l-.122.15q-.06.072-.116.144l-.108.137-.12.155-.082.11a19 19 0 0 0-.84 1.215l-.008.013q-.076.12-.148.238l-.006.008q-.194.319-.357.607c-.567 1.003-.843 1.705-.854 1.746-1.79 6.253 3.795 3.613 4.574 3.219a6.4 6.4 0 0 0 2.783.633c2.735 0 5.063-1.707 5.929-4.09h-3.306c-.489.807-1.43 1.354-2.512 1.354-1.585 0-2.87-1.174-2.87-2.622h8.998q.052-.39.052-.792m-1.175-6.052c.541.357.976.919.23 2.81a6.28 6.28 0 0 0-3.073-2.494c.582-.275 2.024-.856 2.843-.316M2.31 13.539c-.441-.442-.52-1.52.455-3.483a6.2 6.2 0 0 0 2.739 3.273c-.63.339-2.304 1.102-3.194.21m3.625-6.394c.05-1.408 1.303-2.534 2.843-2.534s2.792 1.126 2.843 2.534H5.936Z"/><path d="M15 8.035a6 6 0 0 0-.788-2.982C16.35.321 11.92 1.015 11.673 1.062a11.5 11.5 0 0 0-2.608.833 7 7 0 0 0-.356-.01c-2.99 0-5.492 2.038-6.133 4.77 1.576-1.727 2.679-2.425 3.34-2.704a15 15 0 0 0-.311.28l-.1.094-.199.189-.114.114-.172.173-.12.124a16 16 0 0 0-.787.885l-.122.15q-.06.072-.116.144l-.108.137-.12.155-.082.11a19 19 0 0 0-.84 1.215l-.008.013q-.076.12-.148.238l-.006.008q-.194.319-.357.607c-.567 1.003-.843 1.705-.854 1.746-1.79 6.253 3.795 3.613 4.574 3.219a6.4 6.4 0 0 0 2.783.633c2.735 0 5.063-1.707 5.929-4.09h-3.306c-.489.807-1.43 1.354-2.512 1.354-1.585 0-2.87-1.174-2.87-2.622h8.998q.052-.39.052-.792m-1.175-6.052c.541.357.976.919.23 2.81a6.28 6.28 0 0 0-3.073-2.494c.582-.275 2.024-.856 2.843-.316M2.31 13.539c-.441-.442-.52-1.52.455-3.483a6.2 6.2 0 0 0 2.739 3.273c-.63.339-2.304 1.102-3.194.21m3.625-6.394c.05-1.408 1.303-2.534 2.843-2.534s2.792 1.126 2.843 2.534H5.936Z"/></g></svg>